<svg width="342" height="108" viewBox="0 0 342 108" fill="none" xmlns="http://www.w3.org/2000/svg">
<path d="M4.65633 89.3072C19.4227 81.0985 32.8781 70.5431 48.1436 52.576C58.5344 40.311 64.1209 26.3065 64.3869 16.6469C64.5199 9.46452 61.0177 4.01581 54.544 4.01581C47.3613 4.01581 42.8389 9.46452 40.0457 21.9718C36.9864 35.7174 34.7252 51.49 29.0056 102.067" stroke="white" stroke-width="7.98073" stroke-linecap="round"/>
<path d="M29.5662 97.1236C32.4945 71.3829 43.637 52.5859 57.8693 52.5859C66.3821 52.5859 71.7923 59.3696 70.2561 69.0794C69.3913 74.799 68.3889 80.6515 67.2209 87.4351C65.8595 95.9479 69.7507 102.599 81.5404 102.599C98.7339 102.599 117.491 93.0438 127.091 78.2448C130.361 73.2028 131.691 68.6804 131.824 64.291C131.957 56.3103 127.435 50.3247 119.454 50.3247C109.345 50.3247 101.63 61.7638 101.63 76.3951C101.63 92.0906 110.143 103.131 128.222 103.131C152.803 103.131 180.031 73.6221 192.542 40.6915C196.074 31.3936 197.399 22.7599 197.399 16.7266C197.399 9.57291 195.138 4.07988 188.753 4.07988C182.502 4.07988 178.378 8.93419 174.654 16.5989C170.29 25.4885 167.063 38.3103 165.742 52.8041C162.417 89.1723 169.866 102.599 187.576 102.599C209.052 102.599 232.929 72.6802 245.12 40.5897C248.614 31.3936 249.939 22.7599 249.939 16.7266C249.939 9.57291 247.678 4.07988 241.293 4.07988C235.042 4.07988 230.918 8.93419 227.194 16.5989C222.83 25.4885 219.603 38.3103 218.282 52.8041C214.957 89.1723 222.405 102.599 238.221 102.599C254.012 102.599 262.59 88.8338 267.733 74.2175C272.817 59.7686 279.069 50.8568 292.104 50.8568C302.878 50.8568 311.391 58.8375 311.391 73.8679C311.391 90.4944 300.603 102.998 286.972 103.131C274.976 103.264 267.098 93.5537 267.896 78.9224C268.827 62.6949 278.67 50.8568 291.572 50.8568C299.02 50.8568 305.277 54.1678 310.194 57.7734C323.523 67.4976 333.794 61.4882 337.727 51.8734" stroke="white" stroke-width="7.98073" stroke-linecap="round"/>
</svg>
