<svg width="1398" height="295" viewBox="0 0 1398 295" fill="none" xmlns="http://www.w3.org/2000/svg">
<path d="M1383.41 257.836C1383.41 255.974 1384.06 254.387 1385.37 253.075C1386.73 251.721 1388.34 251.044 1390.2 251.044C1392.1 251.044 1393.71 251.721 1395.02 253.075C1396.38 254.387 1397.05 255.974 1397.05 257.836C1397.05 259.74 1396.38 261.349 1395.02 262.66C1393.67 264.015 1392.06 264.692 1390.2 264.692C1388.29 264.692 1386.69 263.993 1385.37 262.597C1384.06 261.243 1383.41 259.656 1383.41 257.836Z" fill="white"/>
<path d="M1372.93 228.193H1336.69C1336.52 230.689 1336.43 232.551 1336.43 233.779C1336.43 242.919 1337.85 249.796 1340.69 254.408C1343.56 258.979 1347.84 261.264 1353.51 261.264C1361.21 261.264 1366.67 257.815 1369.89 250.917H1372.93C1371.58 255.234 1368.89 258.619 1364.87 261.073C1360.85 263.486 1356.47 264.692 1351.73 264.692C1347.33 264.692 1343.16 263.591 1339.23 261.391C1335.33 259.148 1332.14 255.995 1329.64 251.933C1327.14 247.87 1325.9 242.94 1325.9 237.143C1325.9 228.933 1328.31 222.12 1333.13 216.703C1337.96 211.244 1343.99 208.515 1351.22 208.515C1358.04 208.515 1363.31 210.588 1367.03 214.736C1370.75 218.883 1372.72 223.368 1372.93 228.193ZM1361.82 225.654C1361.95 224.68 1362.01 223.813 1362.01 223.051C1362.01 219.327 1360.91 216.449 1358.71 214.418C1356.56 212.345 1353.89 211.308 1350.72 211.308C1343.01 211.308 1338.42 216.09 1336.94 225.654H1361.82Z" fill="white"/>
<path d="M1296.44 221.781C1297.88 218.015 1300.21 214.863 1303.43 212.323C1306.68 209.784 1309.86 208.515 1312.95 208.515C1315.74 208.515 1317.94 209.382 1319.55 211.117C1321.16 212.852 1321.96 214.63 1321.96 216.449C1321.96 217.677 1321.54 218.735 1320.69 219.623C1319.89 220.512 1318.89 220.956 1317.71 220.956C1315.59 220.956 1313.98 219.391 1312.88 216.259C1312.12 214.143 1310.98 213.085 1309.46 213.085C1307.64 213.085 1305.46 214.334 1302.92 216.83C1300.38 219.285 1298.75 221.845 1298.03 224.511C1297.31 227.177 1296.95 230.837 1296.95 235.492V244.76C1296.95 250.304 1297.01 253.795 1297.14 255.234C1297.31 256.672 1297.92 257.773 1298.98 258.534C1300.04 259.296 1301.92 259.677 1304.63 259.677H1306.41V262.597H1278.8V259.677H1280.13C1282.67 259.677 1284.47 259.338 1285.53 258.661C1286.63 257.942 1287.28 256.947 1287.49 255.678C1287.7 254.408 1287.81 250.769 1287.81 244.76V230.097C1287.81 224.511 1287.73 221.02 1287.56 219.623C1287.43 218.184 1286.84 217.084 1285.78 216.322C1284.72 215.518 1282.84 215.116 1280.13 215.116H1278.8V212.26C1282.77 211.794 1287.98 210.546 1294.41 208.515C1295.64 211.858 1296.32 216.28 1296.44 221.781Z" fill="white"/>
<path d="M1271.12 253.075H1273.46C1273.08 260.312 1269.53 263.93 1262.8 263.93C1259.92 263.93 1257.64 263.168 1255.95 261.645C1254.29 260.121 1253.22 257.857 1252.71 254.853C1248.48 257.857 1244.6 260.121 1241.09 261.645C1237.62 263.168 1234.51 263.93 1231.76 263.93C1228.25 263.93 1225.22 262.914 1222.68 260.883C1220.14 258.852 1218.87 256.165 1218.87 252.822C1218.87 248.463 1220.99 244.654 1225.22 241.396C1229.5 238.137 1235.38 234.963 1242.87 231.874L1252.71 227.875V225.336C1252.71 221.739 1252.48 219.137 1252.01 217.529C1251.54 215.92 1250.34 214.482 1248.39 213.212C1246.44 211.943 1243.88 211.308 1240.71 211.308C1234.36 211.308 1230.83 213.424 1230.11 217.655C1229.43 221.972 1227.66 224.13 1224.78 224.13C1222.2 224.13 1220.91 222.903 1220.91 220.448C1220.91 218.036 1222.62 215.455 1226.05 212.704C1229.48 209.911 1234.81 208.515 1242.04 208.515C1247.42 208.515 1251.59 209.361 1254.55 211.054C1257.51 212.747 1259.46 214.672 1260.39 216.83C1261.36 218.988 1261.85 222.289 1261.85 226.733V247.743C1261.85 252.652 1262.1 255.805 1262.61 257.201C1263.12 258.598 1264.22 259.296 1265.91 259.296C1268.7 259.296 1270.44 257.223 1271.12 253.075ZM1252.71 230.859L1245.79 233.652C1234.87 238.095 1229.41 243.681 1229.41 250.409C1229.41 253.075 1230.11 255.234 1231.51 256.884C1232.9 258.492 1234.72 259.296 1236.97 259.296C1238.95 259.296 1241.26 258.64 1243.88 257.328C1246.51 256.016 1249.45 254.049 1252.71 251.425V230.859Z" fill="white"/>
<path d="M1207.96 249.902H1210.75C1207.87 259.762 1200.68 264.692 1189.17 264.692C1181.76 264.692 1175.52 262.174 1170.44 257.138C1165.41 252.102 1162.89 245.437 1162.89 237.143C1162.89 228.637 1165.62 221.739 1171.08 216.449C1176.54 211.16 1182.99 208.515 1190.44 208.515C1194.92 208.515 1199.05 209.509 1202.82 211.498C1206.58 213.445 1208.46 215.836 1208.46 218.671C1208.46 219.729 1208.11 220.724 1207.39 221.655C1206.71 222.586 1205.71 223.051 1204.4 223.051C1201.61 223.051 1199.9 221.422 1199.26 218.163C1198.75 215.709 1197.97 213.995 1196.91 213.022C1195.81 212.048 1193.67 211.562 1190.5 211.562C1184.83 211.562 1180.56 213.53 1177.68 217.465C1174.84 221.401 1173.43 227.325 1173.43 235.238C1173.43 243.406 1174.95 249.796 1178 254.408C1181.09 259.021 1185.74 261.327 1191.96 261.327C1200.34 261.327 1205.67 257.519 1207.96 249.902Z" fill="white"/>
<path d="M1077.89 219.179C1080.43 215.624 1083.27 212.958 1086.4 211.181C1089.57 209.404 1093.04 208.515 1096.81 208.515C1101.08 208.515 1104.62 209.404 1107.41 211.181C1110.25 212.958 1112.09 215.159 1112.93 217.782C1113.78 220.364 1114.2 224.574 1114.2 230.414V244.76C1114.2 250.854 1114.31 254.557 1114.52 255.868C1114.77 257.18 1115.47 258.154 1116.61 258.788C1117.76 259.381 1119.87 259.677 1122.96 259.677V262.597H1096.11V259.677H1097.32C1100.41 259.677 1102.4 259.233 1103.28 258.344C1104.22 257.455 1104.74 256.419 1104.87 255.234C1105.04 254.006 1105.12 250.515 1105.12 244.76V229.145C1105.12 224.828 1104.87 221.633 1104.36 219.56C1103.86 217.486 1102.65 215.772 1100.75 214.418C1098.88 213.064 1096.53 212.387 1093.7 212.387C1090.4 212.387 1087.44 213.36 1084.81 215.307C1082.19 217.211 1079.88 220.089 1077.89 223.94V244.76C1077.89 250.6 1077.98 254.197 1078.15 255.551C1078.36 256.905 1079.01 257.942 1080.12 258.661C1081.22 259.338 1083.23 259.677 1086.15 259.677V262.597H1059.74V259.677H1061.07C1064.12 259.677 1066.09 259.254 1066.98 258.407C1067.91 257.519 1068.44 256.482 1068.56 255.297C1068.73 254.07 1068.82 250.558 1068.82 244.76V192.963C1068.82 187.716 1068.31 184.394 1067.29 182.997C1066.32 181.601 1063.95 180.903 1060.18 180.903V177.983C1066.74 177.983 1072.2 177.094 1076.56 175.317H1077.89V219.179Z" fill="white"/>
<path d="M1054.41 213.53H1038.73V244.95C1038.73 249.775 1038.94 253.033 1039.36 254.726C1039.79 256.376 1040.68 257.709 1042.03 258.725C1043.43 259.74 1044.91 260.248 1046.47 260.248C1049.52 260.248 1052.16 258.513 1054.41 255.043L1056.44 256.249C1055.13 259.042 1053.18 261.158 1050.6 262.597C1048.06 263.993 1045.48 264.692 1042.85 264.692C1039.81 264.692 1037.12 263.803 1034.79 262.026C1032.51 260.206 1031.07 258.09 1030.48 255.678C1029.93 253.266 1029.65 249.034 1029.65 242.983V213.53H1022.1V210.61C1025.57 210.525 1028.68 209.065 1031.43 206.23C1034.18 203.394 1035.94 199.417 1036.7 194.296H1038.73V210.61H1054.41V213.53Z" fill="white"/>
<path d="M994.93 181.982C994.93 180.162 995.564 178.596 996.834 177.284C998.146 175.973 999.712 175.317 1001.53 175.317C1003.35 175.317 1004.9 175.973 1006.16 177.284C1007.43 178.596 1008.07 180.162 1008.07 181.982C1008.07 183.844 1007.43 185.431 1006.16 186.742C1004.9 188.054 1003.35 188.71 1001.53 188.71C999.712 188.71 998.146 188.054 996.834 186.742C995.564 185.431 994.93 183.844 994.93 181.982ZM1007.18 208.515V244.76C1007.18 250.304 1007.27 253.795 1007.43 255.234C1007.6 256.672 1008.22 257.773 1009.28 258.534C1010.33 259.296 1012.22 259.677 1014.92 259.677H1016.26V262.597H988.265V259.677H990.423C993.427 259.677 995.374 259.254 996.263 258.407C997.194 257.519 997.723 256.482 997.85 255.297C998.019 254.07 998.103 250.558 998.103 244.76V229.018C998.103 222.924 997.807 219.2 997.215 217.846C996.665 216.492 995.903 215.645 994.93 215.307C993.999 214.968 992.348 214.799 989.978 214.799H988.265V211.879C995.797 211.117 1001.64 209.996 1005.78 208.515H1007.18Z" fill="white"/>
<path d="M960.525 264.628H957.669L942.181 223.368L926.375 264.628H923.582L907.713 223.368C905.893 218.671 904.539 215.857 903.65 214.926C902.762 213.995 900.984 213.53 898.318 213.53V210.61H922.059V213.53C919.392 213.53 917.573 213.783 916.6 214.291C915.626 214.757 915.14 215.582 915.14 216.767C915.14 217.613 915.965 220.089 917.615 224.194L928.152 252.06L944.275 210.61H946.751L962.366 252.06L973.792 222.543C975.019 219.412 975.633 217.529 975.633 216.894C975.633 214.82 973.496 213.699 969.222 213.53V210.61H986.106V213.53C984.075 213.572 982.467 213.974 981.282 214.736C980.14 215.455 979.082 217.105 978.108 219.687L976.712 223.368L960.525 264.628Z" fill="white"/>
<path d="M827.478 264.247V247.172H829.954C832.832 257.032 837.973 261.962 845.379 261.962C848.595 261.962 850.986 260.989 852.552 259.042C854.16 257.096 854.964 254.959 854.964 252.631C854.964 249.923 854.117 247.701 852.425 245.966C850.69 244.231 847.325 242.136 842.332 239.682C837.085 237.1 833.318 234.561 831.033 232.065C828.748 229.61 827.605 226.585 827.605 222.988C827.605 219.56 828.833 216.301 831.287 213.212C833.741 210.081 837.19 208.515 841.634 208.515C846.162 208.515 849.907 210.356 852.869 214.037C853.504 213.403 854.329 211.858 855.345 209.404H857.693V225.463H855.345C854.498 221.612 852.848 218.311 850.393 215.561C847.981 212.768 845.125 211.371 841.824 211.371C839.285 211.371 837.233 212.154 835.667 213.72C834.101 215.286 833.318 217.105 833.318 219.179C833.318 221.464 834.186 223.432 835.921 225.082C837.614 226.775 840.851 228.7 845.633 230.859C852.827 234.117 857.228 237.291 858.836 240.38C860.444 243.512 861.248 246.516 861.248 249.394C861.248 253.922 859.746 257.603 856.741 260.439C853.779 263.274 850.034 264.692 845.506 264.692C840.724 264.692 836.471 262.724 832.747 258.788C831.604 260.058 830.673 261.877 829.954 264.247H827.478Z" fill="white"/>
<path d="M817.259 228.193H781.014C780.844 230.689 780.76 232.551 780.76 233.779C780.76 242.919 782.177 249.796 785.013 254.408C787.89 258.979 792.164 261.264 797.835 261.264C805.537 261.264 810.996 257.815 814.212 250.917H817.259C815.905 255.234 813.217 258.619 809.197 261.073C805.177 263.486 800.797 264.692 796.058 264.692C791.656 264.692 787.488 263.591 783.553 261.391C779.659 259.148 776.464 255.995 773.968 251.933C771.471 247.87 770.223 242.94 770.223 237.143C770.223 228.933 772.635 222.12 777.459 216.703C782.283 211.244 788.313 208.515 795.55 208.515C802.363 208.515 807.631 210.588 811.355 214.736C815.079 218.883 817.047 223.368 817.259 228.193ZM806.15 225.654C806.277 224.68 806.341 223.813 806.341 223.051C806.341 219.327 805.24 216.449 803.04 214.418C800.882 212.345 798.216 211.308 795.042 211.308C787.34 211.308 782.749 216.09 781.267 225.654H806.15Z" fill="white"/>
<path d="M759.432 249.902H762.225C759.347 259.762 752.153 264.692 740.642 264.692C733.237 264.692 726.995 262.174 721.917 257.138C716.881 252.102 714.363 245.437 714.363 237.143C714.363 228.637 717.093 221.739 722.552 216.449C728.011 211.16 734.464 208.515 741.912 208.515C746.398 208.515 750.524 209.509 754.29 211.498C758.056 213.445 759.939 215.836 759.939 218.671C759.939 219.729 759.58 220.724 758.86 221.655C758.183 222.586 757.189 223.051 755.877 223.051C753.084 223.051 751.37 221.422 750.735 218.163C750.227 215.709 749.445 213.995 748.387 213.022C747.286 212.048 745.149 211.562 741.976 211.562C736.305 211.562 732.031 213.53 729.153 217.465C726.318 221.401 724.9 227.325 724.9 235.238C724.9 243.406 726.424 249.796 729.471 254.408C732.56 259.021 737.215 261.327 743.435 261.327C751.814 261.327 757.146 257.519 759.432 249.902Z" fill="white"/>
<path d="M658.567 208.515H660.281C661.254 211.139 661.805 214.714 661.932 219.242C664.978 215.645 668.173 212.958 671.517 211.181C674.86 209.404 678.351 208.515 681.99 208.515C686.137 208.515 689.523 209.382 692.146 211.117C694.812 212.852 696.526 214.989 697.288 217.529C698.05 220.025 698.431 223.686 698.431 228.51V244.76C698.431 250.769 698.536 254.43 698.748 255.741C698.96 257.053 699.615 258.048 700.716 258.725C701.858 259.36 703.932 259.677 706.936 259.677V262.597H680.34V259.677H681.546C684.593 259.677 686.582 259.233 687.513 258.344C688.444 257.455 688.973 256.419 689.1 255.234C689.226 254.049 689.29 250.558 689.29 244.76V228.002C689.29 223.897 689.078 220.977 688.655 219.242C688.274 217.465 687.195 215.899 685.418 214.545C683.683 213.191 681.461 212.514 678.753 212.514C675.664 212.514 672.701 213.445 669.866 215.307C667.073 217.127 664.428 219.877 661.932 223.559V244.76C661.932 250.769 662.037 254.43 662.249 255.741C662.503 257.053 663.18 258.048 664.28 258.725C665.423 259.36 667.517 259.677 670.564 259.677V262.597H644.285V259.677C647.205 259.677 649.236 259.381 650.379 258.788C651.521 258.196 652.22 257.307 652.474 256.122C652.77 254.895 652.918 251.108 652.918 244.76V229.272C652.918 223.22 652.791 219.56 652.537 218.29C652.325 216.978 651.648 216.005 650.506 215.37C649.406 214.693 647.332 214.355 644.285 214.355V211.435C648.94 210.927 653.701 209.954 658.567 208.515Z" fill="white"/>
<path d="M635.716 228.193H599.471C599.301 230.689 599.217 232.551 599.217 233.779C599.217 242.919 600.634 249.796 603.47 254.408C606.347 258.979 610.621 261.264 616.292 261.264C623.994 261.264 629.453 257.815 632.669 250.917H635.716C634.362 255.234 631.674 258.619 627.654 261.073C623.634 263.486 619.254 264.692 614.515 264.692C610.114 264.692 605.945 263.591 602.01 261.391C598.116 259.148 594.921 255.995 592.425 251.933C589.928 247.87 588.68 242.94 588.68 237.143C588.68 228.933 591.092 222.12 595.916 216.703C600.74 211.244 606.77 208.515 614.007 208.515C620.82 208.515 626.088 210.588 629.812 214.736C633.536 218.883 635.504 223.368 635.716 228.193ZM624.607 225.654C624.734 224.68 624.798 223.813 624.798 223.051C624.798 219.327 623.698 216.449 621.497 214.418C619.339 212.345 616.673 211.308 613.499 211.308C605.797 211.308 601.206 216.09 599.725 225.654H624.607Z" fill="white"/>
<path d="M559.988 181.982C559.988 180.162 560.623 178.596 561.892 177.284C563.204 175.973 564.77 175.317 566.59 175.317C568.409 175.317 569.954 175.973 571.224 177.284C572.493 178.596 573.128 180.162 573.128 181.982C573.128 183.844 572.493 185.431 571.224 186.742C569.954 188.054 568.409 188.71 566.59 188.71C564.77 188.71 563.204 188.054 561.892 186.742C560.623 185.431 559.988 183.844 559.988 181.982ZM572.239 208.515V244.76C572.239 250.304 572.324 253.795 572.493 255.234C572.662 256.672 573.276 257.773 574.334 258.534C575.392 259.296 577.275 259.677 579.983 259.677H581.316V262.597H553.323V259.677H555.481C558.486 259.677 560.433 259.254 561.321 258.407C562.252 257.519 562.781 256.482 562.908 255.297C563.077 254.07 563.162 250.558 563.162 244.76V229.018C563.162 222.924 562.866 219.2 562.273 217.846C561.723 216.492 560.962 215.645 559.988 215.307C559.057 214.968 557.407 214.799 555.037 214.799H553.323V211.879C560.856 211.117 566.696 209.996 570.843 208.515H572.239Z" fill="white"/>
<path d="M525.457 221.781C526.896 218.015 529.223 214.863 532.439 212.323C535.698 209.784 538.872 208.515 541.961 208.515C544.754 208.515 546.954 209.382 548.562 211.117C550.17 212.852 550.975 214.63 550.975 216.449C550.975 217.677 550.551 218.735 549.705 219.623C548.901 220.512 547.906 220.956 546.722 220.956C544.606 220.956 542.998 219.391 541.897 216.259C541.136 214.143 539.993 213.085 538.47 213.085C536.65 213.085 534.471 214.334 531.932 216.83C529.392 219.285 527.763 221.845 527.044 224.511C526.324 227.177 525.965 230.837 525.965 235.492V244.76C525.965 250.304 526.028 253.795 526.155 255.234C526.324 256.672 526.938 257.773 527.996 258.534C529.054 259.296 530.937 259.677 533.645 259.677H535.423V262.597H507.81V259.677H509.143C511.683 259.677 513.481 259.338 514.539 258.661C515.639 257.942 516.295 256.947 516.507 255.678C516.718 254.408 516.824 250.769 516.824 244.76V230.097C516.824 224.511 516.74 221.02 516.57 219.623C516.443 218.184 515.851 217.084 514.793 216.322C513.735 215.518 511.852 215.116 509.143 215.116H507.81V212.26C511.788 211.794 516.993 210.546 523.426 208.515C524.653 211.858 525.33 216.28 525.457 221.781Z" fill="white"/>
<path d="M498.86 228.193H462.615C462.446 230.689 462.361 232.551 462.361 233.779C462.361 242.919 463.779 249.796 466.614 254.408C469.492 258.979 473.766 261.264 479.436 261.264C487.138 261.264 492.597 257.815 495.813 250.917H498.86C497.506 255.234 494.819 258.619 490.799 261.073C486.779 263.486 482.399 264.692 477.659 264.692C473.258 264.692 469.09 263.591 465.154 261.391C461.261 259.148 458.066 255.995 455.569 251.933C453.073 247.87 451.824 242.94 451.824 237.143C451.824 228.933 454.236 222.12 459.06 216.703C463.885 211.244 469.915 208.515 477.151 208.515C483.964 208.515 489.233 210.588 492.957 214.736C496.681 218.883 498.649 223.368 498.86 228.193ZM487.752 225.654C487.879 224.68 487.942 223.813 487.942 223.051C487.942 219.327 486.842 216.449 484.642 214.418C482.483 212.345 479.817 211.308 476.643 211.308C468.942 211.308 464.35 216.09 462.869 225.654H487.752Z" fill="white"/>
<path d="M395.203 208.515H396.917C397.636 210.885 397.996 213.741 397.996 217.084C400.704 214.207 403.603 212.07 406.692 210.673C409.824 209.234 413.125 208.515 416.595 208.515C423.789 208.515 429.777 211.054 434.559 216.132C439.34 221.168 441.731 227.833 441.731 236.127C441.731 244.252 439.319 251.044 434.495 256.503C429.713 261.962 423.408 264.692 415.579 264.692C412.363 264.692 409.274 264.036 406.311 262.724C403.392 261.454 400.62 259.55 397.996 257.011V276.752C397.996 282.761 398.102 286.422 398.313 287.734C398.567 289.045 399.244 290.019 400.345 290.654C401.445 291.331 403.497 291.669 406.502 291.669V294.589H379.334V291.669H381.238C384.243 291.669 386.189 291.225 387.078 290.336C388.009 289.49 388.538 288.453 388.665 287.226C388.834 286.041 388.919 282.55 388.919 276.752V229.526C388.919 223.982 388.834 220.491 388.665 219.052C388.538 217.613 387.946 216.513 386.888 215.751C385.83 214.989 383.947 214.609 381.238 214.609H379.334V211.689C383.523 211.266 388.813 210.208 395.203 208.515ZM397.996 252.822C400.281 255.614 402.693 257.73 405.232 259.169C407.814 260.566 410.522 261.264 413.357 261.264C418.139 261.264 422.308 259.211 425.862 255.107C429.417 251.002 431.194 244.464 431.194 235.492C431.194 227.706 429.48 221.887 426.053 218.036C422.625 214.185 418.541 212.26 413.802 212.26C410.882 212.26 408.11 213.001 405.486 214.482C402.863 215.963 400.366 218.206 397.996 221.21V252.822Z" fill="white"/>
<path d="M351.658 233.08L366.258 251.425C368.797 254.599 370.892 256.757 372.542 257.9C374.235 259 376.245 259.592 378.572 259.677V262.597H352.61V259.677C356.884 259.677 359.021 258.852 359.021 257.201C359.021 256.524 358.048 255.064 356.101 252.822L345.818 240.063L336.297 251.362C333.969 254.07 332.806 255.763 332.806 256.44C332.806 258.556 335.154 259.635 339.851 259.677V262.597H318.46V259.677C320.322 259.677 322.374 259.19 324.617 258.217C326.86 257.244 329.759 254.662 333.313 250.473L344.041 237.778L332.552 223.241C329.293 219.094 326.818 216.449 325.125 215.307C323.432 214.122 321.443 213.53 319.158 213.53V210.61H343.66V213.53C340.148 213.53 338.392 214.312 338.392 215.878C338.392 216.598 339.174 217.888 340.74 219.75L349.881 231.049L358.323 221.147C360.227 218.862 361.18 217.444 361.18 216.894C361.18 214.651 358.852 213.53 354.197 213.53V210.61H374.827V213.53C370.68 213.656 366.385 216.259 361.941 221.337L351.658 233.08Z" fill="white"/>
<path d="M313.128 228.193H276.883C276.713 230.689 276.629 232.551 276.629 233.779C276.629 242.919 278.046 249.796 280.882 254.408C283.759 258.979 288.033 261.264 293.704 261.264C301.406 261.264 306.865 257.815 310.081 250.917H313.128C311.774 255.234 309.087 258.619 305.066 261.073C301.046 263.486 296.666 264.692 291.927 264.692C287.526 264.692 283.357 263.591 279.422 261.391C275.529 259.148 272.334 255.995 269.837 251.933C267.34 247.87 266.092 242.94 266.092 237.143C266.092 228.933 268.504 222.12 273.328 216.703C278.152 211.244 284.183 208.515 291.419 208.515C298.232 208.515 303.501 210.588 307.225 214.736C310.948 218.883 312.916 223.368 313.128 228.193ZM302.019 225.654C302.146 224.68 302.21 223.813 302.21 223.051C302.21 219.327 301.11 216.449 298.909 214.418C296.751 212.345 294.085 211.308 290.911 211.308C283.209 211.308 278.618 216.09 277.137 225.654H302.019Z" fill="white"/>
<path d="M202.869 221.781C204.308 218.015 206.635 214.863 209.851 212.323C213.11 209.784 216.284 208.515 219.373 208.515C222.166 208.515 224.366 209.382 225.975 211.117C227.583 212.852 228.387 214.63 228.387 216.449C228.387 217.677 227.963 218.735 227.117 219.623C226.313 220.512 225.319 220.956 224.134 220.956C222.018 220.956 220.41 219.391 219.309 216.259C218.548 214.143 217.405 213.085 215.882 213.085C214.062 213.085 211.883 214.334 209.344 216.83C206.805 219.285 205.175 221.845 204.456 224.511C203.737 227.177 203.377 230.837 203.377 235.492V244.76C203.377 250.304 203.44 253.795 203.567 255.234C203.737 256.672 204.35 257.773 205.408 258.534C206.466 259.296 208.349 259.677 211.058 259.677H212.835V262.597H185.223V259.677H186.556C189.095 259.677 190.893 259.338 191.951 258.661C193.051 257.942 193.707 256.947 193.919 255.678C194.13 254.408 194.236 250.769 194.236 244.76V230.097C194.236 224.511 194.152 221.02 193.982 219.623C193.855 218.184 193.263 217.084 192.205 216.322C191.147 215.518 189.264 215.116 186.556 215.116H185.223V212.26C189.2 211.794 194.406 210.546 200.838 208.515C202.065 211.858 202.742 216.28 202.869 221.781Z" fill="white"/>
<path d="M176.272 228.193H140.027C139.858 230.689 139.773 232.551 139.773 233.779C139.773 242.919 141.191 249.796 144.026 254.408C146.904 258.979 151.178 261.264 156.849 261.264C164.55 261.264 170.009 257.815 173.226 250.917H176.272C174.918 255.234 172.231 258.619 168.211 261.073C164.191 263.486 159.811 264.692 155.071 264.692C150.67 264.692 146.502 263.591 142.566 261.391C138.673 259.148 135.478 255.995 132.981 251.933C130.485 247.87 129.236 242.94 129.236 237.143C129.236 228.933 131.648 222.12 136.473 216.703C141.297 211.244 147.327 208.515 154.563 208.515C161.377 208.515 166.645 210.588 170.369 214.736C174.093 218.883 176.061 223.368 176.272 228.193ZM165.164 225.654C165.291 224.68 165.354 223.813 165.354 223.051C165.354 219.327 164.254 216.449 162.054 214.418C159.895 212.345 157.229 211.308 154.056 211.308C146.354 211.308 141.762 216.09 140.281 225.654H165.164Z" fill="white"/>
<path d="M86.1991 264.247V247.172H88.6747C91.5523 257.032 96.6939 261.962 104.1 261.962C107.316 261.962 109.707 260.989 111.272 259.042C112.88 257.096 113.684 254.959 113.684 252.631C113.684 249.923 112.838 247.701 111.145 245.966C109.41 244.231 106.046 242.136 101.053 239.682C95.8053 237.1 92.039 234.561 89.7538 232.065C87.4687 229.61 86.3261 226.585 86.3261 222.988C86.3261 219.56 87.5533 216.301 90.0077 213.212C92.4622 210.081 95.9111 208.515 100.354 208.515C104.882 208.515 108.628 210.356 111.59 214.037C112.225 213.403 113.05 211.858 114.065 209.404H116.414V225.463H114.065C113.219 221.612 111.569 218.311 109.114 215.561C106.702 212.768 103.846 211.371 100.545 211.371C98.0058 211.371 95.9534 212.154 94.3876 213.72C92.8219 215.286 92.039 217.105 92.039 219.179C92.039 221.464 92.9065 223.432 94.6415 225.082C96.3342 226.775 99.5715 228.7 104.353 230.859C111.547 234.117 115.948 237.291 117.557 240.38C119.165 243.512 119.969 246.516 119.969 249.394C119.969 253.922 118.466 257.603 115.462 260.439C112.5 263.274 108.754 264.692 104.226 264.692C99.4446 264.692 95.1917 262.724 91.4677 258.788C90.3251 260.058 89.3941 261.877 88.6747 264.247H86.1991Z" fill="white"/>
<path d="M69.6318 210.61V244.697C69.6318 250.367 69.7164 253.922 69.8857 255.361C70.0549 256.799 70.6685 257.878 71.7265 258.598C72.8267 259.317 74.7734 259.677 77.5663 259.677V262.597C71.134 262.682 66.4368 263.359 63.4745 264.628H62.7128C61.3586 262.301 60.6392 258.28 60.5546 252.568C57.9732 256.588 55.011 259.613 51.6679 261.645C48.3671 263.676 44.7066 264.692 40.6864 264.692C37.2164 264.692 34.1484 263.909 31.4823 262.343C28.8163 260.735 26.9755 258.788 25.9599 256.503C24.9866 254.218 24.4999 250.769 24.4999 246.156V228.447C24.4999 222.437 24.3941 218.777 24.1825 217.465C23.9709 216.111 23.2939 215.116 22.1513 214.482C21.051 213.847 18.9986 213.53 15.9941 213.53V210.61H33.6405V246.664C33.6405 250.219 33.8521 252.8 34.2753 254.408C34.6985 256.016 35.7776 257.434 37.5126 258.661C39.2476 259.846 41.2577 260.439 43.5429 260.439C46.8014 260.439 49.9117 259.381 52.8739 257.265C55.8362 255.107 57.8463 252.843 58.9042 250.473C60.0045 248.061 60.5546 244.633 60.5546 240.19V228.447C60.5546 222.776 60.4911 219.327 60.3642 218.1C60.2372 216.873 59.6871 215.815 58.7138 214.926C57.7828 213.995 55.815 213.53 52.8105 213.53H51.4775V210.61H69.6318Z" fill="white"/>
<path d="M1201.67 68.1926H1165.43C1165.26 70.6893 1165.17 72.5513 1165.17 73.7785C1165.17 82.9192 1166.59 89.7958 1169.43 94.4084C1172.3 98.9787 1176.58 101.264 1182.25 101.264C1189.95 101.264 1195.41 97.815 1198.63 90.9172H1201.67C1200.32 95.2336 1197.63 98.619 1193.61 101.073C1189.59 103.486 1185.21 104.692 1180.47 104.692C1176.07 104.692 1171.9 103.591 1167.97 101.391C1164.07 99.148 1160.88 95.9953 1158.38 91.9328C1155.89 87.8703 1154.64 82.9403 1154.64 77.1428C1154.64 68.9332 1157.05 62.12 1161.87 56.7033C1166.7 51.2444 1172.73 48.5149 1179.96 48.5149C1186.78 48.5149 1192.05 50.5884 1195.77 54.7356C1199.49 58.8827 1201.46 63.3684 1201.67 68.1926ZM1190.56 65.6535C1190.69 64.6802 1190.75 63.8127 1190.75 63.051C1190.75 59.327 1189.65 56.4494 1187.45 54.4182C1185.3 52.3446 1182.63 51.3078 1179.46 51.3078C1171.75 51.3078 1167.16 56.0897 1165.68 65.6535H1190.56Z" fill="white"/>
<path d="M1138.45 50.6096V84.6965C1138.45 90.3671 1138.53 93.9218 1138.7 95.3606C1138.87 96.7994 1139.49 97.8785 1140.54 98.5979C1141.65 99.3173 1143.59 99.677 1146.38 99.677V102.597C1139.95 102.682 1135.26 103.359 1132.29 104.628H1131.53C1130.18 102.301 1129.46 98.2805 1129.37 92.5676C1126.79 96.5878 1123.83 99.6135 1120.49 101.645C1117.19 103.676 1113.52 104.692 1109.5 104.692C1106.03 104.692 1102.97 103.909 1100.3 102.343C1097.63 100.735 1095.79 98.7883 1094.78 96.5031C1093.8 94.218 1093.32 90.7691 1093.32 86.1565V68.4465C1093.32 62.4374 1093.21 58.7769 1093 57.4651C1092.79 56.1109 1092.11 55.1164 1090.97 54.4817C1089.87 53.8469 1087.82 53.5295 1084.81 53.5295V50.6096H1102.46V86.6643C1102.46 90.219 1102.67 92.8003 1103.09 94.4084C1103.52 96.0165 1104.6 97.4341 1106.33 98.6613C1108.07 99.8462 1110.08 100.439 1112.36 100.439C1115.62 100.439 1118.73 99.3807 1121.69 97.2649C1124.65 95.1067 1126.66 92.8427 1127.72 90.4729C1128.82 88.0608 1129.37 84.633 1129.37 80.1897V68.4465C1129.37 62.7759 1129.31 59.327 1129.18 58.0998C1129.06 56.8726 1128.51 55.8147 1127.53 54.926C1126.6 53.995 1124.63 53.5295 1121.63 53.5295H1120.3V50.6096H1138.45Z" fill="white"/>
<path d="M1069.7 48.5149H1071.8V116.752C1071.8 122.296 1071.86 125.787 1071.99 127.226C1072.16 128.665 1072.77 129.765 1073.83 130.527C1074.89 131.288 1076.77 131.669 1079.48 131.669H1080.88V134.589H1052.88V131.669H1054.98C1057.52 131.669 1059.32 131.331 1060.37 130.654C1061.47 129.976 1062.13 128.982 1062.34 127.67C1062.55 126.401 1062.66 122.761 1062.66 116.752V98.1535C1059.61 100.312 1056.52 101.941 1053.39 103.041C1050.3 104.141 1047.15 104.692 1043.93 104.692C1036.7 104.692 1030.67 102.216 1025.84 97.2649C1021.06 92.3137 1018.67 85.7121 1018.67 77.4602C1018.67 68.785 1021.34 61.8026 1026.67 56.5129C1032.04 51.1809 1038.09 48.5149 1044.82 48.5149C1047.66 48.5149 1050.56 49.0862 1053.52 50.2287C1056.52 51.329 1059.57 53.0217 1062.66 55.3069C1064.99 53.7834 1067.34 51.5194 1069.7 48.5149ZM1062.66 59.2424C1060.16 56.9572 1057.58 55.2434 1054.91 54.1008C1052.29 52.9582 1049.6 52.3869 1046.85 52.3869C1042.03 52.3869 1037.88 54.2701 1034.41 58.0363C1030.94 61.8026 1029.21 68.4677 1029.21 78.0315C1029.21 85.7756 1030.69 91.6154 1033.65 95.551C1036.65 99.4442 1040.8 101.391 1046.09 101.391C1048.93 101.391 1051.72 100.883 1054.47 99.8674C1057.22 98.8095 1059.95 97.2437 1062.66 95.1701V59.2424Z" fill="white"/>
<path d="M990.359 21.9817C990.359 20.162 990.994 18.5962 992.264 17.2844C993.575 15.9725 995.141 15.3166 996.961 15.3166C998.781 15.3166 1000.33 15.9725 1001.59 17.2844C1002.86 18.5962 1003.5 20.162 1003.5 21.9817C1003.5 23.8436 1002.86 25.4306 1001.59 26.7424C1000.33 28.0543 998.781 28.7102 996.961 28.7102C995.141 28.7102 993.575 28.0543 992.264 26.7424C990.994 25.4306 990.359 23.8436 990.359 21.9817ZM1002.61 48.5149V84.76C1002.61 90.3036 1002.69 93.7948 1002.86 95.2336C1003.03 96.6724 1003.65 97.7727 1004.7 98.5344C1005.76 99.2961 1007.65 99.677 1010.35 99.677H1011.69V102.597H983.694V99.677H985.852C988.857 99.677 990.804 99.2538 991.692 98.4074C992.623 97.5188 993.152 96.482 993.279 95.2971C993.448 94.0699 993.533 90.5575 993.533 84.76V69.0178C993.533 62.924 993.237 59.2001 992.644 57.8459C992.094 56.4918 991.333 55.6454 990.359 55.3069C989.428 54.9683 987.778 54.799 985.408 54.799H983.694V51.8791C991.227 51.1174 997.067 49.996 1001.21 48.5149H1002.61Z" fill="white"/>
<path d="M930.501 48.5149H932.215C933.188 51.1386 933.738 54.7144 933.865 59.2424C936.912 55.6454 940.107 52.9582 943.45 51.1809C946.793 49.4035 950.284 48.5149 953.924 48.5149C958.071 48.5149 961.456 49.3824 964.08 51.1174C966.746 52.8524 968.46 54.9895 969.222 57.5285C969.983 60.0253 970.364 63.6858 970.364 68.51V84.76C970.364 90.7691 970.47 94.4296 970.682 95.7414C970.893 97.0533 971.549 98.0477 972.649 98.7248C973.792 99.3596 975.865 99.677 978.87 99.677V102.597H952.273V99.677H953.479C956.526 99.677 958.515 99.2326 959.446 98.344C960.377 97.4553 960.906 96.4185 961.033 95.2336C961.16 94.0487 961.224 90.5575 961.224 84.76V68.0022C961.224 63.8973 961.012 60.9774 960.589 59.2424C960.208 57.4651 959.129 55.8993 957.351 54.5451C955.616 53.191 953.395 52.5139 950.686 52.5139C947.597 52.5139 944.635 53.4449 941.8 55.3069C939.007 57.1265 936.362 59.8772 933.865 63.5588V84.76C933.865 90.7691 933.971 94.4296 934.183 95.7414C934.436 97.0533 935.114 98.0477 936.214 98.7248C937.356 99.3596 939.451 99.677 942.498 99.677V102.597H916.219V99.677C919.139 99.677 921.17 99.3807 922.312 98.7883C923.455 98.1959 924.153 97.3072 924.407 96.1223C924.703 94.8951 924.851 91.1076 924.851 84.76V69.2717C924.851 63.2203 924.725 59.5598 924.471 58.2903C924.259 56.9784 923.582 56.0051 922.439 55.3703C921.339 54.6932 919.266 54.3547 916.219 54.3547V51.4348C920.874 50.927 925.634 49.9537 930.501 48.5149Z" fill="white"/>
<path d="M901.302 50.6096V84.6965C901.302 90.3671 901.386 93.9218 901.556 95.3606C901.725 96.7994 902.338 97.8785 903.396 98.5979C904.497 99.3173 906.443 99.677 909.236 99.677V102.597C902.804 102.682 898.107 103.359 895.144 104.628H894.383C893.029 102.301 892.309 98.2805 892.225 92.5676C889.643 96.5878 886.681 99.6135 883.338 101.645C880.037 103.676 876.377 104.692 872.356 104.692C868.886 104.692 865.818 103.909 863.152 102.343C860.486 100.735 858.645 98.7883 857.63 96.5031C856.656 94.218 856.17 90.7691 856.17 86.1565V68.4465C856.17 62.4374 856.064 58.7769 855.852 57.4651C855.641 56.1109 854.964 55.1164 853.821 54.4817C852.721 53.8469 850.669 53.5295 847.664 53.5295V50.6096H865.31V86.6643C865.31 90.219 865.522 92.8003 865.945 94.4084C866.368 96.0165 867.448 97.4341 869.183 98.6613C870.918 99.8462 872.928 100.439 875.213 100.439C878.471 100.439 881.582 99.3807 884.544 97.2649C887.506 95.1067 889.516 92.8427 890.574 90.4729C891.674 88.0608 892.225 84.633 892.225 80.1897V68.4465C892.225 62.7759 892.161 59.327 892.034 58.0998C891.907 56.8726 891.357 55.8147 890.384 54.926C889.453 53.995 887.485 53.5295 884.48 53.5295H883.147V50.6096H901.302Z" fill="white"/>
<path d="M761.145 48.5149H762.859C763.833 51.1386 764.383 54.7144 764.51 59.2424C767.557 55.6454 770.752 52.9582 774.095 51.1809C777.438 49.4035 780.929 48.5149 784.568 48.5149C788.715 48.5149 792.101 49.3824 794.725 51.1174C797.391 52.8524 799.104 54.9895 799.866 57.5285C800.628 60.0253 801.009 63.6858 801.009 68.51V84.76C801.009 90.7691 801.115 94.4296 801.326 95.7414C801.538 97.0533 802.194 98.0477 803.294 98.7248C804.436 99.3596 806.51 99.677 809.515 99.677V102.597H782.918V99.677H784.124C787.171 99.677 789.16 99.2326 790.091 98.344C791.022 97.4553 791.551 96.4185 791.678 95.2336C791.805 94.0487 791.868 90.5575 791.868 84.76V68.0022C791.868 63.8973 791.656 60.9774 791.233 59.2424C790.852 57.4651 789.773 55.8993 787.996 54.5451C786.261 53.191 784.039 52.5139 781.331 52.5139C778.242 52.5139 775.28 53.4449 772.444 55.3069C769.651 57.1265 767.006 59.8772 764.51 63.5588V84.76C764.51 90.7691 764.615 94.4296 764.827 95.7414C765.081 97.0533 765.758 98.0477 766.858 98.7248C768.001 99.3596 770.096 99.677 773.142 99.677V102.597H746.863V99.677C749.783 99.677 751.814 99.3807 752.957 98.7883C754.1 98.1959 754.798 97.3072 755.052 96.1223C755.348 94.8951 755.496 91.1076 755.496 84.76V69.2717C755.496 63.2203 755.369 59.5598 755.115 58.2903C754.904 56.9784 754.226 56.0051 753.084 55.3703C751.984 54.6932 749.91 54.3547 746.863 54.3547V51.4348C751.518 50.927 756.279 49.9537 761.145 48.5149Z" fill="white"/>
<path d="M726.868 55.1799C730.465 51.1174 734.104 49.0862 737.786 49.0862C739.817 49.0862 741.383 49.6363 742.483 50.7365C743.626 51.8368 744.197 53.0429 744.197 54.3547C744.197 57.1477 742.928 58.5442 740.389 58.5442C738.992 58.5442 737.786 57.6766 736.77 55.9416C735.839 54.3335 734.866 53.5295 733.851 53.5295C732.242 53.5295 730.465 54.6298 728.518 56.8303C730.719 60.3003 731.819 63.982 731.819 67.8752C731.819 72.9533 730 77.439 726.36 81.3322C722.721 85.2678 716.585 87.3837 707.952 87.6799C698.981 87.9761 694.495 89.7958 694.495 93.1389C694.495 94.7046 695.511 95.8049 697.542 96.4397C699.531 97.1168 703.72 97.6246 710.11 97.9631C717.093 98.3016 722.467 98.9576 726.233 99.9309C730 100.862 733.004 102.766 735.247 105.644C737.49 108.521 738.611 111.949 738.611 115.927C738.611 121.513 736.326 126.02 731.756 129.447C727.185 132.875 720.605 134.589 712.015 134.589C704.143 134.589 697.838 133.066 693.099 130.019C688.359 126.972 685.989 123.121 685.989 118.466C685.989 115.885 686.666 113.769 688.02 112.118C689.375 110.468 691.3 109.643 693.797 109.643C694.474 109.643 695.087 109.749 695.638 109.96C693.014 112.838 691.702 115.885 691.702 119.101C691.702 122.825 693.437 125.893 696.907 128.305C700.42 130.759 705.646 131.987 712.586 131.987C718.764 131.987 723.567 130.738 726.995 128.241C730.465 125.787 732.2 122.634 732.2 118.783C732.2 114.552 730.656 111.568 727.566 109.833C724.477 108.141 718.976 107.125 711.062 106.786C701.964 106.405 696.061 105.284 693.352 103.422C690.644 101.602 689.29 99.2538 689.29 96.3762C689.29 90.8326 693.162 87.3414 700.906 85.9026C696.886 83.5328 693.86 80.8244 691.829 77.7776C689.798 74.7307 688.782 71.3241 688.782 67.5578C688.782 62.2681 690.856 57.7824 695.003 54.1008C699.192 50.3768 704.143 48.5149 709.856 48.5149C716.923 48.5149 722.594 50.7365 726.868 55.1799ZM698.304 69.0178C698.304 74.4768 699.425 78.4758 701.668 81.0149C703.911 83.5539 706.767 84.8235 710.237 84.8235C713.453 84.8235 716.204 83.5751 718.489 81.0783C720.817 78.5393 721.98 74.1594 721.98 67.9387C721.98 61.6757 720.753 57.3593 718.299 54.9895C715.844 52.6197 713.073 51.4348 709.983 51.4348C706.09 51.4348 703.17 52.8947 701.224 55.8147C699.277 58.7346 698.304 63.1356 698.304 69.0178Z" fill="white"/>
<path d="M658.504 21.9817C658.504 20.162 659.139 18.5962 660.408 17.2844C661.72 15.9725 663.286 15.3166 665.105 15.3166C666.925 15.3166 668.47 15.9725 669.739 17.2844C671.009 18.5962 671.643 20.162 671.643 21.9817C671.643 23.8436 671.009 25.4306 669.739 26.7424C668.47 28.0543 666.925 28.7102 665.105 28.7102C663.286 28.7102 661.72 28.0543 660.408 26.7424C659.139 25.4306 658.504 23.8436 658.504 21.9817ZM670.755 48.5149V84.76C670.755 90.3036 670.839 93.7948 671.009 95.2336C671.178 96.6724 671.792 97.7727 672.85 98.5344C673.907 99.2961 675.791 99.677 678.499 99.677H679.832V102.597H651.839V99.677H653.997C657.002 99.677 658.948 99.2538 659.837 98.4074C660.768 97.5188 661.297 96.482 661.424 95.2971C661.593 94.0699 661.678 90.5575 661.678 84.76V69.0178C661.678 62.924 661.381 59.2001 660.789 57.8459C660.239 56.4918 659.477 55.6454 658.504 55.3069C657.573 54.9683 655.922 54.799 653.553 54.799H651.839V51.8791C659.371 51.1174 665.211 49.996 669.358 48.5149H670.755Z" fill="white"/>
<path d="M611.658 104.247V87.1721H614.134C617.011 97.0321 622.153 101.962 629.559 101.962C632.775 101.962 635.166 100.989 636.731 99.0422C638.339 97.0956 639.143 94.9585 639.143 92.6311C639.143 89.9227 638.297 87.7011 636.604 85.966C634.869 84.231 631.505 82.1363 626.512 79.6819C621.264 77.1005 617.498 74.5614 615.213 72.0647C612.928 69.6102 611.785 66.5845 611.785 62.9875C611.785 59.5598 613.012 56.3013 615.467 53.2121C617.921 50.0806 621.37 48.5149 625.813 48.5149C630.341 48.5149 634.087 50.3557 637.049 54.0373C637.684 53.4026 638.509 51.858 639.524 49.4035H641.873V65.4631H639.524C638.678 61.6122 637.028 58.3114 634.573 55.5608C632.161 52.7678 629.305 51.3713 626.004 51.3713C623.465 51.3713 621.412 52.1542 619.847 53.7199C618.281 55.2857 617.498 57.1054 617.498 59.1789C617.498 61.4641 618.365 63.4319 620.101 65.0822C621.793 66.775 625.031 68.7004 629.812 70.8586C637.006 74.1171 641.407 77.2909 643.016 80.3801C644.624 83.5116 645.428 86.5162 645.428 89.3938C645.428 93.9218 643.925 97.6034 640.921 100.439C637.959 103.274 634.213 104.692 629.685 104.692C624.904 104.692 620.651 102.724 616.927 98.7883C615.784 100.058 614.853 101.877 614.134 104.247H611.658Z" fill="white"/>
<path d="M601.438 68.1926H565.193C565.024 70.6893 564.939 72.5513 564.939 73.7785C564.939 82.9192 566.357 89.7958 569.192 94.4084C572.07 98.9787 576.344 101.264 582.015 101.264C589.716 101.264 595.175 97.815 598.392 90.9172H601.438C600.084 95.2336 597.397 98.619 593.377 101.073C589.357 103.486 584.977 104.692 580.237 104.692C575.836 104.692 571.668 103.591 567.732 101.391C563.839 99.148 560.644 95.9953 558.147 91.9328C555.651 87.8703 554.402 82.9403 554.402 77.1428C554.402 68.9332 556.814 62.12 561.639 56.7033C566.463 51.2444 572.493 48.5149 579.729 48.5149C586.543 48.5149 591.811 50.5884 595.535 54.7356C599.259 58.8827 601.227 63.3684 601.438 68.1926ZM590.33 65.6535C590.457 64.6802 590.52 63.8127 590.52 63.051C590.52 59.327 589.42 56.4494 587.22 54.4182C585.061 52.3446 582.395 51.3078 579.222 51.3078C571.52 51.3078 566.928 56.0897 565.447 65.6535H590.33Z" fill="white"/>
<path d="M530.535 56.132V35.8195C530.535 30.2759 530.45 26.7847 530.281 25.3459C530.154 23.9071 529.562 22.8069 528.504 22.0451C527.446 21.2834 525.563 20.9026 522.854 20.9026H521.521V17.9826C526.642 17.8557 532.249 16.967 538.343 15.3166H539.676V85.2043C539.676 91.2557 539.781 94.9374 539.993 96.2492C540.205 97.5611 540.861 98.5344 541.961 99.1692C543.103 99.8039 545.198 100.121 548.245 100.121V103.041C542.109 103.168 536.65 103.718 531.868 104.692C531.36 102.703 531.106 99.5712 531.106 95.2971C527.975 98.4286 524.738 100.777 521.394 102.343C518.094 103.909 514.666 104.692 511.111 104.692C504.383 104.692 498.564 101.983 493.655 96.5666C488.789 91.15 486.355 84.5907 486.355 76.8889C486.355 68.4253 488.852 61.591 493.846 56.386C498.839 51.1386 504.785 48.5149 511.683 48.5149C515.195 48.5149 518.517 49.1496 521.648 50.4192C524.78 51.6887 527.742 53.593 530.535 56.132ZM530.535 59.8137C527.742 57.4016 524.928 55.6031 522.093 54.4182C519.3 53.191 516.486 52.5774 513.65 52.5774C508.868 52.5774 504.869 54.4182 501.653 58.0998C498.479 61.7815 496.892 67.7906 496.892 76.1272C496.892 84.5907 498.522 90.8326 501.78 94.8528C505.081 98.8729 509.143 100.883 513.968 100.883C517.184 100.883 520.167 100.121 522.918 98.5979C525.669 97.0744 528.208 94.7893 530.535 91.7424V59.8137Z" fill="white"/>
<path d="M406.502 19.4426V16.5227H445.857V19.4426H444.017C439.785 19.4426 437.013 19.8023 435.701 20.5217C434.389 21.1988 433.501 22.4895 433.035 24.3938C432.612 26.2981 432.4 30.8261 432.4 37.9778V80.1897C432.4 86.9605 432.548 91.4039 432.845 93.5197C433.183 95.5933 434.03 97.1379 435.384 98.1535C436.78 99.1692 439.425 99.677 443.318 99.677H445.857V102.597H406.502V99.677H409.041C412.723 99.677 415.262 99.2115 416.658 98.2805C418.097 97.3495 419.007 95.9107 419.388 93.9641C419.768 91.9751 419.959 87.3837 419.959 80.1897V37.9778C419.959 31.1223 419.768 26.7001 419.388 24.7112C419.007 22.7222 418.16 21.3469 416.849 20.5852C415.537 19.8235 412.701 19.4426 408.343 19.4426H406.502Z" fill="white"/>
<path d="M345.184 127.353V124.179C349.669 122.867 353.16 120.561 355.657 117.26C358.154 114.002 359.402 110.722 359.402 107.421C359.402 104.628 358.514 103.232 356.736 103.232C356.398 103.232 355.848 103.337 355.086 103.549C354.451 103.761 353.859 103.866 353.309 103.866C351.404 103.866 349.817 103.316 348.548 102.216C347.278 101.073 346.643 99.5923 346.643 97.7727C346.643 95.8261 347.257 94.218 348.484 92.9485C349.712 91.6789 351.298 91.0442 353.245 91.0442C356.25 91.0442 358.683 92.4406 360.545 95.2336C362.449 97.9843 363.401 101.222 363.401 104.946C363.401 110.32 361.751 115.038 358.45 119.101C355.192 123.163 350.769 125.914 345.184 127.353Z" fill="white"/>
<path d="M3.99109 89.3072C18.7575 81.0985 32.2129 70.5431 47.4784 52.576C57.8691 40.311 63.4556 26.3065 63.7217 16.6469C63.8547 9.46452 60.3525 4.01581 53.8788 4.01581C46.6961 4.01581 42.1737 9.46452 39.3804 21.9718C36.3211 35.7174 34.0599 51.49 28.3404 102.067" stroke="white" stroke-width="7.98073" stroke-linecap="round"/>
<path d="M28.901 97.1236C31.8292 71.3829 42.9718 52.5859 57.2041 52.5859C65.7169 52.5859 71.1271 59.3696 69.5909 69.0794C68.7261 74.799 67.7236 80.6515 66.5557 87.4351C65.1943 95.9479 69.0854 102.599 80.8752 102.599C98.0687 102.599 116.826 93.0438 126.425 78.2448C129.696 73.2028 131.026 68.6804 131.159 64.291C131.292 56.3103 126.769 50.3247 118.789 50.3247C108.68 50.3247 100.965 61.7638 100.965 76.3951C100.965 92.0906 109.478 103.131 127.557 103.131C152.138 103.131 179.366 73.6221 191.876 40.6915C195.409 31.3936 196.734 22.7599 196.734 16.7266C196.734 9.57291 194.473 4.07988 188.088 4.07988C181.837 4.07988 177.713 8.93419 173.989 16.5989C169.625 25.4885 166.397 38.3103 165.077 52.8041C161.752 89.1723 169.2 102.599 186.911 102.599C208.387 102.599 232.263 72.6802 244.455 40.5897C247.949 31.3936 249.274 22.7599 249.274 16.7266C249.274 9.57291 247.013 4.07988 240.628 4.07988C234.376 4.07988 230.253 8.93419 226.529 16.5989C222.165 25.4885 218.937 38.3103 217.617 52.8041C214.292 89.1723 221.74 102.599 237.556 102.599C253.347 102.599 261.925 88.8338 267.068 74.2175C272.152 59.7686 278.403 50.8568 291.439 50.8568C302.213 50.8568 310.725 58.8375 310.725 73.8679C310.725 90.4944 299.938 102.998 286.307 103.131C274.311 103.264 266.432 93.5537 267.23 78.9224C268.161 62.6949 278.004 50.8568 290.907 50.8568C298.355 50.8568 304.612 54.1678 309.528 57.7734C322.858 67.4976 333.128 61.4882 337.062 51.8734" stroke="white" stroke-width="7.98073" stroke-linecap="round"/>
</svg>
