<svg width="828" height="589" viewBox="0 0 828 589" fill="none" xmlns="http://www.w3.org/2000/svg">
<path d="M3.99121 89.3072C18.7576 81.0985 32.213 70.5431 47.4785 52.576C57.8692 40.311 63.4557 26.3065 63.7218 16.6469C63.8548 9.46452 60.3526 4.01581 53.8789 4.01581C46.6962 4.01581 42.1738 9.46452 39.3805 21.9718C36.3213 35.7174 34.0601 51.49 28.3405 102.067" stroke="white" stroke-width="7.98073" stroke-linecap="round"/>
<path d="M28.9009 97.1236C31.8291 71.3829 42.9716 52.5859 57.2039 52.5859C65.7167 52.5859 71.127 59.3696 69.5908 69.0794C68.726 74.799 67.7235 80.6515 66.5555 87.4351C65.1942 95.9479 69.0853 102.599 80.875 102.599C98.0686 102.599 116.826 93.0438 126.425 78.2448C129.696 73.2028 131.026 68.6804 131.159 64.291C131.292 56.3103 126.769 50.3247 118.789 50.3247C108.68 50.3247 100.965 61.7638 100.965 76.3951C100.965 92.0906 109.478 103.131 127.557 103.131C152.138 103.131 179.366 73.6221 191.876 40.6915C195.409 31.3936 196.734 22.7599 196.734 16.7266C196.734 9.57291 194.473 4.07988 188.088 4.07988C181.836 4.07988 177.713 8.93419 173.989 16.5989C169.625 25.4885 166.397 38.3103 165.077 52.8041C161.752 89.1723 169.2 102.599 186.911 102.599C208.387 102.599 232.263 72.6802 244.455 40.5897C247.948 31.3936 249.274 22.7599 249.274 16.7266C249.274 9.57291 247.012 4.07988 240.628 4.07988C234.376 4.07988 230.253 8.93419 226.529 16.5989C222.165 25.4885 218.937 38.3103 217.617 52.8041C214.291 89.1723 221.74 102.599 237.556 102.599C253.347 102.599 261.925 88.8338 267.068 74.2175C272.152 59.7686 278.403 50.8568 291.439 50.8568C302.212 50.8568 310.725 58.8375 310.725 73.8679C310.725 90.4944 299.938 102.998 286.307 103.131C274.311 103.264 266.432 93.5537 267.23 78.9224C268.161 62.6949 278.004 50.8568 290.906 50.8568C298.355 50.8568 304.611 54.1678 309.528 57.7734C322.858 67.4976 333.128 61.4882 337.062 51.8734" stroke="white" stroke-width="7.98073" stroke-linecap="round"/>
<path d="M527.745 581.47C527.745 579.465 528.451 577.756 529.864 576.343C531.323 574.885 533.054 574.155 535.06 574.155C537.11 574.155 538.842 574.885 540.255 576.343C541.713 577.756 542.442 579.465 542.442 581.47C542.442 583.521 541.713 585.252 540.255 586.665C538.797 588.124 537.065 588.853 535.06 588.853C533.009 588.853 531.277 588.101 529.864 586.597C528.451 585.138 527.745 583.43 527.745 581.47Z" fill="white"/>
<path d="M516.466 549.546H477.433C477.25 552.235 477.159 554.24 477.159 555.562C477.159 565.405 478.686 572.811 481.739 577.778C484.838 582.7 489.441 585.161 495.548 585.161C503.842 585.161 509.721 581.447 513.185 574.019H516.466C515.007 578.667 512.114 582.313 507.784 584.956C503.455 587.554 498.738 588.853 493.634 588.853C488.894 588.853 484.405 587.668 480.167 585.298C475.974 582.883 472.534 579.487 469.845 575.112C467.156 570.737 465.812 565.428 465.812 559.185C465.812 550.344 468.409 543.006 473.604 537.173C478.8 531.294 485.294 528.355 493.087 528.355C500.424 528.355 506.098 530.588 510.108 535.054C514.119 539.52 516.238 544.351 516.466 549.546ZM504.503 546.812C504.64 545.763 504.708 544.829 504.708 544.009C504.708 539.999 503.523 536.9 501.153 534.712C498.829 532.479 495.958 531.362 492.54 531.362C484.246 531.362 479.301 536.512 477.706 546.812H504.503Z" fill="white"/>
<path d="M434.093 542.642C435.642 538.586 438.149 535.191 441.612 532.456C445.121 529.722 448.539 528.355 451.866 528.355C454.874 528.355 457.244 529.289 458.976 531.157C460.707 533.026 461.573 534.94 461.573 536.9C461.573 538.221 461.118 539.361 460.206 540.318C459.34 541.275 458.269 541.753 456.993 541.753C454.715 541.753 452.983 540.067 451.798 536.694C450.978 534.416 449.747 533.277 448.106 533.277C446.147 533.277 443.8 534.621 441.065 537.31C438.331 539.953 436.576 542.71 435.802 545.581C435.027 548.452 434.64 552.394 434.64 557.407V567.388C434.64 573.358 434.708 577.118 434.845 578.667C435.027 580.217 435.688 581.402 436.827 582.222C437.966 583.042 439.994 583.452 442.911 583.452H444.825V586.597H415.089V583.452H416.524C419.259 583.452 421.196 583.088 422.335 582.359C423.52 581.584 424.226 580.513 424.454 579.146C424.682 577.778 424.796 573.859 424.796 567.388V551.597C424.796 545.581 424.705 541.821 424.522 540.318C424.386 538.768 423.748 537.583 422.608 536.763C421.469 535.897 419.441 535.464 416.524 535.464H415.089V532.388C419.373 531.887 424.978 530.542 431.905 528.355C433.227 531.955 433.956 536.717 434.093 542.642Z" fill="white"/>
<path d="M406.817 576.343H409.347C408.937 584.136 405.108 588.032 397.862 588.032C394.763 588.032 392.302 587.212 390.479 585.571C388.702 583.931 387.54 581.493 386.993 578.257C382.436 581.493 378.266 583.931 374.483 585.571C370.746 587.212 367.397 588.032 364.435 588.032C360.652 588.032 357.394 586.939 354.659 584.751C351.925 582.564 350.558 579.67 350.558 576.069C350.558 571.375 352.836 567.274 357.394 563.765C361.996 560.256 368.331 556.838 376.397 553.511L386.993 549.204V546.47C386.993 542.596 386.743 539.793 386.241 538.062C385.74 536.33 384.441 534.78 382.345 533.413C380.248 532.046 377.491 531.362 374.073 531.362C367.237 531.362 363.432 533.641 362.657 538.198C361.928 542.847 360.014 545.171 356.915 545.171C354.135 545.171 352.745 543.849 352.745 541.206C352.745 538.609 354.591 535.829 358.282 532.866C361.974 529.859 367.716 528.355 375.509 528.355C381.297 528.355 385.785 529.266 388.976 531.089C392.166 532.912 394.262 534.986 395.265 537.31C396.313 539.634 396.837 543.189 396.837 547.974V570.601C396.837 575.887 397.11 579.282 397.657 580.786C398.204 582.29 399.389 583.042 401.212 583.042C404.22 583.042 406.088 580.809 406.817 576.343ZM386.993 552.417L379.542 555.425C367.784 560.21 361.905 566.226 361.905 573.472C361.905 576.343 362.657 578.667 364.161 580.444C365.665 582.176 367.625 583.042 370.04 583.042C372.182 583.042 374.666 582.336 377.491 580.923C380.317 579.51 383.484 577.391 386.993 574.566V552.417Z" fill="white"/>
<path d="M338.8 572.925H341.808C338.709 583.543 330.961 588.853 318.565 588.853C310.59 588.853 303.868 586.141 298.399 580.718C292.976 575.295 290.265 568.117 290.265 559.185C290.265 550.025 293.204 542.596 299.083 536.9C304.962 531.203 311.912 528.355 319.933 528.355C324.763 528.355 329.207 529.426 333.263 531.568C337.319 533.664 339.347 536.239 339.347 539.292C339.347 540.431 338.959 541.502 338.185 542.505C337.455 543.508 336.384 544.009 334.972 544.009C331.964 544.009 330.118 542.254 329.435 538.745C328.888 536.102 328.045 534.256 326.905 533.208C325.72 532.16 323.419 531.636 320.001 531.636C313.894 531.636 309.291 533.755 306.192 537.993C303.139 542.232 301.612 548.612 301.612 557.134C301.612 565.93 303.253 572.811 306.534 577.778C309.861 582.746 314.874 585.23 321.573 585.23C330.597 585.23 336.339 581.128 338.8 572.925Z" fill="white"/>
<path d="M198.731 539.839C201.466 536.011 204.519 533.14 207.892 531.226C211.31 529.312 215.047 528.355 219.103 528.355C223.705 528.355 227.511 529.312 230.519 531.226C233.572 533.14 235.554 535.51 236.466 538.335C237.377 541.115 237.833 545.65 237.833 551.939V567.388C237.833 573.95 237.947 577.938 238.175 579.351C238.448 580.763 239.2 581.812 240.431 582.495C241.661 583.133 243.94 583.452 247.267 583.452V586.597H218.351V583.452H219.649C222.976 583.452 225.118 582.974 226.075 582.017C227.078 581.06 227.647 579.943 227.784 578.667C227.966 577.346 228.058 573.586 228.058 567.388V550.571C228.058 545.923 227.784 542.482 227.237 540.249C226.69 538.016 225.392 536.17 223.341 534.712C221.336 533.254 218.806 532.525 215.753 532.525C212.198 532.525 209.008 533.573 206.183 535.669C203.357 537.72 200.873 540.819 198.731 544.966V567.388C198.731 573.677 198.823 577.551 199.005 579.009C199.233 580.467 199.939 581.584 201.124 582.359C202.309 583.088 204.474 583.452 207.618 583.452V586.597H179.181V583.452H180.616C183.897 583.452 186.017 582.997 186.974 582.085C187.976 581.128 188.546 580.012 188.683 578.736C188.865 577.414 188.956 573.631 188.956 567.388V511.607C188.956 505.956 188.409 502.378 187.315 500.874C186.267 499.37 183.715 498.618 179.659 498.618V495.474C186.723 495.474 192.602 494.517 197.296 492.603H198.731V539.839Z" fill="white"/>
<path d="M173.438 533.755H156.554V567.593C156.554 572.788 156.782 576.297 157.237 578.12C157.693 579.898 158.65 581.333 160.108 582.427C161.612 583.521 163.207 584.068 164.894 584.068C168.175 584.068 171.023 582.199 173.438 578.462L175.626 579.761C174.213 582.769 172.117 585.047 169.337 586.597C166.603 588.101 163.823 588.853 160.997 588.853C157.716 588.853 154.822 587.896 152.315 585.982C149.854 584.022 148.305 581.743 147.667 579.146C147.075 576.548 146.778 571.991 146.778 565.474V533.755H138.644V530.611C142.381 530.519 145.73 528.947 148.692 525.894C151.655 522.84 153.546 518.556 154.366 513.042H156.554V530.611H173.438V533.755Z" fill="white"/>
<path d="M109.386 499.78C109.386 497.821 110.069 496.135 111.437 494.722C112.849 493.309 114.535 492.603 116.495 492.603C118.455 492.603 120.118 493.309 121.485 494.722C122.853 496.135 123.536 497.821 123.536 499.78C123.536 501.786 122.853 503.495 121.485 504.907C120.118 506.32 118.455 507.027 116.495 507.027C114.535 507.027 112.849 506.32 111.437 504.907C110.069 503.495 109.386 501.786 109.386 499.78ZM122.579 528.355V567.388C122.579 573.358 122.67 577.118 122.853 578.667C123.035 580.217 123.696 581.402 124.835 582.222C125.974 583.042 128.002 583.452 130.919 583.452H132.354V586.597H102.208V583.452H104.532C107.768 583.452 109.864 582.997 110.821 582.085C111.824 581.128 112.394 580.012 112.53 578.736C112.713 577.414 112.804 573.631 112.804 567.388V550.435C112.804 543.872 112.485 539.862 111.847 538.403C111.254 536.945 110.434 536.034 109.386 535.669C108.383 535.305 106.606 535.122 104.054 535.122H102.208V531.978C110.32 531.157 116.609 529.95 121.075 528.355H122.579Z" fill="white"/>
<path d="M72.335 588.784H69.2588L52.5791 544.351L35.5576 588.784H32.5498L15.46 544.351C13.5003 539.292 12.042 536.262 11.085 535.259C10.1279 534.256 8.21387 533.755 5.34277 533.755V530.611H30.9092V533.755C28.0381 533.755 26.0785 534.028 25.0303 534.575C23.9821 535.077 23.458 535.965 23.458 537.241C23.458 538.153 24.3467 540.819 26.124 545.239L37.4717 575.249L54.835 530.611H57.501L74.3174 575.249L86.6221 543.462C87.9437 540.09 88.6045 538.062 88.6045 537.378C88.6045 535.145 86.3031 533.937 81.7002 533.755V530.611H99.8838V533.755C97.6963 533.801 95.9645 534.234 94.6885 535.054C93.458 535.829 92.3187 537.606 91.2705 540.386L89.7666 544.351L72.335 588.784Z" fill="white"/>
<path d="M614.972 428.374V409.986H617.638C620.737 420.604 626.274 425.913 634.249 425.913C637.713 425.913 640.287 424.865 641.974 422.769C643.705 420.672 644.571 418.371 644.571 415.864C644.571 412.948 643.66 410.555 641.837 408.687C639.968 406.818 636.345 404.562 630.968 401.919C625.317 399.139 621.261 396.405 618.8 393.716C616.339 391.073 615.108 387.814 615.108 383.941C615.108 380.249 616.43 376.74 619.073 373.413C621.716 370.041 625.431 368.355 630.216 368.355C635.092 368.355 639.125 370.337 642.315 374.302C642.999 373.618 643.888 371.955 644.981 369.312H647.511V386.607H644.981C644.07 382.459 642.293 378.905 639.649 375.943C637.052 372.935 633.976 371.431 630.421 371.431C627.687 371.431 625.476 372.274 623.79 373.96C622.104 375.646 621.261 377.606 621.261 379.839C621.261 382.3 622.195 384.419 624.063 386.196C625.886 388.019 629.373 390.093 634.522 392.417C642.27 395.926 647.009 399.344 648.741 402.671C650.473 406.043 651.339 409.279 651.339 412.378C651.339 417.254 649.721 421.219 646.485 424.273C643.295 427.326 639.262 428.853 634.386 428.853C629.236 428.853 624.656 426.734 620.646 422.495C619.415 423.862 618.412 425.822 617.638 428.374H614.972Z" fill="white"/>
<path d="M603.966 389.546H564.933C564.75 392.235 564.659 394.24 564.659 395.562C564.659 405.405 566.186 412.811 569.239 417.778C572.338 422.7 576.941 425.161 583.048 425.161C591.342 425.161 597.221 421.447 600.685 414.019H603.966C602.507 418.667 599.614 422.313 595.284 424.956C590.955 427.554 586.238 428.853 581.134 428.853C576.394 428.853 571.905 427.668 567.667 425.298C563.474 422.883 560.034 419.487 557.345 415.112C554.656 410.737 553.312 405.428 553.312 399.185C553.312 390.344 555.909 383.006 561.104 377.173C566.3 371.294 572.794 368.355 580.587 368.355C587.924 368.355 593.598 370.588 597.608 375.054C601.619 379.52 603.738 384.351 603.966 389.546ZM592.003 386.812C592.14 385.763 592.208 384.829 592.208 384.009C592.208 379.999 591.023 376.9 588.653 374.712C586.329 372.479 583.458 371.362 580.04 371.362C571.746 371.362 566.801 376.512 565.206 386.812H592.003Z" fill="white"/>
<path d="M541.69 412.925H544.698C541.599 423.543 533.852 428.853 521.456 428.853C513.481 428.853 506.759 426.141 501.29 420.718C495.867 415.295 493.155 408.117 493.155 399.185C493.155 390.025 496.095 382.596 501.974 376.9C507.853 371.203 514.802 368.355 522.823 368.355C527.654 368.355 532.097 369.426 536.153 371.568C540.209 373.664 542.237 376.239 542.237 379.292C542.237 380.431 541.85 381.502 541.075 382.505C540.346 383.508 539.275 384.009 537.862 384.009C534.854 384.009 533.009 382.254 532.325 378.745C531.778 376.102 530.935 374.256 529.796 373.208C528.611 372.16 526.31 371.636 522.892 371.636C516.785 371.636 512.182 373.755 509.083 377.993C506.03 382.232 504.503 388.612 504.503 397.134C504.503 405.93 506.144 412.811 509.425 417.778C512.752 422.746 517.765 425.23 524.464 425.23C533.487 425.23 539.229 421.128 541.69 412.925Z" fill="white"/>
<path d="M433.067 368.355H434.913C435.961 371.18 436.554 375.031 436.69 379.907C439.972 376.034 443.412 373.14 447.013 371.226C450.613 369.312 454.373 368.355 458.292 368.355C462.758 368.355 466.404 369.289 469.229 371.157C472.101 373.026 473.946 375.327 474.767 378.062C475.587 380.75 475.997 384.693 475.997 389.888V407.388C475.997 413.859 476.111 417.801 476.339 419.214C476.567 420.627 477.273 421.698 478.458 422.427C479.688 423.111 481.922 423.452 485.157 423.452V426.597H456.515V423.452H457.813C461.095 423.452 463.237 422.974 464.239 422.017C465.242 421.06 465.812 419.943 465.948 418.667C466.085 417.391 466.153 413.631 466.153 407.388V389.341C466.153 384.92 465.925 381.776 465.47 379.907C465.06 377.993 463.897 376.307 461.983 374.849C460.115 373.39 457.722 372.661 454.806 372.661C451.479 372.661 448.289 373.664 445.235 375.669C442.228 377.629 439.379 380.591 436.69 384.556V407.388C436.69 413.859 436.804 417.801 437.032 419.214C437.306 420.627 438.035 421.698 439.22 422.427C440.45 423.111 442.706 423.452 445.987 423.452V426.597H417.687V423.452C420.831 423.452 423.019 423.133 424.249 422.495C425.479 421.857 426.231 420.9 426.505 419.624C426.824 418.303 426.983 414.224 426.983 407.388V390.708C426.983 384.191 426.847 380.249 426.573 378.882C426.345 377.469 425.616 376.421 424.386 375.737C423.201 375.008 420.968 374.644 417.687 374.644V371.499C422.7 370.952 427.826 369.904 433.067 368.355Z" fill="white"/>
<path d="M408.458 389.546H369.425C369.243 392.235 369.151 394.24 369.151 395.562C369.151 405.405 370.678 412.811 373.731 417.778C376.83 422.7 381.433 425.161 387.54 425.161C395.834 425.161 401.713 421.447 405.177 414.019H408.458C407 418.667 404.106 422.313 399.776 424.956C395.447 427.554 390.73 428.853 385.626 428.853C380.886 428.853 376.397 427.668 372.159 425.298C367.966 422.883 364.526 419.487 361.837 415.112C359.148 410.737 357.804 405.428 357.804 399.185C357.804 390.344 360.401 383.006 365.597 377.173C370.792 371.294 377.286 368.355 385.079 368.355C392.416 368.355 398.09 370.588 402.101 375.054C406.111 379.52 408.23 384.351 408.458 389.546ZM396.495 386.812C396.632 385.763 396.7 384.829 396.7 384.009C396.7 379.999 395.515 376.9 393.146 374.712C390.821 372.479 387.95 371.362 384.532 371.362C376.238 371.362 371.293 376.512 369.698 386.812H396.495Z" fill="white"/>
<path d="M326.905 339.78C326.905 337.821 327.589 336.135 328.956 334.722C330.369 333.309 332.055 332.603 334.015 332.603C335.974 332.603 337.638 333.309 339.005 334.722C340.372 336.135 341.056 337.821 341.056 339.78C341.056 341.786 340.372 343.495 339.005 344.907C337.638 346.32 335.974 347.027 334.015 347.027C332.055 347.027 330.369 346.32 328.956 344.907C327.589 343.495 326.905 341.786 326.905 339.78ZM340.099 368.355V407.388C340.099 413.358 340.19 417.118 340.372 418.667C340.554 420.217 341.215 421.402 342.354 422.222C343.494 423.042 345.522 423.452 348.438 423.452H349.874V426.597H319.728V423.452H322.052C325.287 423.452 327.384 422.997 328.341 422.085C329.343 421.128 329.913 420.012 330.05 418.736C330.232 417.414 330.323 413.631 330.323 407.388V390.435C330.323 383.872 330.004 379.862 329.366 378.403C328.774 376.945 327.953 376.034 326.905 375.669C325.903 375.305 324.125 375.122 321.573 375.122H319.728V371.978C327.84 371.157 334.129 369.95 338.595 368.355H340.099Z" fill="white"/>
<path d="M289.718 382.642C291.267 378.586 293.774 375.191 297.237 372.456C300.746 369.722 304.164 368.355 307.491 368.355C310.499 368.355 312.869 369.289 314.601 371.157C316.332 373.026 317.198 374.94 317.198 376.9C317.198 378.221 316.743 379.361 315.831 380.318C314.965 381.275 313.894 381.753 312.618 381.753C310.34 381.753 308.608 380.067 307.423 376.694C306.603 374.416 305.372 373.277 303.731 373.277C301.772 373.277 299.425 374.621 296.69 377.31C293.956 379.953 292.201 382.71 291.427 385.581C290.652 388.452 290.265 392.394 290.265 397.407V407.388C290.265 413.358 290.333 417.118 290.47 418.667C290.652 420.217 291.313 421.402 292.452 422.222C293.591 423.042 295.619 423.452 298.536 423.452H300.45V426.597H270.714V423.452H272.149C274.884 423.452 276.821 423.088 277.96 422.359C279.145 421.584 279.851 420.513 280.079 419.146C280.307 417.778 280.421 413.859 280.421 407.388V391.597C280.421 385.581 280.33 381.821 280.147 380.318C280.011 378.768 279.373 377.583 278.233 376.763C277.094 375.897 275.066 375.464 272.149 375.464H270.714V372.388C274.998 371.887 280.603 370.542 287.53 368.355C288.852 371.955 289.581 376.717 289.718 382.642Z" fill="white"/>
<path d="M261.075 389.546H222.042C221.86 392.235 221.769 394.24 221.769 395.562C221.769 405.405 223.295 412.811 226.349 417.778C229.448 422.7 234.05 425.161 240.157 425.161C248.451 425.161 254.33 421.447 257.794 414.019H261.075C259.617 418.667 256.723 422.313 252.394 424.956C248.064 427.554 243.347 428.853 238.243 428.853C233.504 428.853 229.015 427.668 224.776 425.298C220.584 422.883 217.143 419.487 214.454 415.112C211.765 410.737 210.421 405.428 210.421 399.185C210.421 390.344 213.019 383.006 218.214 377.173C223.409 371.294 229.903 368.355 237.696 368.355C245.034 368.355 250.707 370.588 254.718 375.054C258.728 379.52 260.847 384.351 261.075 389.546ZM249.112 386.812C249.249 385.763 249.317 384.829 249.317 384.009C249.317 379.999 248.132 376.9 245.763 374.712C243.438 372.479 240.567 371.362 237.149 371.362C228.855 371.362 223.91 376.512 222.315 386.812H249.112Z" fill="white"/>
<path d="M149.444 368.355H151.29C152.065 370.907 152.452 373.983 152.452 377.583C155.369 374.484 158.491 372.183 161.817 370.679C165.19 369.129 168.744 368.355 172.481 368.355C180.229 368.355 186.677 371.089 191.827 376.558C196.977 381.981 199.552 389.159 199.552 398.091C199.552 406.841 196.954 414.155 191.759 420.034C186.609 425.913 179.819 428.853 171.388 428.853C167.924 428.853 164.597 428.146 161.407 426.734C158.263 425.366 155.278 423.316 152.452 420.581V441.841C152.452 448.312 152.566 452.254 152.794 453.667C153.067 455.08 153.797 456.128 154.981 456.812C156.166 457.541 158.377 457.905 161.612 457.905V461.05H132.354V457.905H134.405C137.641 457.905 139.737 457.427 140.694 456.47C141.697 455.558 142.267 454.442 142.403 453.12C142.586 451.844 142.677 448.084 142.677 441.841V390.982C142.677 385.012 142.586 381.252 142.403 379.702C142.267 378.153 141.629 376.968 140.489 376.148C139.35 375.327 137.322 374.917 134.405 374.917H132.354V371.773C136.866 371.317 142.563 370.178 149.444 368.355ZM152.452 416.069C154.913 419.077 157.511 421.356 160.245 422.905C163.025 424.409 165.942 425.161 168.995 425.161C174.145 425.161 178.634 422.951 182.462 418.53C186.29 414.11 188.204 407.069 188.204 397.407C188.204 389.022 186.358 382.756 182.667 378.609C178.976 374.461 174.578 372.388 169.474 372.388C166.329 372.388 163.344 373.185 160.519 374.78C157.693 376.375 155.004 378.791 152.452 382.027V416.069Z" fill="white"/>
<path d="M102.55 394.81L118.272 414.566C121.007 417.984 123.263 420.308 125.04 421.538C126.863 422.723 129.028 423.361 131.534 423.452V426.597H103.575V423.452C108.178 423.452 110.479 422.564 110.479 420.786C110.479 420.057 109.431 418.485 107.335 416.069L96.2607 402.329L86.0068 414.497C83.5003 417.414 82.2471 419.237 82.2471 419.966C82.2471 422.245 84.7764 423.407 89.835 423.452V426.597H66.7979V423.452C68.8031 423.452 71.0133 422.928 73.4287 421.88C75.8441 420.832 78.9658 418.052 82.7939 413.54L94.3467 399.868L81.9736 384.214C78.4645 379.748 75.7985 376.9 73.9756 375.669C72.1527 374.393 70.0107 373.755 67.5498 373.755V370.611H93.9365V373.755C90.154 373.755 88.2627 374.598 88.2627 376.284C88.2627 377.059 89.1058 378.449 90.792 380.454L100.636 392.622L109.728 381.958C111.778 379.497 112.804 377.971 112.804 377.378C112.804 374.963 110.297 373.755 105.284 373.755V370.611H127.501V373.755C123.035 373.892 118.409 376.694 113.624 382.163L102.55 394.81Z" fill="white"/>
<path d="M61.0557 389.546H22.0225C21.8402 392.235 21.749 394.24 21.749 395.562C21.749 405.405 23.2757 412.811 26.3291 417.778C29.4281 422.7 34.0309 425.161 40.1377 425.161C48.432 425.161 54.3109 421.447 57.7744 414.019H61.0557C59.5973 418.667 56.7035 422.313 52.374 424.956C48.0446 427.554 43.3278 428.853 38.2236 428.853C33.484 428.853 28.9951 427.668 24.7568 425.298C20.5641 422.883 17.1234 419.487 14.4346 415.112C11.7458 410.737 10.4014 405.428 10.4014 399.185C10.4014 390.344 12.999 383.006 18.1943 377.173C23.3896 371.294 29.8838 368.355 37.6768 368.355C45.014 368.355 50.6878 370.588 54.6982 375.054C58.7087 379.52 60.8278 384.351 61.0557 389.546ZM49.0928 386.812C49.2295 385.763 49.2979 384.829 49.2979 384.009C49.2979 379.999 48.113 376.9 45.7432 374.712C43.4189 372.479 40.5479 371.362 37.1299 371.362C28.8356 371.362 23.891 376.512 22.2959 386.812H49.0928Z" fill="white"/>
<path d="M634.112 222.642C635.662 218.586 638.168 215.191 641.632 212.456C645.141 209.722 648.559 208.355 651.886 208.355C654.894 208.355 657.263 209.289 658.995 211.157C660.727 213.026 661.593 214.94 661.593 216.9C661.593 218.221 661.137 219.361 660.226 220.318C659.36 221.275 658.289 221.753 657.013 221.753C654.734 221.753 653.002 220.067 651.817 216.694C650.997 214.416 649.767 213.277 648.126 213.277C646.166 213.277 643.819 214.621 641.085 217.31C638.351 219.953 636.596 222.71 635.821 225.581C635.047 228.452 634.659 232.394 634.659 237.407V247.388C634.659 253.358 634.728 257.118 634.864 258.667C635.047 260.217 635.707 261.402 636.847 262.222C637.986 263.042 640.014 263.452 642.931 263.452H644.845V266.597H615.108V263.452H616.544C619.278 263.452 621.215 263.088 622.354 262.359C623.539 261.584 624.246 260.513 624.474 259.146C624.701 257.778 624.815 253.859 624.815 247.388V231.597C624.815 225.581 624.724 221.821 624.542 220.318C624.405 218.768 623.767 217.583 622.628 216.763C621.489 215.897 619.461 215.464 616.544 215.464H615.108V212.388C619.392 211.887 624.998 210.542 631.925 208.355C633.246 211.955 633.976 216.717 634.112 222.642Z" fill="white"/>
<path d="M605.47 229.546H566.437C566.254 232.235 566.163 234.24 566.163 235.562C566.163 245.405 567.69 252.811 570.743 257.778C573.842 262.7 578.445 265.161 584.552 265.161C592.846 265.161 598.725 261.447 602.188 254.019H605.47C604.011 258.667 601.118 262.313 596.788 264.956C592.459 267.554 587.742 268.853 582.638 268.853C577.898 268.853 573.409 267.668 569.171 265.298C564.978 262.883 561.537 259.487 558.849 255.112C556.16 250.737 554.815 245.428 554.815 239.185C554.815 230.344 557.413 223.006 562.608 217.173C567.804 211.294 574.298 208.355 582.091 208.355C589.428 208.355 595.102 210.588 599.112 215.054C603.123 219.52 605.242 224.351 605.47 229.546ZM593.507 226.812C593.644 225.763 593.712 224.829 593.712 224.009C593.712 219.999 592.527 216.9 590.157 214.712C587.833 212.479 584.962 211.362 581.544 211.362C573.25 211.362 568.305 216.512 566.71 226.812H593.507Z" fill="white"/>
<path d="M508.468 268.374V249.986H511.134C514.233 260.604 519.77 265.913 527.745 265.913C531.209 265.913 533.784 264.865 535.47 262.769C537.201 260.672 538.067 258.371 538.067 255.864C538.067 252.948 537.156 250.555 535.333 248.687C533.465 246.818 529.841 244.562 524.464 241.919C518.813 239.139 514.757 236.405 512.296 233.716C509.835 231.073 508.604 227.814 508.604 223.941C508.604 220.249 509.926 216.74 512.569 213.413C515.213 210.041 518.927 208.355 523.712 208.355C528.588 208.355 532.621 210.337 535.812 214.302C536.495 213.618 537.384 211.955 538.478 209.312H541.007V226.607H538.478C537.566 222.459 535.789 218.905 533.146 215.943C530.548 212.935 527.472 211.431 523.917 211.431C521.183 211.431 518.972 212.274 517.286 213.96C515.6 215.646 514.757 217.606 514.757 219.839C514.757 222.3 515.691 224.419 517.56 226.196C519.382 228.019 522.869 230.093 528.019 232.417C535.766 235.926 540.506 239.344 542.237 242.671C543.969 246.043 544.835 249.279 544.835 252.378C544.835 257.254 543.217 261.219 539.981 264.273C536.791 267.326 532.758 268.853 527.882 268.853C522.732 268.853 518.152 266.734 514.142 262.495C512.911 263.862 511.909 265.822 511.134 268.374H508.468Z" fill="white"/>
<path d="M490.626 210.611V247.319C490.626 253.426 490.717 257.254 490.899 258.804C491.082 260.353 491.743 261.515 492.882 262.29C494.067 263.065 496.163 263.452 499.171 263.452V266.597C492.244 266.688 487.185 267.417 483.995 268.784H483.175C481.716 266.278 480.942 261.948 480.851 255.796C478.071 260.125 474.881 263.384 471.28 265.571C467.726 267.759 463.784 268.853 459.454 268.853C455.717 268.853 452.413 268.01 449.542 266.323C446.671 264.592 444.688 262.495 443.595 260.034C442.547 257.573 442.022 253.859 442.022 248.892V229.819C442.022 223.348 441.909 219.406 441.681 217.993C441.453 216.535 440.724 215.464 439.493 214.78C438.308 214.097 436.098 213.755 432.862 213.755V210.611H451.866V249.439C451.866 253.267 452.094 256.047 452.55 257.778C453.006 259.51 454.168 261.037 456.036 262.359C457.905 263.635 460.069 264.273 462.53 264.273C466.039 264.273 469.389 263.133 472.579 260.855C475.769 258.53 477.934 256.092 479.073 253.54C480.258 250.943 480.851 247.251 480.851 242.466V229.819C480.851 223.713 480.782 219.999 480.646 218.677C480.509 217.355 479.916 216.216 478.868 215.259C477.866 214.256 475.746 213.755 472.511 213.755H471.075V210.611H490.626Z" fill="white"/>
<path d="M389.454 229.546H350.421C350.239 232.235 350.147 234.24 350.147 235.562C350.147 245.405 351.674 252.811 354.728 257.778C357.826 262.7 362.429 265.161 368.536 265.161C376.83 265.161 382.709 261.447 386.173 254.019H389.454C387.996 258.667 385.102 262.313 380.772 264.956C376.443 267.554 371.726 268.853 366.622 268.853C361.882 268.853 357.394 267.668 353.155 265.298C348.963 262.883 345.522 259.487 342.833 255.112C340.144 250.737 338.8 245.428 338.8 239.185C338.8 230.344 341.397 223.006 346.593 217.173C351.788 211.294 358.282 208.355 366.075 208.355C373.412 208.355 379.086 210.588 383.097 215.054C387.107 219.52 389.226 224.351 389.454 229.546ZM377.491 226.812C377.628 225.763 377.696 224.829 377.696 224.009C377.696 219.999 376.511 216.9 374.142 214.712C371.817 212.479 368.946 211.362 365.528 211.362C357.234 211.362 352.289 216.512 350.694 226.812H377.491Z" fill="white"/>
<path d="M321.368 210.611V247.319C321.368 253.426 321.459 257.254 321.642 258.804C321.824 260.353 322.485 261.515 323.624 262.29C324.809 263.065 326.905 263.452 329.913 263.452V266.597C322.986 266.688 317.927 267.417 314.737 268.784H313.917C312.459 266.278 311.684 261.948 311.593 255.796C308.813 260.125 305.623 263.384 302.022 265.571C298.468 267.759 294.526 268.853 290.196 268.853C286.459 268.853 283.155 268.01 280.284 266.323C277.413 264.592 275.431 262.495 274.337 260.034C273.289 257.573 272.765 253.859 272.765 248.892V229.819C272.765 223.348 272.651 219.406 272.423 217.993C272.195 216.535 271.466 215.464 270.235 214.78C269.05 214.097 266.84 213.755 263.604 213.755V210.611H282.608V249.439C282.608 253.267 282.836 256.047 283.292 257.778C283.748 259.51 284.91 261.037 286.778 262.359C288.647 263.635 290.812 264.273 293.272 264.273C296.782 264.273 300.131 263.133 303.321 260.855C306.511 258.53 308.676 256.092 309.815 253.54C311 250.943 311.593 247.251 311.593 242.466V229.819C311.593 223.713 311.524 219.999 311.388 218.677C311.251 217.355 310.659 216.216 309.61 215.259C308.608 214.256 306.489 213.755 303.253 213.755H301.817V210.611H321.368Z" fill="white"/>
<path d="M247.335 208.355H249.591V281.841C249.591 287.811 249.659 291.571 249.796 293.12C249.978 294.67 250.639 295.855 251.778 296.675C252.918 297.495 254.946 297.905 257.862 297.905H259.366V301.05H229.22V297.905H231.476C234.21 297.905 236.147 297.541 237.286 296.812C238.471 296.083 239.177 295.012 239.405 293.599C239.633 292.232 239.747 288.312 239.747 281.841V261.812C236.466 264.136 233.139 265.89 229.767 267.075C226.44 268.26 223.045 268.853 219.581 268.853C211.788 268.853 205.294 266.187 200.099 260.855C194.949 255.523 192.374 248.413 192.374 239.527C192.374 230.184 195.245 222.665 200.987 216.968C206.775 211.226 213.292 208.355 220.538 208.355C223.591 208.355 226.713 208.97 229.903 210.2C233.139 211.385 236.42 213.208 239.747 215.669C242.254 214.028 244.783 211.59 247.335 208.355ZM239.747 219.907C237.058 217.446 234.278 215.601 231.407 214.37C228.582 213.14 225.688 212.525 222.726 212.525C217.53 212.525 213.064 214.553 209.327 218.609C205.59 222.665 203.722 229.842 203.722 240.142C203.722 248.482 205.317 254.771 208.507 259.009C211.743 263.202 216.209 265.298 221.905 265.298C224.959 265.298 227.966 264.751 230.929 263.657C233.891 262.518 236.83 260.832 239.747 258.599V219.907Z" fill="white"/>
<path d="M161.886 179.78C161.886 177.821 162.569 176.135 163.937 174.722C165.349 173.309 167.035 172.603 168.995 172.603C170.955 172.603 172.618 173.309 173.985 174.722C175.353 176.135 176.036 177.821 176.036 179.78C176.036 181.786 175.353 183.495 173.985 184.907C172.618 186.32 170.955 187.027 168.995 187.027C167.035 187.027 165.349 186.32 163.937 184.907C162.569 183.495 161.886 181.786 161.886 179.78ZM175.079 208.355V247.388C175.079 253.358 175.17 257.118 175.353 258.667C175.535 260.217 176.196 261.402 177.335 262.222C178.474 263.042 180.502 263.452 183.419 263.452H184.854V266.597H154.708V263.452H157.032C160.268 263.452 162.364 262.997 163.321 262.085C164.324 261.128 164.894 260.012 165.03 258.736C165.213 257.414 165.304 253.631 165.304 247.388V230.435C165.304 223.872 164.985 219.862 164.347 218.403C163.754 216.945 162.934 216.034 161.886 215.669C160.883 215.305 159.106 215.122 156.554 215.122H154.708V211.978C162.82 211.157 169.109 209.95 173.575 208.355H175.079Z" fill="white"/>
<path d="M97.4229 208.355H99.2686C100.317 211.18 100.909 215.031 101.046 219.907C104.327 216.034 107.768 213.14 111.368 211.226C114.968 209.312 118.728 208.355 122.647 208.355C127.114 208.355 130.759 209.289 133.585 211.157C136.456 213.026 138.302 215.327 139.122 218.062C139.942 220.75 140.353 224.693 140.353 229.888V247.388C140.353 253.859 140.466 257.801 140.694 259.214C140.922 260.627 141.629 261.698 142.813 262.427C144.044 263.111 146.277 263.452 149.513 263.452V266.597H120.87V263.452H122.169C125.45 263.452 127.592 262.974 128.595 262.017C129.597 261.06 130.167 259.943 130.304 258.667C130.44 257.391 130.509 253.631 130.509 247.388V229.341C130.509 224.92 130.281 221.776 129.825 219.907C129.415 217.993 128.253 216.307 126.339 214.849C124.47 213.39 122.078 212.661 119.161 212.661C115.834 212.661 112.644 213.664 109.591 215.669C106.583 217.629 103.735 220.591 101.046 224.556V247.388C101.046 253.859 101.16 257.801 101.388 259.214C101.661 260.627 102.39 261.698 103.575 262.427C104.806 263.111 107.062 263.452 110.343 263.452V266.597H82.042V263.452C85.1865 263.452 87.374 263.133 88.6045 262.495C89.835 261.857 90.5869 260.9 90.8604 259.624C91.1794 258.303 91.3389 254.224 91.3389 247.388V230.708C91.3389 224.191 91.2021 220.249 90.9287 218.882C90.7008 217.469 89.9717 216.421 88.7412 215.737C87.5563 215.008 85.3232 214.644 82.042 214.644V211.499C87.055 210.952 92.182 209.904 97.4229 208.355Z" fill="white"/>
<path d="M65.9775 210.611V247.319C65.9775 253.426 66.0687 257.254 66.251 258.804C66.4333 260.353 67.0941 261.515 68.2334 262.29C69.4183 263.065 71.5146 263.452 74.5225 263.452V266.597C67.5954 266.688 62.5368 267.417 59.3467 268.784H58.5264C57.068 266.278 56.2933 261.948 56.2021 255.796C53.4222 260.125 50.2321 263.384 46.6318 265.571C43.0771 267.759 39.1351 268.853 34.8057 268.853C31.0687 268.853 27.7646 268.01 24.8936 266.323C22.0225 264.592 20.04 262.495 18.9463 260.034C17.8981 257.573 17.374 253.859 17.374 248.892V229.819C17.374 223.348 17.2601 219.406 17.0322 217.993C16.8044 216.535 16.0752 215.464 14.8447 214.78C13.6598 214.097 11.4495 213.755 8.21387 213.755V210.611H27.2178V249.439C27.2178 253.267 27.4456 256.047 27.9014 257.778C28.3571 259.51 29.5192 261.037 31.3877 262.359C33.2562 263.635 35.4209 264.273 37.8818 264.273C41.391 264.273 44.7406 263.133 47.9307 260.855C51.1208 258.53 53.2855 256.092 54.4248 253.54C55.6097 250.943 56.2021 247.251 56.2021 242.466V229.819C56.2021 223.713 56.1338 219.999 55.9971 218.677C55.8604 217.355 55.2679 216.216 54.2197 215.259C53.2171 214.256 51.098 213.755 47.8623 213.755H46.4268V210.611H65.9775Z" fill="white"/>
<path d="M775.685 48.3546H777.53C778.578 51.1802 779.171 55.0311 779.308 59.9074C782.589 56.0337 786.03 53.1398 789.63 51.2257C793.23 49.3117 796.99 48.3546 800.909 48.3546C805.375 48.3546 809.021 49.2889 811.847 51.1574C814.718 53.0259 816.563 55.3273 817.384 58.0617C818.204 60.7505 818.614 64.6925 818.614 69.8878V87.3878C818.614 93.8592 818.728 97.8013 818.956 99.214C819.184 100.627 819.89 101.698 821.075 102.427C822.306 103.111 824.539 103.452 827.774 103.452V106.597H799.132V103.452H800.431C803.712 103.452 805.854 102.974 806.856 102.017C807.859 101.06 808.429 99.9432 808.565 98.6671C808.702 97.3911 808.771 93.6313 808.771 87.3878V69.341C808.771 64.9204 808.543 61.7759 808.087 59.9074C807.677 57.9933 806.515 56.3071 804.601 54.8488C802.732 53.3905 800.34 52.6613 797.423 52.6613C794.096 52.6613 790.906 53.6639 787.853 55.6691C784.845 57.6287 781.996 60.591 779.308 64.5558V87.3878C779.308 93.8592 779.422 97.8013 779.649 99.214C779.923 100.627 780.652 101.698 781.837 102.427C783.067 103.111 785.323 103.452 788.604 103.452V106.597H760.304V103.452C763.448 103.452 765.636 103.133 766.866 102.495C768.097 101.857 768.849 100.9 769.122 99.6242C769.441 98.3026 769.601 94.2238 769.601 87.3878V70.7082C769.601 64.1912 769.464 60.2492 769.19 58.882C768.963 57.4692 768.233 56.4211 767.003 55.7375C765.818 55.0083 763.585 54.6437 760.304 54.6437V51.4992C765.317 50.9523 770.444 49.9041 775.685 48.3546Z" fill="white"/>
<path d="M738.771 55.5324C742.644 51.1574 746.563 48.9699 750.528 48.9699C752.716 48.9699 754.402 49.5623 755.587 50.7472C756.817 51.9321 757.433 53.2309 757.433 54.6437C757.433 57.6515 756.065 59.1554 753.331 59.1554C751.827 59.1554 750.528 58.2212 749.435 56.3527C748.432 54.6209 747.384 53.755 746.29 53.755C744.558 53.755 742.644 54.9399 740.548 57.3097C742.918 61.0467 744.103 65.0115 744.103 69.2043C744.103 74.673 742.143 79.5037 738.224 83.6964C734.304 87.9347 727.696 90.2134 718.399 90.5324C708.738 90.8514 703.907 92.811 703.907 96.4113C703.907 98.0975 705.001 99.2824 707.188 99.966C709.33 100.695 713.842 101.242 720.724 101.607C728.243 101.971 734.031 102.678 738.087 103.726C742.143 104.728 745.379 106.779 747.794 109.878C750.209 112.977 751.417 116.668 751.417 120.952C751.417 126.968 748.956 131.821 744.034 135.513C739.112 139.204 732.026 141.05 722.774 141.05C714.298 141.05 707.507 139.409 702.403 136.128C697.299 132.847 694.747 128.7 694.747 123.687C694.747 120.907 695.476 118.628 696.935 116.851C698.393 115.073 700.466 114.185 703.155 114.185C703.884 114.185 704.545 114.299 705.138 114.527C702.312 117.625 700.899 120.907 700.899 124.37C700.899 128.381 702.768 131.685 706.505 134.282C710.287 136.926 715.916 138.247 723.39 138.247C730.043 138.247 735.216 136.903 738.907 134.214C742.644 131.571 744.513 128.176 744.513 124.028C744.513 119.471 742.849 116.258 739.522 114.39C736.196 112.567 730.271 111.473 721.749 111.109C711.951 110.698 705.593 109.491 702.677 107.486C699.76 105.526 698.302 102.997 698.302 99.8976C698.302 93.9276 702.472 90.1678 710.812 88.6183C706.482 86.0662 703.224 83.1496 701.036 79.8683C698.849 76.5871 697.755 72.9184 697.755 68.8625C697.755 63.1658 699.988 58.3351 704.454 54.3703C708.966 50.3599 714.298 48.3546 720.45 48.3546C728.061 48.3546 734.168 50.7472 738.771 55.5324ZM708.009 70.4347C708.009 76.3136 709.216 80.6203 711.632 83.3546C714.047 86.089 717.123 87.4562 720.86 87.4562C724.324 87.4562 727.286 86.1118 729.747 83.423C732.254 80.6886 733.507 75.9718 733.507 69.2726C733.507 62.5278 732.185 57.8794 729.542 55.3273C726.899 52.7752 723.914 51.4992 720.587 51.4992C716.394 51.4992 713.25 53.0714 711.153 56.216C709.057 59.3605 708.009 64.1001 708.009 70.4347Z" fill="white"/>
<path d="M665.147 19.7804C665.147 17.8208 665.831 16.1346 667.198 14.7218C668.611 13.3091 670.297 12.6027 672.257 12.6027C674.216 12.6027 675.88 13.3091 677.247 14.7218C678.614 16.1346 679.298 17.8208 679.298 19.7804C679.298 21.7856 678.614 23.4946 677.247 24.9074C675.88 26.3201 674.216 27.0265 672.257 27.0265C670.297 27.0265 668.611 26.3201 667.198 24.9074C665.831 23.4946 665.147 21.7856 665.147 19.7804ZM678.341 48.3546V87.3878C678.341 93.3579 678.432 97.1177 678.614 98.6671C678.797 100.217 679.457 101.402 680.597 102.222C681.736 103.042 683.764 103.452 686.681 103.452H688.116V106.597H657.97V103.452H660.294C663.53 103.452 665.626 102.997 666.583 102.085C667.586 101.128 668.155 100.012 668.292 98.7355C668.474 97.4139 668.565 93.6313 668.565 87.3878V70.4347C668.565 63.8722 668.246 59.8618 667.608 58.4035C667.016 56.9451 666.196 56.0337 665.147 55.6691C664.145 55.3045 662.368 55.1222 659.815 55.1222H657.97V51.9777C666.082 51.1574 672.371 49.9497 676.837 48.3546H678.341Z" fill="white"/>
<path d="M614.698 108.374V89.9855H617.364C620.463 100.604 626 105.913 633.976 105.913C637.439 105.913 640.014 104.865 641.7 102.769C643.432 100.672 644.298 98.3709 644.298 95.8644C644.298 92.9477 643.386 90.5552 641.563 88.6867C639.695 86.8182 636.072 84.5623 630.694 81.9191C625.043 79.1391 620.987 76.4048 618.526 73.716C616.065 71.0727 614.835 67.8143 614.835 63.9406C614.835 60.2492 616.157 56.7401 618.8 53.4132C621.443 50.0408 625.157 48.3546 629.942 48.3546C634.819 48.3546 638.852 50.3371 642.042 54.3019C642.726 53.6183 643.614 51.9549 644.708 49.3117H647.237V66.6066H644.708C643.797 62.4595 642.019 58.9048 639.376 55.9425C636.778 52.9347 633.702 51.4308 630.147 51.4308C627.413 51.4308 625.203 52.2739 623.517 53.9601C621.83 55.6463 620.987 57.6059 620.987 59.839C620.987 62.3 621.922 64.4191 623.79 66.1964C625.613 68.0194 629.099 70.0929 634.249 72.4171C641.996 75.9263 646.736 79.3442 648.468 82.6711C650.2 86.0434 651.065 89.2791 651.065 92.3781C651.065 97.2544 649.448 101.219 646.212 104.273C643.022 107.326 638.989 108.853 634.112 108.853C628.963 108.853 624.382 106.734 620.372 102.495C619.142 103.862 618.139 105.822 617.364 108.374H614.698Z" fill="white"/>
<path d="M603.692 69.5461H564.659C564.477 72.2349 564.386 74.2401 564.386 75.5617C564.386 85.4054 565.912 92.811 568.966 97.7785C572.065 102.7 576.668 105.161 582.774 105.161C591.069 105.161 596.948 101.447 600.411 94.0187H603.692C602.234 98.6671 599.34 102.313 595.011 104.956C590.681 107.554 585.965 108.853 580.86 108.853C576.121 108.853 571.632 107.668 567.394 105.298C563.201 102.883 559.76 99.4875 557.071 95.1125C554.382 90.7375 553.038 85.4282 553.038 79.1847C553.038 70.3436 555.636 63.0063 560.831 57.173C566.026 51.2941 572.521 48.3546 580.313 48.3546C587.651 48.3546 593.325 50.5877 597.335 55.0539C601.345 59.52 603.465 64.3507 603.692 69.5461ZM591.729 66.8117C591.866 65.7635 591.935 64.8293 591.935 64.0089C591.935 59.9985 590.75 56.8996 588.38 54.7121C586.056 52.479 583.185 51.3625 579.767 51.3625C571.472 51.3625 566.528 56.5122 564.933 66.8117H591.729Z" fill="white"/>
<path d="M527.335 56.5578V34.6828C527.335 28.7127 527.244 24.953 527.062 23.4035C526.925 21.854 526.287 20.6691 525.147 19.8488C524.008 19.0285 521.98 18.6183 519.063 18.6183H517.628V15.4738C523.142 15.3371 529.181 14.38 535.743 12.6027H537.179V87.8664C537.179 94.3833 537.293 98.3481 537.521 99.7609C537.748 101.174 538.455 102.222 539.64 102.905C540.87 103.589 543.126 103.931 546.407 103.931V107.075C539.799 107.212 533.92 107.805 528.771 108.853C528.224 106.711 527.95 103.338 527.95 98.7355C524.578 102.108 521.091 104.637 517.491 106.323C513.937 108.01 510.245 108.853 506.417 108.853C499.171 108.853 492.905 105.936 487.618 100.103C482.377 94.2694 479.757 87.2056 479.757 78.9113C479.757 69.7967 482.446 62.4367 487.823 56.8312C493.201 51.1802 499.604 48.3546 507.032 48.3546C510.815 48.3546 514.392 49.0382 517.765 50.4054C521.137 51.7726 524.327 53.8234 527.335 56.5578ZM527.335 60.5226C524.327 57.925 521.297 55.9881 518.243 54.7121C515.235 53.3905 512.205 52.7296 509.151 52.7296C504.002 52.7296 499.695 54.7121 496.231 58.6769C492.813 62.6418 491.104 69.1131 491.104 78.091C491.104 87.2056 492.859 93.9276 496.368 98.257C499.923 102.586 504.298 104.751 509.493 104.751C512.957 104.751 516.17 103.931 519.132 102.29C522.094 100.65 524.828 98.1886 527.335 94.9074V60.5226Z" fill="white"/>
<path d="M393.761 17.0461V13.9015H436.144V17.0461H434.161C429.604 17.0461 426.619 17.4334 425.206 18.2082C423.793 18.9373 422.836 20.3273 422.335 22.3781C421.879 24.4289 421.651 29.3052 421.651 37.007V82.466C421.651 89.7576 421.811 94.5428 422.13 96.8214C422.494 99.0545 423.406 100.718 424.864 101.812C426.368 102.905 429.216 103.452 433.409 103.452H436.144V106.597H393.761V103.452H396.495C400.46 103.452 403.194 102.951 404.698 101.948C406.248 100.946 407.228 99.3963 407.638 97.3C408.048 95.158 408.253 90.2134 408.253 82.466V37.007C408.253 29.6242 408.048 24.8618 407.638 22.7199C407.228 20.578 406.316 19.0968 404.903 18.2765C403.491 17.4562 400.437 17.0461 395.743 17.0461H393.761Z" fill="white"/>
<path d="M327.726 133.257V129.839C332.556 128.426 336.316 125.943 339.005 122.388C341.694 118.879 343.038 115.347 343.038 111.792C343.038 108.784 342.081 107.28 340.167 107.28C339.802 107.28 339.21 107.394 338.39 107.622C337.706 107.85 337.068 107.964 336.476 107.964C334.425 107.964 332.716 107.372 331.349 106.187C329.981 104.956 329.298 103.361 329.298 101.402C329.298 99.3052 329.959 97.5734 331.28 96.2062C332.602 94.839 334.311 94.1554 336.407 94.1554C339.643 94.1554 342.263 95.6593 344.269 98.6671C346.319 101.629 347.345 105.116 347.345 109.126C347.345 114.914 345.567 119.995 342.013 124.37C338.504 128.745 333.741 131.708 327.726 133.257Z" fill="white"/>
</svg>
