<svg width="1438" height="295" viewBox="0 0 1438 295" fill="none" xmlns="http://www.w3.org/2000/svg">
<path d="M1118.66 257.836C1118.66 255.974 1119.32 254.387 1120.63 253.075C1121.98 251.721 1123.59 251.044 1125.45 251.044C1127.36 251.044 1128.96 251.721 1130.28 253.075C1131.63 254.387 1132.31 255.974 1132.31 257.836C1132.31 259.74 1131.63 261.349 1130.28 262.66C1128.92 264.015 1127.31 264.692 1125.45 264.692C1123.55 264.692 1121.94 263.993 1120.63 262.597C1119.32 261.243 1118.66 259.656 1118.66 257.836Z" fill="white"/>
<path d="M1108.19 228.193H1071.94C1071.77 230.689 1071.69 232.551 1071.69 233.779C1071.69 242.919 1073.1 249.796 1075.94 254.408C1078.82 258.979 1083.09 261.264 1088.76 261.264C1096.46 261.264 1101.92 257.815 1105.14 250.917H1108.19C1106.83 255.234 1104.14 258.619 1100.12 261.073C1096.1 263.486 1091.72 264.692 1086.98 264.692C1082.58 264.692 1078.42 263.591 1074.48 261.391C1070.59 259.148 1067.39 255.995 1064.89 251.933C1062.4 247.87 1061.15 242.94 1061.15 237.143C1061.15 228.933 1063.56 222.12 1068.39 216.703C1073.21 211.244 1079.24 208.515 1086.48 208.515C1093.29 208.515 1098.56 210.588 1102.28 214.736C1106.01 218.883 1107.97 223.368 1108.19 228.193ZM1097.08 225.654C1097.2 224.68 1097.27 223.813 1097.27 223.051C1097.27 219.327 1096.17 216.449 1093.97 214.418C1091.81 212.345 1089.14 211.308 1085.97 211.308C1078.27 211.308 1073.68 216.09 1072.19 225.654H1097.08Z" fill="white"/>
<path d="M1031.7 221.781C1033.14 218.015 1035.46 214.863 1038.68 212.323C1041.94 209.784 1045.11 208.515 1048.2 208.515C1050.99 208.515 1053.19 209.382 1054.8 211.117C1056.41 212.852 1057.21 214.63 1057.21 216.449C1057.21 217.677 1056.79 218.735 1055.94 219.623C1055.14 220.512 1054.15 220.956 1052.96 220.956C1050.85 220.956 1049.24 219.391 1048.14 216.259C1047.38 214.143 1046.23 213.085 1044.71 213.085C1042.89 213.085 1040.71 214.334 1038.17 216.83C1035.63 219.285 1034 221.845 1033.28 224.511C1032.56 227.177 1032.2 230.837 1032.2 235.492V244.76C1032.2 250.304 1032.27 253.795 1032.39 255.234C1032.56 256.672 1033.18 257.773 1034.24 258.534C1035.29 259.296 1037.18 259.677 1039.88 259.677H1041.66V262.597H1014.05V259.677H1015.38C1017.92 259.677 1019.72 259.338 1020.78 258.661C1021.88 257.942 1022.53 256.948 1022.75 255.678C1022.96 254.408 1023.06 250.769 1023.06 244.76V230.097C1023.06 224.511 1022.98 221.02 1022.81 219.623C1022.68 218.184 1022.09 217.084 1021.03 216.323C1019.97 215.518 1018.09 215.116 1015.38 215.116H1014.05V212.26C1018.03 211.795 1023.23 210.546 1029.67 208.515C1030.89 211.858 1031.57 216.28 1031.7 221.781Z" fill="white"/>
<path d="M1006.37 253.075H1008.72C1008.34 260.312 1004.78 263.93 998.054 263.93C995.176 263.93 992.891 263.168 991.198 261.645C989.548 260.121 988.469 257.857 987.961 254.853C983.729 257.857 979.857 260.121 976.345 261.645C972.875 263.168 969.764 263.93 967.014 263.93C963.501 263.93 960.476 262.914 957.937 260.883C955.397 258.852 954.128 256.165 954.128 252.822C954.128 248.463 956.244 244.654 960.476 241.396C964.75 238.137 970.632 234.963 978.122 231.874L987.961 227.875V225.336C987.961 221.739 987.728 219.137 987.263 217.529C986.797 215.92 985.591 214.482 983.645 213.212C981.698 211.943 979.138 211.308 975.964 211.308C969.616 211.308 966.083 213.424 965.363 217.656C964.686 221.972 962.909 224.13 960.031 224.13C957.45 224.13 956.159 222.903 956.159 220.448C956.159 218.036 957.873 215.455 961.301 212.704C964.729 209.911 970.061 208.515 977.297 208.515C982.671 208.515 986.84 209.361 989.802 211.054C992.764 212.747 994.711 214.672 995.642 216.83C996.615 218.989 997.102 222.289 997.102 226.733V247.743C997.102 252.652 997.355 255.805 997.863 257.201C998.371 258.598 999.471 259.296 1001.16 259.296C1003.96 259.296 1005.69 257.223 1006.37 253.075ZM987.961 230.859L981.042 233.652C970.124 238.095 964.665 243.681 964.665 250.409C964.665 253.075 965.363 255.234 966.76 256.884C968.156 258.492 969.976 259.296 972.219 259.296C974.208 259.296 976.514 258.64 979.138 257.328C981.761 256.017 984.702 254.049 987.961 251.425V230.859Z" fill="white"/>
<path d="M943.21 249.902H946.003C943.125 259.762 935.931 264.692 924.421 264.692C917.015 264.692 910.773 262.174 905.695 257.138C900.66 252.102 898.142 245.437 898.142 237.143C898.142 228.637 900.871 221.739 906.33 216.449C911.789 211.16 918.243 208.515 925.69 208.515C930.176 208.515 934.302 209.509 938.068 211.498C941.835 213.445 943.718 215.836 943.718 218.671C943.718 219.729 943.358 220.724 942.639 221.655C941.962 222.586 940.967 223.051 939.655 223.051C936.862 223.051 935.148 221.422 934.514 218.163C934.006 215.709 933.223 213.995 932.165 213.022C931.065 212.048 928.928 211.562 925.754 211.562C920.083 211.562 915.809 213.53 912.932 217.465C910.096 221.401 908.679 227.325 908.679 235.239C908.679 243.406 910.202 249.796 913.249 254.408C916.338 259.021 920.993 261.327 927.214 261.327C935.593 261.327 940.925 257.519 943.21 249.902Z" fill="white"/>
<path d="M813.146 219.179C815.686 215.624 818.521 212.958 821.652 211.181C824.826 209.404 828.296 208.515 832.062 208.515C836.337 208.515 839.87 209.404 842.663 211.181C845.498 212.958 847.339 215.159 848.186 217.782C849.032 220.364 849.455 224.574 849.455 230.414V244.76C849.455 250.854 849.561 254.557 849.772 255.868C850.026 257.18 850.725 258.154 851.867 258.788C853.01 259.381 855.126 259.677 858.215 259.677V262.597H831.364V259.677H832.57C835.66 259.677 837.648 259.233 838.537 258.344C839.468 257.455 839.997 256.419 840.124 255.234C840.293 254.006 840.378 250.515 840.378 244.76V229.145C840.378 224.828 840.124 221.633 839.616 219.56C839.108 217.486 837.902 215.772 835.998 214.418C834.136 213.064 831.787 212.387 828.952 212.387C825.651 212.387 822.689 213.36 820.065 215.307C817.442 217.211 815.135 220.089 813.146 223.94V244.76C813.146 250.6 813.231 254.197 813.4 255.551C813.612 256.905 814.268 257.942 815.368 258.661C816.468 259.338 818.479 259.677 821.398 259.677V262.597H794.992V259.677H796.325C799.372 259.677 801.34 259.254 802.229 258.407C803.16 257.519 803.688 256.482 803.815 255.297C803.985 254.07 804.069 250.558 804.069 244.76V192.963C804.069 187.716 803.562 184.394 802.546 182.997C801.573 181.601 799.203 180.903 795.437 180.903V177.983C801.996 177.983 807.455 177.094 811.813 175.317H813.146V219.179Z" fill="white"/>
<path d="M789.66 213.53H773.981V244.95C773.981 249.775 774.193 253.033 774.616 254.726C775.039 256.376 775.928 257.709 777.282 258.725C778.679 259.74 780.16 260.248 781.726 260.248C784.772 260.248 787.417 258.513 789.66 255.043L791.691 256.249C790.38 259.042 788.433 261.158 785.852 262.597C783.312 263.993 780.731 264.692 778.107 264.692C775.061 264.692 772.373 263.803 770.046 262.026C767.761 260.206 766.322 258.09 765.729 255.678C765.179 253.266 764.904 249.034 764.904 242.983V213.53H757.351V210.61C760.821 210.525 763.931 209.065 766.682 206.23C769.432 203.394 771.188 199.417 771.95 194.296H773.981V210.61H789.66V213.53Z" fill="white"/>
<path d="M730.183 181.982C730.183 180.162 730.817 178.596 732.087 177.284C733.399 175.973 734.965 175.317 736.784 175.317C738.604 175.317 740.148 175.973 741.418 177.284C742.688 178.596 743.322 180.162 743.322 181.982C743.322 183.844 742.688 185.431 741.418 186.742C740.148 188.054 738.604 188.71 736.784 188.71C734.965 188.71 733.399 188.054 732.087 186.742C730.817 185.431 730.183 183.844 730.183 181.982ZM742.434 208.515V244.76C742.434 250.304 742.518 253.795 742.688 255.234C742.857 256.672 743.47 257.773 744.528 258.534C745.586 259.296 747.469 259.677 750.178 259.677H751.511V262.597H723.518V259.677H725.676C728.68 259.677 730.627 259.254 731.516 258.407C732.447 257.519 732.976 256.482 733.103 255.297C733.272 254.07 733.356 250.558 733.356 244.76V229.018C733.356 222.924 733.06 219.2 732.468 217.846C731.918 216.492 731.156 215.645 730.183 215.307C729.252 214.968 727.601 214.799 725.231 214.799H723.518V211.879C731.05 211.117 736.89 209.996 741.037 208.515H742.434Z" fill="white"/>
<path d="M695.778 264.628H692.922L677.434 223.368L661.628 264.628H658.835L642.966 223.368C641.146 218.671 639.792 215.857 638.903 214.926C638.015 213.995 636.237 213.53 633.571 213.53V210.61H657.312V213.53C654.646 213.53 652.826 213.783 651.853 214.291C650.879 214.757 650.393 215.582 650.393 216.767C650.393 217.613 651.218 220.089 652.868 224.194L663.405 252.06L679.528 210.61H682.004L697.619 252.06L709.045 222.543C710.272 219.412 710.886 217.529 710.886 216.894C710.886 214.82 708.749 213.699 704.475 213.53V210.61H721.359V213.53C719.328 213.572 717.72 213.974 716.535 214.736C715.393 215.455 714.335 217.105 713.361 219.687L711.965 223.368L695.778 264.628Z" fill="white"/>
<path d="M562.731 264.247V247.172H565.207C568.085 257.032 573.226 261.962 580.632 261.962C583.848 261.962 586.239 260.989 587.805 259.042C589.413 257.096 590.217 254.959 590.217 252.631C590.217 249.923 589.37 247.701 587.678 245.966C585.943 244.231 582.578 242.136 577.585 239.682C572.338 237.101 568.571 234.561 566.286 232.065C564.001 229.61 562.858 226.585 562.858 222.988C562.858 219.56 564.086 216.301 566.54 213.212C568.994 210.081 572.443 208.515 576.887 208.515C581.415 208.515 585.16 210.356 588.122 214.037C588.757 213.403 589.582 211.858 590.598 209.404H592.946V225.463H590.598C589.751 221.612 588.101 218.311 585.646 215.561C583.234 212.768 580.378 211.371 577.077 211.371C574.538 211.371 572.486 212.154 570.92 213.72C569.354 215.286 568.571 217.105 568.571 219.179C568.571 221.464 569.439 223.432 571.174 225.082C572.867 226.775 576.104 228.7 580.886 230.859C588.08 234.117 592.481 237.291 594.089 240.38C595.697 243.512 596.501 246.516 596.501 249.394C596.501 253.922 594.999 257.603 591.994 260.439C589.032 263.274 585.287 264.692 580.759 264.692C575.977 264.692 571.724 262.724 568 258.788C566.857 260.058 565.926 261.878 565.207 264.247H562.731Z" fill="white"/>
<path d="M552.512 228.193H516.267C516.097 230.689 516.013 232.551 516.013 233.779C516.013 242.919 517.43 249.796 520.266 254.408C523.143 258.979 527.417 261.264 533.088 261.264C540.79 261.264 546.249 257.815 549.465 250.917H552.512C551.158 255.234 548.47 258.619 544.45 261.073C540.43 263.486 536.05 264.692 531.311 264.692C526.91 264.692 522.741 263.591 518.806 261.391C514.912 259.148 511.717 255.995 509.221 251.933C506.724 247.87 505.476 242.94 505.476 237.143C505.476 228.933 507.888 222.12 512.712 216.703C517.536 211.244 523.566 208.515 530.803 208.515C537.616 208.515 542.884 210.588 546.608 214.736C550.332 218.883 552.3 223.368 552.512 228.193ZM541.403 225.654C541.53 224.68 541.594 223.813 541.594 223.051C541.594 219.327 540.493 216.449 538.293 214.418C536.135 212.345 533.469 211.308 530.295 211.308C522.593 211.308 518.002 216.09 516.521 225.654H541.403Z" fill="white"/>
<path d="M494.685 249.902H497.478C494.6 259.762 487.406 264.692 475.896 264.692C468.49 264.692 462.248 262.174 457.17 257.138C452.134 252.102 449.616 245.437 449.616 237.143C449.616 228.637 452.346 221.739 457.805 216.449C463.264 211.16 469.717 208.515 477.165 208.515C481.651 208.515 485.777 209.509 489.543 211.498C493.309 213.445 495.192 215.836 495.192 218.671C495.192 219.729 494.833 220.724 494.113 221.655C493.436 222.586 492.442 223.051 491.13 223.051C488.337 223.051 486.623 221.422 485.988 218.163C485.48 215.709 484.698 213.995 483.64 213.022C482.539 212.048 480.402 211.562 477.229 211.562C471.558 211.562 467.284 213.53 464.406 217.465C461.571 221.401 460.153 227.325 460.153 235.239C460.153 243.406 461.677 249.796 464.724 254.408C467.813 259.021 472.468 261.327 478.688 261.327C487.067 261.327 492.399 257.519 494.685 249.902Z" fill="white"/>
<path d="M393.82 208.515H395.534C396.507 211.139 397.058 214.714 397.185 219.242C400.231 215.645 403.426 212.958 406.77 211.181C410.113 209.404 413.604 208.515 417.243 208.515C421.39 208.515 424.776 209.382 427.399 211.117C430.065 212.852 431.779 214.99 432.541 217.529C433.303 220.025 433.684 223.686 433.684 228.51V244.76C433.684 250.769 433.789 254.43 434.001 255.741C434.213 257.053 434.868 258.048 435.969 258.725C437.111 259.36 439.185 259.677 442.189 259.677V262.597H415.593V259.677H416.799C419.846 259.677 421.835 259.233 422.766 258.344C423.697 257.455 424.226 256.419 424.353 255.234C424.479 254.049 424.543 250.558 424.543 244.76V228.002C424.543 223.897 424.331 220.977 423.908 219.242C423.527 217.465 422.448 215.899 420.671 214.545C418.936 213.191 416.714 212.514 414.006 212.514C410.917 212.514 407.954 213.445 405.119 215.307C402.326 217.127 399.681 219.877 397.185 223.559V244.76C397.185 250.769 397.29 254.43 397.502 255.741C397.756 257.053 398.433 258.048 399.533 258.725C400.676 259.36 402.771 259.677 405.817 259.677V262.597H379.538V259.677C382.458 259.677 384.489 259.381 385.632 258.788C386.774 258.196 387.473 257.307 387.727 256.122C388.023 254.895 388.171 251.108 388.171 244.76V229.272C388.171 223.22 388.044 219.56 387.79 218.29C387.578 216.978 386.901 216.005 385.759 215.37C384.659 214.693 382.585 214.355 379.538 214.355V211.435C384.193 210.927 388.954 209.954 393.82 208.515Z" fill="white"/>
<path d="M370.969 228.193H334.724C334.554 230.689 334.47 232.551 334.47 233.779C334.47 242.919 335.887 249.796 338.723 254.408C341.6 258.979 345.874 261.264 351.545 261.264C359.247 261.264 364.706 257.815 367.922 250.917H370.969C369.615 255.234 366.927 258.619 362.907 261.073C358.887 263.486 354.507 264.692 349.768 264.692C345.367 264.692 341.198 263.591 337.263 261.391C333.369 259.148 330.174 255.995 327.678 251.933C325.181 247.87 323.933 242.94 323.933 237.143C323.933 228.933 326.345 222.12 331.169 216.703C335.993 211.244 342.023 208.515 349.26 208.515C356.073 208.515 361.341 210.588 365.065 214.736C368.789 218.883 370.757 223.368 370.969 228.193ZM359.86 225.654C359.987 224.68 360.051 223.813 360.051 223.051C360.051 219.327 358.951 216.449 356.75 214.418C354.592 212.345 351.926 211.308 348.752 211.308C341.05 211.308 336.459 216.09 334.978 225.654H359.86Z" fill="white"/>
<path d="M295.241 181.982C295.241 180.162 295.876 178.596 297.146 177.284C298.457 175.973 300.023 175.317 301.843 175.317C303.662 175.317 305.207 175.973 306.477 177.284C307.746 178.596 308.381 180.162 308.381 181.982C308.381 183.844 307.746 185.431 306.477 186.742C305.207 188.054 303.662 188.71 301.843 188.71C300.023 188.71 298.457 188.054 297.146 186.742C295.876 185.431 295.241 183.844 295.241 181.982ZM307.492 208.515V244.76C307.492 250.304 307.577 253.795 307.746 255.234C307.915 256.672 308.529 257.773 309.587 258.534C310.645 259.296 312.528 259.677 315.236 259.677H316.569V262.597H288.576V259.677H290.734C293.739 259.677 295.686 259.254 296.574 258.407C297.505 257.519 298.034 256.482 298.161 255.297C298.33 254.07 298.415 250.558 298.415 244.76V229.018C298.415 222.924 298.119 219.2 297.526 217.846C296.976 216.492 296.215 215.645 295.241 215.307C294.31 214.968 292.66 214.799 290.29 214.799H288.576V211.879C296.109 211.117 301.949 209.996 306.096 208.515H307.492Z" fill="white"/>
<path d="M260.71 221.781C262.149 218.015 264.476 214.863 267.692 212.323C270.951 209.784 274.125 208.515 277.214 208.515C280.007 208.515 282.207 209.382 283.815 211.117C285.424 212.852 286.228 214.63 286.228 216.449C286.228 217.677 285.804 218.735 284.958 219.623C284.154 220.512 283.16 220.956 281.975 220.956C279.859 220.956 278.251 219.391 277.15 216.259C276.389 214.143 275.246 213.085 273.723 213.085C271.903 213.085 269.724 214.334 267.185 216.83C264.646 219.285 263.016 221.845 262.297 224.511C261.577 227.177 261.218 230.837 261.218 235.492V244.76C261.218 250.304 261.281 253.795 261.408 255.234C261.577 256.672 262.191 257.773 263.249 258.534C264.307 259.296 266.19 259.677 268.898 259.677H270.676V262.597H243.063V259.677H244.396C246.936 259.677 248.734 259.338 249.792 258.661C250.892 257.942 251.548 256.948 251.76 255.678C251.971 254.408 252.077 250.769 252.077 244.76V230.097C252.077 224.511 251.993 221.02 251.823 219.623C251.696 218.184 251.104 217.084 250.046 216.323C248.988 215.518 247.105 215.116 244.396 215.116H243.063V212.26C247.041 211.795 252.246 210.546 258.679 208.515C259.906 211.858 260.583 216.28 260.71 221.781Z" fill="white"/>
<path d="M234.113 228.193H197.868C197.699 230.689 197.614 232.551 197.614 233.779C197.614 242.919 199.032 249.796 201.867 254.408C204.745 258.979 209.019 261.264 214.689 261.264C222.391 261.264 227.85 257.815 231.066 250.917H234.113C232.759 255.234 230.072 258.619 226.052 261.073C222.032 263.486 217.652 264.692 212.912 264.692C208.511 264.692 204.343 263.591 200.407 261.391C196.514 259.148 193.319 255.995 190.822 251.933C188.326 247.87 187.077 242.94 187.077 237.143C187.077 228.933 189.489 222.12 194.313 216.703C199.138 211.244 205.168 208.515 212.404 208.515C219.217 208.515 224.486 210.588 228.21 214.736C231.934 218.883 233.902 223.368 234.113 228.193ZM223.005 225.654C223.132 224.68 223.195 223.813 223.195 223.051C223.195 219.327 222.095 216.449 219.895 214.418C217.736 212.345 215.07 211.308 211.896 211.308C204.195 211.308 199.603 216.09 198.122 225.654H223.005Z" fill="white"/>
<path d="M130.456 208.515H132.17C132.889 210.885 133.249 213.741 133.249 217.084C135.957 214.207 138.856 212.07 141.945 210.673C145.077 209.234 148.378 208.515 151.848 208.515C159.042 208.515 165.03 211.054 169.812 216.132C174.593 221.168 176.984 227.833 176.984 236.127C176.984 244.252 174.572 251.044 169.748 256.503C164.966 261.962 158.661 264.692 150.832 264.692C147.616 264.692 144.527 264.036 141.564 262.724C138.645 261.454 135.873 259.55 133.249 257.011V276.752C133.249 282.761 133.355 286.422 133.566 287.734C133.82 289.045 134.497 290.019 135.598 290.654C136.698 291.331 138.75 291.669 141.755 291.669V294.589H114.587V291.669H116.491C119.496 291.669 121.442 291.225 122.331 290.336C123.262 289.49 123.791 288.453 123.918 287.226C124.087 286.041 124.172 282.55 124.172 276.752V229.526C124.172 223.982 124.087 220.491 123.918 219.052C123.791 217.613 123.199 216.513 122.141 215.751C121.083 214.99 119.2 214.609 116.491 214.609H114.587V211.689C118.776 211.266 124.066 210.208 130.456 208.515ZM133.249 252.822C135.534 255.615 137.946 257.73 140.485 259.169C143.067 260.566 145.775 261.264 148.61 261.264C153.392 261.264 157.561 259.212 161.115 255.107C164.67 251.002 166.447 244.464 166.447 235.492C166.447 227.706 164.733 221.887 161.306 218.036C157.878 214.185 153.794 212.26 149.055 212.26C146.135 212.26 143.363 213.001 140.739 214.482C138.116 215.963 135.619 218.206 133.249 221.21V252.822Z" fill="white"/>
<path d="M86.9111 233.08L101.511 251.425C104.05 254.599 106.145 256.757 107.795 257.9C109.488 259 111.498 259.592 113.825 259.677V262.597H87.8633V259.677C92.1374 259.677 94.2744 258.852 94.2744 257.201C94.2744 256.524 93.3011 255.064 91.3545 252.822L81.0713 240.063L71.5498 251.362C69.2223 254.07 68.0586 255.763 68.0586 256.44C68.0586 258.556 70.4072 259.635 75.1045 259.677V262.597H53.7129V259.677C55.5749 259.677 57.6273 259.19 59.8701 258.217C62.113 257.244 65.0117 254.662 68.5664 250.473L79.2939 237.778L67.8047 223.241C64.5462 219.094 62.0706 216.449 60.3779 215.307C58.6852 214.122 56.6963 213.53 54.4111 213.53V210.61H78.9131V213.53C75.4007 213.53 73.6445 214.312 73.6445 215.878C73.6445 216.598 74.4274 217.888 75.9932 219.75L85.1338 231.049L93.5762 221.147C95.4805 218.862 96.4326 217.444 96.4326 216.894C96.4326 214.651 94.1051 213.53 89.4502 213.53V210.61H110.08V213.53C105.933 213.656 101.638 216.259 97.1943 221.337L86.9111 233.08Z" fill="white"/>
<path d="M48.3809 228.193H12.1357C11.9665 230.689 11.8818 232.551 11.8818 233.779C11.8818 242.919 13.2995 249.796 16.1348 254.408C19.0124 258.979 23.2865 261.264 28.957 261.264C36.6589 261.264 42.1178 257.815 45.334 250.917H48.3809C47.0267 255.234 44.3395 258.619 40.3193 261.073C36.2992 263.486 31.9193 264.692 27.1797 264.692C22.7786 264.692 18.6104 263.591 14.6748 261.391C10.7816 259.148 7.58659 255.995 5.08984 251.933C2.5931 247.87 1.34473 242.94 1.34473 237.143C1.34473 228.933 3.75684 222.12 8.58105 216.703C13.4053 211.244 19.4355 208.515 26.6719 208.515C33.485 208.515 38.7536 210.588 42.4775 214.736C46.2015 218.883 48.1693 223.368 48.3809 228.193ZM37.2725 225.654C37.3994 224.68 37.4629 223.813 37.4629 223.051C37.4629 219.327 36.3626 216.449 34.1621 214.418C32.0039 212.345 29.3379 211.308 26.1641 211.308C18.4622 211.308 13.8708 216.09 12.3896 225.654H37.2725Z" fill="white"/>
<path d="M1412.17 61.7815C1413.61 58.0152 1415.94 54.8625 1419.16 52.3235C1422.42 49.7844 1425.59 48.5149 1428.68 48.5149C1431.47 48.5149 1433.67 49.3824 1435.28 51.1174C1436.89 52.8525 1437.69 54.6298 1437.69 56.4495C1437.69 57.6767 1437.27 58.7346 1436.42 59.6233C1435.62 60.512 1434.62 60.9563 1433.44 60.9563C1431.32 60.9563 1429.72 59.3905 1428.62 56.259C1427.85 54.1431 1426.71 53.0852 1425.19 53.0852C1423.37 53.0852 1421.19 54.3336 1418.65 56.8303C1416.11 59.2847 1414.48 61.845 1413.76 64.511C1413.04 67.177 1412.68 70.8375 1412.68 75.4924V84.76C1412.68 90.3036 1412.75 93.7948 1412.87 95.2336C1413.04 96.6724 1413.66 97.7727 1414.71 98.5344C1415.77 99.2961 1417.65 99.677 1420.36 99.677H1422.14V102.597H1394.53V99.677H1395.86C1398.4 99.677 1400.2 99.3385 1401.26 98.6614C1402.36 97.942 1403.01 96.9475 1403.22 95.678C1403.44 94.4084 1403.54 90.7691 1403.54 84.76V70.0969C1403.54 64.511 1403.46 61.0198 1403.29 59.6233C1403.16 58.1845 1402.57 57.0842 1401.51 56.3225C1400.45 55.5185 1398.57 55.1165 1395.86 55.1165H1394.53V52.26C1398.51 51.7945 1403.71 50.5461 1410.14 48.5149C1411.37 51.858 1412.05 56.2802 1412.17 61.7815Z" fill="white"/>
<path d="M1385.58 68.1926H1349.33C1349.16 70.6894 1349.08 72.5514 1349.08 73.7786C1349.08 82.9192 1350.5 89.7958 1353.33 94.4084C1356.21 98.9788 1360.48 101.264 1366.15 101.264C1373.86 101.264 1379.32 97.815 1382.53 90.9172H1385.58C1384.22 95.2336 1381.54 98.6191 1377.52 101.073C1373.5 103.486 1369.12 104.692 1364.38 104.692C1359.98 104.692 1355.81 103.591 1351.87 101.391C1347.98 99.148 1344.78 95.9954 1342.29 91.9329C1339.79 87.8704 1338.54 82.9403 1338.54 77.1428C1338.54 68.9332 1340.95 62.12 1345.78 56.7034C1350.6 51.2444 1356.63 48.5149 1363.87 48.5149C1370.68 48.5149 1375.95 50.5885 1379.67 54.7356C1383.4 58.8827 1385.37 63.3684 1385.58 68.1926ZM1374.47 65.6536C1374.6 64.6803 1374.66 63.8127 1374.66 63.051C1374.66 59.3271 1373.56 56.4495 1371.36 54.4182C1369.2 52.3446 1366.54 51.3079 1363.36 51.3079C1355.66 51.3079 1351.07 56.0898 1349.59 65.6536H1374.47Z" fill="white"/>
<path d="M1295.5 104.247V87.1721H1297.98C1300.86 97.0321 1306 101.962 1313.41 101.962C1316.62 101.962 1319.01 100.989 1320.58 99.0422C1322.19 97.0956 1322.99 94.9586 1322.99 92.6311C1322.99 89.9228 1322.14 87.7011 1320.45 85.9661C1318.72 84.231 1315.35 82.1363 1310.36 79.6819C1305.11 77.1005 1301.34 74.5614 1299.06 72.0647C1296.77 69.6103 1295.63 66.5846 1295.63 62.9875C1295.63 59.5598 1296.86 56.3014 1299.31 53.2122C1301.77 50.0806 1305.22 48.5149 1309.66 48.5149C1314.19 48.5149 1317.93 50.3557 1320.9 54.0374C1321.53 53.4026 1322.36 51.858 1323.37 49.4036H1325.72V65.4631H1323.37C1322.52 61.6122 1320.87 58.3114 1318.42 55.5608C1316.01 52.7678 1313.15 51.3713 1309.85 51.3713C1307.31 51.3713 1305.26 52.1542 1303.69 53.72C1302.13 55.2857 1301.34 57.1054 1301.34 59.179C1301.34 61.4641 1302.21 63.4319 1303.95 65.0823C1305.64 66.775 1308.88 68.7004 1313.66 70.8586C1320.85 74.1171 1325.25 77.2909 1326.86 80.3801C1328.47 83.5116 1329.27 86.5162 1329.27 89.3938C1329.27 93.9218 1327.77 97.6034 1324.77 100.439C1321.81 103.274 1318.06 104.692 1313.53 104.692C1308.75 104.692 1304.5 102.724 1300.77 98.7883C1299.63 100.058 1298.7 101.878 1297.98 104.247H1295.5Z" fill="white"/>
<path d="M1278.94 50.6096V84.6965C1278.94 90.3671 1279.02 93.9218 1279.19 95.3606C1279.36 96.7994 1279.97 97.8785 1281.03 98.5979C1282.13 99.3173 1284.08 99.677 1286.87 99.677V102.597C1280.44 102.682 1275.74 103.359 1272.78 104.628H1272.02C1270.66 102.301 1269.94 98.2805 1269.86 92.5676C1267.28 96.5878 1264.32 99.6135 1260.97 101.645C1257.67 103.676 1254.01 104.692 1249.99 104.692C1246.52 104.692 1243.45 103.909 1240.79 102.343C1238.12 100.735 1236.28 98.7883 1235.27 96.5032C1234.29 94.218 1233.81 90.7691 1233.81 86.1565V68.4465C1233.81 62.4374 1233.7 58.7769 1233.49 57.4651C1233.28 56.1109 1232.6 55.1165 1231.46 54.4817C1230.36 53.8469 1228.3 53.5295 1225.3 53.5295V50.6096H1242.95V86.6643C1242.95 90.219 1243.16 92.8004 1243.58 94.4084C1244 96.0165 1245.08 97.4342 1246.82 98.6614C1248.55 99.8463 1250.56 100.439 1252.85 100.439C1256.11 100.439 1259.22 99.3808 1262.18 97.2649C1265.14 95.1067 1267.15 92.8427 1268.21 90.4729C1269.31 88.0608 1269.86 84.6331 1269.86 80.1897V68.4465C1269.86 62.776 1269.8 59.3271 1269.67 58.0999C1269.54 56.8726 1268.99 55.8147 1268.02 54.926C1267.09 53.995 1265.12 53.5295 1262.12 53.5295H1260.78V50.6096H1278.94Z" fill="white"/>
<path d="M1184.99 68.1926H1148.75C1148.58 70.6894 1148.49 72.5514 1148.49 73.7786C1148.49 82.9192 1149.91 89.7958 1152.75 94.4084C1155.62 98.9788 1159.9 101.264 1165.57 101.264C1173.27 101.264 1178.73 97.815 1181.95 90.9172H1184.99C1183.64 95.2336 1180.95 98.6191 1176.93 101.073C1172.91 103.486 1168.53 104.692 1163.79 104.692C1159.39 104.692 1155.22 103.591 1151.29 101.391C1147.39 99.148 1144.2 95.9954 1141.7 91.9329C1139.2 87.8704 1137.96 82.9403 1137.96 77.1428C1137.96 68.9332 1140.37 62.12 1145.19 56.7034C1150.02 51.2444 1156.05 48.5149 1163.28 48.5149C1170.1 48.5149 1175.36 50.5885 1179.09 54.7356C1182.81 58.8827 1184.78 63.3684 1184.99 68.1926ZM1173.88 65.6536C1174.01 64.6803 1174.07 63.8127 1174.07 63.051C1174.07 59.3271 1172.97 56.4495 1170.77 54.4182C1168.62 52.3446 1165.95 51.3079 1162.78 51.3079C1155.07 51.3079 1150.48 56.0898 1149 65.6536H1173.88Z" fill="white"/>
<path d="M1121.77 50.6096V84.6965C1121.77 90.3671 1121.85 93.9218 1122.02 95.3606C1122.19 96.7994 1122.81 97.8785 1123.86 98.5979C1124.96 99.3173 1126.91 99.677 1129.7 99.677V102.597C1123.27 102.682 1118.57 103.359 1115.61 104.628H1114.85C1113.5 102.301 1112.78 98.2805 1112.69 92.5676C1110.11 96.5878 1107.15 99.6135 1103.81 101.645C1100.5 103.676 1096.84 104.692 1092.82 104.692C1089.35 104.692 1086.29 103.909 1083.62 102.343C1080.95 100.735 1079.11 98.7883 1078.1 96.5032C1077.12 94.218 1076.64 90.7691 1076.64 86.1565V68.4465C1076.64 62.4374 1076.53 58.7769 1076.32 57.4651C1076.11 56.1109 1075.43 55.1165 1074.29 54.4817C1073.19 53.8469 1071.14 53.5295 1068.13 53.5295V50.6096H1085.78V86.6643C1085.78 90.219 1085.99 92.8004 1086.41 94.4084C1086.84 96.0165 1087.92 97.4342 1089.65 98.6614C1091.39 99.8463 1093.4 100.439 1095.68 100.439C1098.94 100.439 1102.05 99.3808 1105.01 97.2649C1107.97 95.1067 1109.98 92.8427 1111.04 90.4729C1112.14 88.0608 1112.69 84.6331 1112.69 80.1897V68.4465C1112.69 62.776 1112.63 59.3271 1112.5 58.0999C1112.38 56.8726 1111.82 55.8147 1110.85 54.926C1109.92 53.995 1107.95 53.5295 1104.95 53.5295H1103.62V50.6096H1121.77Z" fill="white"/>
<path d="M1053.02 48.5149H1055.12V116.752C1055.12 122.296 1055.18 125.787 1055.31 127.226C1055.48 128.665 1056.09 129.765 1057.15 130.527C1058.21 131.288 1060.09 131.669 1062.8 131.669H1064.2V134.589H1036.2V131.669H1038.3C1040.84 131.669 1042.64 131.331 1043.69 130.654C1044.79 129.976 1045.45 128.982 1045.66 127.67C1045.87 126.401 1045.98 122.761 1045.98 116.752V98.1536C1042.93 100.312 1039.84 101.941 1036.71 103.041C1033.62 104.142 1030.47 104.692 1027.25 104.692C1020.02 104.692 1013.99 102.216 1009.16 97.2649C1004.38 92.3137 1001.99 85.7122 1001.99 77.4602C1001.99 68.7851 1004.66 61.8027 1009.99 56.5129C1015.36 51.1809 1021.41 48.5149 1028.14 48.5149C1030.98 48.5149 1033.88 49.0862 1036.84 50.2288C1039.84 51.329 1042.89 53.0217 1045.98 55.3069C1048.31 53.7834 1050.65 51.5194 1053.02 48.5149ZM1045.98 59.2424C1043.48 56.9573 1040.9 55.2434 1038.23 54.1008C1035.61 52.9583 1032.92 52.387 1030.17 52.387C1025.35 52.387 1021.2 54.2701 1017.73 58.0364C1014.26 61.8027 1012.53 68.4677 1012.53 78.0315C1012.53 85.7756 1014.01 91.6155 1016.97 95.551C1019.97 99.4443 1024.12 101.391 1029.41 101.391C1032.25 101.391 1035.04 100.883 1037.79 99.8674C1040.54 98.8095 1043.27 97.2437 1045.98 95.1702V59.2424Z" fill="white"/>
<path d="M973.679 21.9817C973.679 20.162 974.313 18.5963 975.583 17.2844C976.895 15.9726 978.461 15.3167 980.28 15.3167C982.1 15.3167 983.645 15.9726 984.914 17.2844C986.184 18.5963 986.818 20.162 986.818 21.9817C986.818 23.8437 986.184 25.4306 984.914 26.7424C983.645 28.0543 982.1 28.7102 980.28 28.7102C978.461 28.7102 976.895 28.0543 975.583 26.7424C974.313 25.4306 973.679 23.8437 973.679 21.9817ZM985.93 48.5149V84.76C985.93 90.3036 986.014 93.7948 986.184 95.2336C986.353 96.6724 986.966 97.7727 988.024 98.5344C989.082 99.2961 990.965 99.677 993.674 99.677H995.007V102.597H967.014V99.677H969.172C972.176 99.677 974.123 99.2538 975.012 98.4075C975.943 97.5188 976.472 96.482 976.599 95.2971C976.768 94.0699 976.853 90.5575 976.853 84.76V69.0178C976.853 62.9241 976.556 59.2001 975.964 57.8459C975.414 56.4918 974.652 55.6454 973.679 55.3069C972.748 54.9683 971.097 54.7991 968.728 54.7991H967.014V51.8792C974.546 51.1174 980.386 49.996 984.533 48.5149H985.93Z" fill="white"/>
<path d="M913.82 48.5149H915.534C916.507 51.1386 917.058 54.7144 917.185 59.2424C920.231 55.6454 923.426 52.9583 926.77 51.1809C930.113 49.4036 933.604 48.5149 937.243 48.5149C941.39 48.5149 944.776 49.3824 947.399 51.1174C950.065 52.8525 951.779 54.9895 952.541 57.5286C953.303 60.0253 953.684 63.6858 953.684 68.51V84.76C953.684 90.7691 953.789 94.4296 954.001 95.7415C954.213 97.0533 954.868 98.0478 955.969 98.7249C957.111 99.3596 959.185 99.677 962.189 99.677V102.597H935.593V99.677H936.799C939.846 99.677 941.835 99.2327 942.766 98.344C943.697 97.4553 944.226 96.4185 944.353 95.2336C944.479 94.0487 944.543 90.5575 944.543 84.76V68.0022C944.543 63.8974 944.331 60.9775 943.908 59.2424C943.527 57.4651 942.448 55.8993 940.671 54.5452C938.936 53.191 936.714 52.5139 934.006 52.5139C930.917 52.5139 927.954 53.4449 925.119 55.3069C922.326 57.1265 919.681 59.8772 917.185 63.5588V84.76C917.185 90.7691 917.29 94.4296 917.502 95.7415C917.756 97.0533 918.433 98.0478 919.533 98.7249C920.676 99.3596 922.771 99.677 925.817 99.677V102.597H899.538V99.677C902.458 99.677 904.489 99.3808 905.632 98.7883C906.774 98.1959 907.473 97.3072 907.727 96.1223C908.023 94.8951 908.171 91.1077 908.171 84.76V69.2717C908.171 63.2203 908.044 59.5598 907.79 58.2903C907.578 56.9784 906.901 56.0051 905.759 55.3704C904.659 54.6933 902.585 54.3547 899.538 54.3547V51.4348C904.193 50.927 908.954 49.9537 913.82 48.5149Z" fill="white"/>
<path d="M884.621 50.6096V84.6965C884.621 90.3671 884.706 93.9218 884.875 95.3606C885.044 96.7994 885.658 97.8785 886.716 98.5979C887.816 99.3173 889.763 99.677 892.556 99.677V102.597C886.123 102.682 881.426 103.359 878.464 104.628H877.702C876.348 102.301 875.629 98.2805 875.544 92.5676C872.963 96.5878 870 99.6135 866.657 101.645C863.356 103.676 859.696 104.692 855.676 104.692C852.206 104.692 849.138 103.909 846.472 102.343C843.806 100.735 841.965 98.7883 840.949 96.5032C839.976 94.218 839.489 90.7691 839.489 86.1565V68.4465C839.489 62.4374 839.383 58.7769 839.172 57.4651C838.96 56.1109 838.283 55.1165 837.141 54.4817C836.04 53.8469 833.988 53.5295 830.983 53.5295V50.6096H848.63V86.6643C848.63 90.219 848.841 92.8004 849.265 94.4084C849.688 96.0165 850.767 97.4342 852.502 98.6614C854.237 99.8463 856.247 100.439 858.532 100.439C861.791 100.439 864.901 99.3808 867.863 97.2649C870.826 95.1067 872.836 92.8427 873.894 90.4729C874.994 88.0608 875.544 84.6331 875.544 80.1897V68.4465C875.544 62.776 875.48 59.3271 875.354 58.0999C875.227 56.8726 874.676 55.8147 873.703 54.926C872.772 53.995 870.804 53.5295 867.8 53.5295H866.467V50.6096H884.621Z" fill="white"/>
<path d="M744.465 48.5149H746.179C747.152 51.1386 747.702 54.7144 747.829 59.2424C750.876 55.6454 754.071 52.9583 757.414 51.1809C760.757 49.4036 764.248 48.5149 767.888 48.5149C772.035 48.5149 775.42 49.3824 778.044 51.1174C780.71 52.8525 782.424 54.9895 783.186 57.5286C783.947 60.0253 784.328 63.6858 784.328 68.51V84.76C784.328 90.7691 784.434 94.4296 784.646 95.7415C784.857 97.0533 785.513 98.0478 786.613 98.7249C787.756 99.3596 789.829 99.677 792.834 99.677V102.597H766.237V99.677H767.443C770.49 99.677 772.479 99.2327 773.41 98.344C774.341 97.4553 774.87 96.4185 774.997 95.2336C775.124 94.0487 775.188 90.5575 775.188 84.76V68.0022C775.188 63.8974 774.976 60.9775 774.553 59.2424C774.172 57.4651 773.093 55.8993 771.315 54.5452C769.58 53.191 767.359 52.5139 764.65 52.5139C761.561 52.5139 758.599 53.4449 755.764 55.3069C752.971 57.1265 750.326 59.8772 747.829 63.5588V84.76C747.829 90.7691 747.935 94.4296 748.146 95.7415C748.4 97.0533 749.077 98.0478 750.178 98.7249C751.32 99.3596 753.415 99.677 756.462 99.677V102.597H730.183V99.677C733.103 99.677 735.134 99.3808 736.276 98.7883C737.419 98.1959 738.117 97.3072 738.371 96.1223C738.667 94.8951 738.815 91.1077 738.815 84.76V69.2717C738.815 63.2203 738.688 59.5598 738.435 58.2903C738.223 56.9784 737.546 56.0051 736.403 55.3704C735.303 54.6933 733.229 54.3547 730.183 54.3547V51.4348C734.838 50.927 739.598 49.9537 744.465 48.5149Z" fill="white"/>
<path d="M710.188 55.1799C713.785 51.1174 717.424 49.0862 721.105 49.0862C723.137 49.0862 724.702 49.6363 725.803 50.7366C726.945 51.8368 727.517 53.0429 727.517 54.3547C727.517 57.1477 726.247 58.5442 723.708 58.5442C722.312 58.5442 721.105 57.6767 720.09 55.9417C719.159 54.3336 718.186 53.5295 717.17 53.5295C715.562 53.5295 713.785 54.6298 711.838 56.8303C714.038 60.3004 715.139 63.982 715.139 67.8752C715.139 72.9534 713.319 77.439 709.68 81.3323C706.04 85.2678 699.904 87.3837 691.271 87.6799C682.3 87.9762 677.814 89.7958 677.814 93.1389C677.814 94.7047 678.83 95.8049 680.861 96.4397C682.85 97.1168 687.04 97.6246 693.43 97.9631C700.412 98.3017 705.786 98.9576 709.553 99.9309C713.319 100.862 716.324 102.766 718.566 105.644C720.809 108.521 721.931 111.949 721.931 115.927C721.931 121.513 719.646 126.02 715.075 129.448C710.505 132.875 703.924 134.589 695.334 134.589C687.463 134.589 681.158 133.066 676.418 130.019C671.678 126.972 669.309 123.121 669.309 118.466C669.309 115.885 669.986 113.769 671.34 112.118C672.694 110.468 674.619 109.643 677.116 109.643C677.793 109.643 678.407 109.749 678.957 109.96C676.333 112.838 675.021 115.885 675.021 119.101C675.021 122.825 676.757 125.893 680.227 128.305C683.739 130.759 688.965 131.987 695.905 131.987C702.084 131.987 706.887 130.738 710.314 128.241C713.785 125.787 715.52 122.634 715.52 118.783C715.52 114.552 713.975 111.568 710.886 109.833C707.797 108.141 702.295 107.125 694.382 106.786C685.284 106.406 679.38 105.284 676.672 103.422C673.964 101.602 672.609 99.2538 672.609 96.3762C672.609 90.8326 676.481 87.3414 684.226 85.9026C680.205 83.5328 677.18 80.8245 675.148 77.7776C673.117 74.7307 672.102 71.3241 672.102 67.5579C672.102 62.2681 674.175 57.7825 678.322 54.1008C682.512 50.3769 687.463 48.5149 693.176 48.5149C700.243 48.5149 705.913 50.7366 710.188 55.1799ZM681.623 69.0178C681.623 74.4768 682.744 78.4758 684.987 81.0149C687.23 83.554 690.087 84.8235 693.557 84.8235C696.773 84.8235 699.523 83.5751 701.809 81.0784C704.136 78.5393 705.3 74.1594 705.3 67.9387C705.3 61.6757 704.073 57.3593 701.618 54.9895C699.164 52.6197 696.392 51.4348 693.303 51.4348C689.41 51.4348 686.49 52.8948 684.543 55.8147C682.596 58.7346 681.623 63.1357 681.623 69.0178Z" fill="white"/>
<path d="M641.823 21.9817C641.823 20.162 642.458 18.5963 643.728 17.2844C645.039 15.9726 646.605 15.3167 648.425 15.3167C650.244 15.3167 651.789 15.9726 653.059 17.2844C654.328 18.5963 654.963 20.162 654.963 21.9817C654.963 23.8437 654.328 25.4306 653.059 26.7424C651.789 28.0543 650.244 28.7102 648.425 28.7102C646.605 28.7102 645.039 28.0543 643.728 26.7424C642.458 25.4306 641.823 23.8437 641.823 21.9817ZM654.074 48.5149V84.76C654.074 90.3036 654.159 93.7948 654.328 95.2336C654.497 96.6724 655.111 97.7727 656.169 98.5344C657.227 99.2961 659.11 99.677 661.818 99.677H663.151V102.597H635.158V99.677H637.316C640.321 99.677 642.268 99.2538 643.156 98.4075C644.087 97.5188 644.616 96.482 644.743 95.2971C644.912 94.0699 644.997 90.5575 644.997 84.76V69.0178C644.997 62.9241 644.701 59.2001 644.108 57.8459C643.558 56.4918 642.797 55.6454 641.823 55.3069C640.892 54.9683 639.242 54.7991 636.872 54.7991H635.158V51.8792C642.691 51.1174 648.531 49.996 652.678 48.5149H654.074Z" fill="white"/>
<path d="M594.978 104.247V87.1721H597.453C600.331 97.0321 605.472 101.962 612.878 101.962C616.094 101.962 618.485 100.989 620.051 99.0422C621.659 97.0956 622.463 94.9586 622.463 92.6311C622.463 89.9228 621.617 87.7011 619.924 85.9661C618.189 84.231 614.825 82.1363 609.831 79.6819C604.584 77.1005 600.817 74.5614 598.532 72.0647C596.247 69.6103 595.104 66.5846 595.104 62.9875C595.104 59.5598 596.332 56.3014 598.786 53.2122C601.241 50.0806 604.689 48.5149 609.133 48.5149C613.661 48.5149 617.406 50.3557 620.368 54.0374C621.003 53.4026 621.828 51.858 622.844 49.4036H625.192V65.4631H622.844C621.997 61.6122 620.347 58.3114 617.893 55.5608C615.48 52.7678 612.624 51.3713 609.323 51.3713C606.784 51.3713 604.732 52.1542 603.166 53.72C601.6 55.2857 600.817 57.1054 600.817 59.179C600.817 61.4641 601.685 63.4319 603.42 65.0823C605.113 66.775 608.35 68.7004 613.132 70.8586C620.326 74.1171 624.727 77.2909 626.335 80.3801C627.943 83.5116 628.747 86.5162 628.747 89.3938C628.747 93.9218 627.245 97.6034 624.24 100.439C621.278 103.274 617.533 104.692 613.005 104.692C608.223 104.692 603.97 102.724 600.246 98.7883C599.104 100.058 598.173 101.878 597.453 104.247H594.978Z" fill="white"/>
<path d="M584.758 68.1926H548.513C548.343 70.6894 548.259 72.5514 548.259 73.7786C548.259 82.9192 549.676 89.7958 552.512 94.4084C555.389 98.9788 559.663 101.264 565.334 101.264C573.036 101.264 578.495 97.815 581.711 90.9172H584.758C583.404 95.2336 580.716 98.6191 576.696 101.073C572.676 103.486 568.296 104.692 563.557 104.692C559.156 104.692 554.987 103.591 551.052 101.391C547.159 99.148 543.964 95.9954 541.467 91.9329C538.97 87.8704 537.722 82.9403 537.722 77.1428C537.722 68.9332 540.134 62.12 544.958 56.7034C549.782 51.2444 555.812 48.5149 563.049 48.5149C569.862 48.5149 575.131 50.5885 578.854 54.7356C582.578 58.8827 584.546 63.3684 584.758 68.1926ZM573.649 65.6536C573.776 64.6803 573.84 63.8127 573.84 63.051C573.84 59.3271 572.74 56.4495 570.539 54.4182C568.381 52.3446 565.715 51.3079 562.541 51.3079C554.839 51.3079 550.248 56.0898 548.767 65.6536H573.649Z" fill="white"/>
<path d="M513.854 56.1321V35.8196C513.854 30.276 513.77 26.7847 513.601 25.3459C513.474 23.9071 512.881 22.8069 511.823 22.0452C510.765 21.2834 508.882 20.9026 506.174 20.9026H504.841V17.9827C509.961 17.8557 515.568 16.967 521.662 15.3167H522.995V85.2043C522.995 91.2558 523.101 94.9374 523.312 96.2493C523.524 97.5611 524.18 98.5344 525.28 99.1692C526.423 99.804 528.518 100.121 531.564 100.121V103.041C525.428 103.168 519.969 103.718 515.188 104.692C514.68 102.703 514.426 99.5712 514.426 95.2971C511.294 98.4286 508.057 100.777 504.714 102.343C501.413 103.909 497.985 104.692 494.431 104.692C487.702 104.692 481.883 101.983 476.975 96.5667C472.108 91.15 469.675 84.5907 469.675 76.8889C469.675 68.4254 472.172 61.5911 477.165 56.386C482.159 51.1386 488.104 48.5149 495.002 48.5149C498.514 48.5149 501.836 49.1497 504.968 50.4192C508.099 51.6887 511.062 53.593 513.854 56.1321ZM513.854 59.8137C511.062 57.4016 508.247 55.6031 505.412 54.4182C502.619 53.191 499.805 52.5774 496.97 52.5774C492.188 52.5774 488.189 54.4182 484.973 58.0999C481.799 61.7815 480.212 67.7906 480.212 76.1272C480.212 84.5907 481.841 90.8326 485.1 94.8528C488.4 98.873 492.463 100.883 497.287 100.883C500.503 100.883 503.487 100.121 506.237 98.5979C508.988 97.0745 511.527 94.7893 513.854 91.7424V59.8137Z" fill="white"/>
<path d="M389.821 19.4426V16.5227H429.177V19.4426H427.336C423.104 19.4426 420.332 19.8023 419.021 20.5217C417.709 21.1988 416.82 22.4895 416.354 24.3938C415.931 26.2981 415.72 30.8261 415.72 37.9778V80.1897C415.72 86.9605 415.868 91.4039 416.164 93.5198C416.503 95.5933 417.349 97.1379 418.703 98.1536C420.1 99.1692 422.744 99.677 426.638 99.677H429.177V102.597H389.821V99.677H392.36C396.042 99.677 398.581 99.2115 399.978 98.2805C401.416 97.3495 402.326 95.9107 402.707 93.9641C403.088 91.9752 403.278 87.3837 403.278 80.1897V37.9778C403.278 31.1223 403.088 26.7001 402.707 24.7112C402.326 22.7222 401.48 21.3469 400.168 20.5852C398.856 19.8235 396.021 19.4426 391.662 19.4426H389.821Z" fill="white"/>
<path d="M328.503 127.353V124.179C332.989 122.867 336.48 120.561 338.977 117.26C341.473 114.002 342.722 110.722 342.722 107.421C342.722 104.628 341.833 103.232 340.056 103.232C339.717 103.232 339.167 103.337 338.405 103.549C337.771 103.761 337.178 103.866 336.628 103.866C334.724 103.866 333.137 103.316 331.867 102.216C330.598 101.073 329.963 99.5924 329.963 97.7727C329.963 95.8261 330.576 94.218 331.804 92.9485C333.031 91.679 334.618 91.0442 336.564 91.0442C339.569 91.0442 342.002 92.4407 343.864 95.2336C345.769 97.9843 346.721 101.222 346.721 104.946C346.721 110.32 345.07 115.038 341.77 119.101C338.511 123.163 334.089 125.914 328.503 127.353Z" fill="white"/>
<path d="M4.65634 89.3073C19.4227 81.0986 32.8782 70.5431 48.1436 52.5761C58.5344 40.3111 64.1209 26.3065 64.3869 16.647C64.5199 9.46458 61.0178 4.01587 54.544 4.01587C47.3613 4.01587 42.8389 9.46458 40.0457 21.9719C36.9864 35.7175 34.7252 51.4901 29.0057 102.067" stroke="white" stroke-width="7.98073" stroke-linecap="round"/>
<path d="M29.5662 97.1236C32.4945 71.3829 43.637 52.586 57.8693 52.586C66.3821 52.586 71.7923 59.3696 70.2561 69.0795C69.3913 74.799 68.3889 80.6515 67.2209 87.4352C65.8595 95.9479 69.7507 102.599 81.5404 102.599C98.7339 102.599 117.491 93.0438 127.091 78.2448C130.361 73.2029 131.691 68.6804 131.824 64.291C131.957 56.3103 127.435 50.3248 119.454 50.3248C109.345 50.3248 101.63 61.7638 101.63 76.3951C101.63 92.0906 110.143 103.131 128.222 103.131C152.803 103.131 180.031 73.6222 192.542 40.6916C196.074 31.3937 197.399 22.76 197.399 16.7267C197.399 9.57294 195.138 4.07991 188.753 4.07991C182.502 4.07991 178.378 8.93422 174.654 16.5989C170.29 25.4885 167.063 38.3103 165.742 52.8041C162.417 89.1723 169.866 102.599 187.576 102.599C209.052 102.599 232.929 72.6802 245.12 40.5897C248.614 31.3937 249.939 22.76 249.939 16.7267C249.939 9.57294 247.678 4.07991 241.293 4.07991C235.042 4.07991 230.918 8.93422 227.194 16.5989C222.83 25.4885 219.603 38.3103 218.282 52.8041C214.957 89.1723 222.405 102.599 238.221 102.599C254.012 102.599 262.59 88.8338 267.733 74.2176C272.817 59.7686 279.069 50.8568 292.104 50.8568C302.878 50.8568 311.391 58.8375 311.391 73.8679C311.391 90.4944 300.603 102.998 286.972 103.131C274.976 103.264 267.098 93.5537 267.896 78.9224C268.827 62.6949 278.67 50.8568 291.572 50.8568C299.02 50.8568 305.277 54.1679 310.194 57.7734C323.523 67.4976 333.794 61.4883 337.727 51.8734" stroke="white" stroke-width="7.98073" stroke-linecap="round"/>
</svg>
