<svg width="1072" height="427" viewBox="0 0 1072 427" fill="none" xmlns="http://www.w3.org/2000/svg">
<path d="M1060.19 416.797H1069.1V425.597H1060.19V416.797Z" fill="white"/>
<path d="M1008.73 396.887C1008.73 402.094 1009.68 406.567 1011.59 410.307C1013.57 414.047 1016.21 416.944 1019.51 418.997C1022.81 420.977 1026.4 421.967 1030.29 421.967C1035.06 421.967 1039.05 420.757 1042.28 418.337C1045.58 415.917 1048.07 412.14 1049.76 407.007L1053.17 408.217C1051.63 413.864 1048.73 418.374 1044.48 421.747C1040.3 425.047 1035.2 426.697 1029.19 426.697C1024.06 426.697 1019.47 425.414 1015.44 422.847C1011.48 420.28 1008.36 416.76 1006.09 412.287C1003.82 407.814 1002.68 402.717 1002.68 396.997C1002.68 391.277 1003.74 386.18 1005.87 381.707C1008.07 377.234 1011.15 373.75 1015.11 371.257C1019.07 368.69 1023.65 367.407 1028.86 367.407C1033.41 367.407 1037.22 368.214 1040.3 369.827C1043.38 371.44 1045.84 373.604 1047.67 376.317C1049.58 379.03 1050.86 382.037 1051.52 385.337C1052.25 388.564 1052.51 391.827 1052.29 395.127H1008.73C1008.73 395.714 1008.73 396.3 1008.73 396.887ZM1009.17 391.277H1046.46C1046.31 387.537 1045.51 384.164 1044.04 381.157C1042.65 378.15 1040.67 375.767 1038.1 374.007C1035.53 372.174 1032.45 371.257 1028.86 371.257C1025.27 371.257 1022.08 372.137 1019.29 373.897C1016.58 375.657 1014.34 378.077 1012.58 381.157C1010.89 384.164 1009.76 387.537 1009.17 391.277Z" fill="white"/>
<path d="M973.164 425.597V424.827L977.014 419.987V375.437L973.164 370.267V369.497L982.294 367.957V380.717C983.761 376.757 985.778 373.567 988.344 371.147C990.911 368.654 994.064 367.407 997.804 367.407C998.538 367.407 999.234 367.444 999.894 367.517C1000.63 367.59 1001.25 367.7 1001.76 367.847L1001.1 373.787C998.024 372.907 995.384 372.87 993.184 373.677C990.984 374.484 989.151 375.767 987.684 377.527C986.218 379.287 985.044 381.267 984.164 383.467C983.284 385.667 982.661 387.72 982.294 389.627V419.987L987.244 424.827V425.597H973.164Z" fill="white"/>
<path d="M934.871 426.697C929.665 426.697 925.411 425.34 922.111 422.627C918.885 419.914 917.271 416.21 917.271 411.517C917.271 406.75 918.958 402.974 922.331 400.187C925.705 397.4 930.435 395.384 936.521 394.137L955.331 390.507V386.877C955.331 381.67 953.938 377.784 951.151 375.217C948.438 372.577 944.918 371.257 940.591 371.257C936.118 371.257 932.341 372.577 929.261 375.217C926.255 377.857 924.641 381.56 924.421 386.327L918.811 384.457C919.398 379.47 921.635 375.4 925.521 372.247C929.408 369.02 934.468 367.407 940.701 367.407C946.788 367.407 951.628 369.057 955.221 372.357C958.815 375.657 960.611 380.314 960.611 386.327V420.097L964.461 424.827V425.597H955.331V412.727C953.498 417.054 950.821 420.464 947.301 422.957C943.855 425.45 939.711 426.697 934.871 426.697ZM955.331 405.137V394.357L937.841 397.877C933.148 398.83 929.518 400.407 926.951 402.607C924.458 404.734 923.211 407.63 923.211 411.297C923.211 414.67 924.348 417.347 926.621 419.327C928.895 421.307 931.975 422.297 935.861 422.297C941.141 422.297 945.431 420.647 948.731 417.347C952.031 413.974 954.231 409.904 955.331 405.137Z" fill="white"/>
<path d="M887.827 426.697C882.547 426.697 877.891 425.45 873.857 422.957C869.897 420.39 866.781 416.87 864.507 412.397C862.307 407.924 861.207 402.79 861.207 396.997C861.207 391.057 862.344 385.887 864.617 381.487C866.964 377.014 870.154 373.567 874.187 371.147C878.294 368.654 882.987 367.407 888.267 367.407C893.914 367.407 898.644 368.764 902.457 371.477C906.344 374.19 908.947 377.417 910.267 381.157L906.747 385.997L905.977 385.887C904.657 381.487 902.494 377.967 899.487 375.327C896.481 372.614 892.704 371.257 888.157 371.257C883.977 371.257 880.311 372.32 877.157 374.447C874.004 376.574 871.547 379.58 869.787 383.467C868.101 387.28 867.257 391.79 867.257 396.997C867.257 402.057 868.211 406.457 870.117 410.197C872.097 413.937 874.701 416.834 877.927 418.887C881.227 420.94 884.857 421.967 888.817 421.967C893.364 421.967 897.287 420.684 900.587 418.117C903.961 415.477 906.417 411.517 907.957 406.237L911.147 407.227C909.754 413.24 906.967 418.007 902.787 421.527C898.681 424.974 893.694 426.697 887.827 426.697Z" fill="white"/>
<path d="M1018.81 265.597V264.827L1022.66 259.987V192.117L1018.81 186.947V186.177L1027.94 184.637V220.827C1029.7 216.647 1032.3 213.384 1035.75 211.037C1039.2 208.617 1043.08 207.407 1047.41 207.407C1053.06 207.407 1057.64 209.057 1061.16 212.357C1064.75 215.584 1066.55 220.35 1066.55 226.657V259.987L1070.4 264.827V265.597H1057.42V264.827L1061.27 259.987V227.317C1061.27 222.11 1059.91 218.224 1057.2 215.657C1054.56 213.09 1051.15 211.807 1046.97 211.807C1042.5 211.807 1038.5 213.42 1034.98 216.647C1031.46 219.8 1029.11 224.2 1027.94 229.847V259.987L1031.79 264.827V265.597H1018.81Z" fill="white"/>
<path d="M1004.23 266.697C1000.49 266.697 997.442 265.597 995.095 263.397C992.822 261.124 991.685 257.714 991.685 253.167V212.247H980.465V209.277C983.692 209.057 986.222 208.654 988.055 208.067C989.962 207.407 991.319 206.124 992.125 204.217C993.005 202.237 993.519 199.267 993.666 195.307H996.965V208.507L1012.92 207.957L1013.14 212.247H996.965V253.497C996.965 256.797 997.736 259.144 999.276 260.537C1000.89 261.93 1002.8 262.627 1005 262.627C1006.24 262.627 1007.45 262.517 1008.63 262.297C1009.8 262.004 1010.86 261.49 1011.82 260.757L1012.15 263.837C1011.41 264.497 1010.39 265.12 1009.07 265.707C1007.75 266.367 1006.13 266.697 1004.23 266.697Z" fill="white"/>
<path d="M971.874 259.987L975.724 264.827V265.597H962.744V264.827L966.594 259.987V215.437L962.744 210.267V209.497L971.874 207.957V259.987ZM969.014 197.067C967.768 197.067 966.704 196.627 965.824 195.747C964.944 194.867 964.504 193.767 964.504 192.447C964.504 191.127 964.944 190.027 965.824 189.147C966.704 188.267 967.768 187.827 969.014 187.827C970.334 187.827 971.434 188.267 972.314 189.147C973.268 190.027 973.744 191.127 973.744 192.447C973.744 193.767 973.268 194.867 972.314 195.747C971.434 196.627 970.334 197.067 969.014 197.067Z" fill="white"/>
<path d="M896.338 265.597L879.508 213.897L874.778 209.277V208.507H888.088V209.277L885.008 213.787L899.198 258.117L913.388 213.897L910.308 209.277V208.507H922.738V209.277L919.768 213.787L933.848 258.007L947.488 213.787L944.518 209.277V208.507H957.498V209.277L952.768 213.897L935.388 265.597H930.988L916.358 219.837L900.518 265.597H896.338Z" fill="white"/>
<path d="M830.435 266.697C824.568 266.697 819.802 265.34 816.135 262.627C812.542 259.914 809.975 256.614 808.435 252.727L812.615 247.007L813.385 247.117C814.192 251.59 816.062 255.33 818.995 258.337C821.928 261.27 825.778 262.737 830.545 262.737C834.505 262.737 837.805 261.637 840.445 259.437C843.158 257.164 844.515 254.23 844.515 250.637C844.515 247.484 843.562 244.99 841.655 243.157C839.822 241.25 837.182 239.82 833.735 238.867L823.615 236.227C819.582 235.127 816.392 233.477 814.045 231.277C811.772 229.077 810.635 225.96 810.635 221.927C810.635 219.067 811.405 216.574 812.945 214.447C814.558 212.247 816.758 210.524 819.545 209.277C822.332 208.03 825.485 207.407 829.005 207.407C833.772 207.407 837.732 208.397 840.885 210.377C844.038 212.357 846.422 215.07 848.035 218.517L844.405 223.797L843.635 223.687C842.755 219.874 840.958 216.867 838.245 214.667C835.605 212.394 832.488 211.257 828.895 211.257C825.302 211.257 822.258 212.247 819.765 214.227C817.345 216.207 816.135 218.7 816.135 221.707C816.135 224.2 816.942 226.18 818.555 227.647C820.242 229.114 822.515 230.25 825.375 231.057L835.605 233.807C839.932 234.98 843.415 236.814 846.055 239.307C848.695 241.8 850.015 245.43 850.015 250.197C850.015 253.424 849.172 256.284 847.485 258.777C845.798 261.27 843.488 263.214 840.555 264.607C837.622 266 834.248 266.697 830.435 266.697Z" fill="white"/>
<path d="M758.007 236.887C758.007 242.094 758.96 246.567 760.867 250.307C762.847 254.047 765.487 256.944 768.787 258.997C772.087 260.977 775.68 261.967 779.567 261.967C784.333 261.967 788.33 260.757 791.557 258.337C794.857 255.917 797.35 252.14 799.037 247.007L802.447 248.217C800.907 253.864 798.01 258.374 793.757 261.747C789.577 265.047 784.48 266.697 778.467 266.697C773.333 266.697 768.75 265.414 764.717 262.847C760.757 260.28 757.64 256.76 755.367 252.287C753.093 247.814 751.957 242.717 751.957 236.997C751.957 231.277 753.02 226.18 755.147 221.707C757.347 217.234 760.427 213.75 764.387 211.257C768.347 208.69 772.93 207.407 778.137 207.407C782.683 207.407 786.497 208.214 789.577 209.827C792.657 211.44 795.113 213.604 796.947 216.317C798.853 219.03 800.137 222.037 800.797 225.337C801.53 228.564 801.787 231.827 801.567 235.127H758.007C758.007 235.714 758.007 236.3 758.007 236.887ZM758.447 231.277H795.737C795.59 227.537 794.783 224.164 793.317 221.157C791.923 218.15 789.943 215.767 787.377 214.007C784.81 212.174 781.73 211.257 778.137 211.257C774.543 211.257 771.353 212.137 768.567 213.897C765.853 215.657 763.617 218.077 761.857 221.157C760.17 224.164 759.033 227.537 758.447 231.277Z" fill="white"/>
<path d="M722.183 266.697C716.903 266.697 712.246 265.45 708.213 262.957C704.253 260.39 701.136 256.87 698.863 252.397C696.663 247.924 695.563 242.79 695.563 236.997C695.563 231.057 696.7 225.887 698.973 221.487C701.32 217.014 704.51 213.567 708.543 211.147C712.65 208.654 717.343 207.407 722.623 207.407C728.27 207.407 733 208.764 736.813 211.477C740.7 214.19 743.303 217.417 744.623 221.157L741.103 225.997L740.333 225.887C739.013 221.487 736.85 217.967 733.843 215.327C730.836 212.614 727.06 211.257 722.513 211.257C718.333 211.257 714.666 212.32 711.513 214.447C708.36 216.574 705.903 219.58 704.143 223.467C702.456 227.28 701.613 231.79 701.613 236.997C701.613 242.057 702.566 246.457 704.473 250.197C706.453 253.937 709.056 256.834 712.283 258.887C715.583 260.94 719.213 261.967 723.173 261.967C727.72 261.967 731.643 260.684 734.943 258.117C738.316 255.477 740.773 251.517 742.313 246.237L745.503 247.227C744.11 253.24 741.323 258.007 737.143 261.527C733.036 264.974 728.05 266.697 722.183 266.697Z" fill="white"/>
<path d="M636.074 265.597V264.827L639.924 259.987V215.437L636.074 210.267V209.497L645.204 207.957V220.827C646.964 216.647 649.568 213.384 653.014 211.037C656.461 208.617 660.348 207.407 664.674 207.407C670.321 207.407 674.904 209.057 678.424 212.357C682.018 215.584 683.814 220.35 683.814 226.657V259.987L687.664 264.827V265.597H674.684V264.827L678.534 259.987V227.317C678.534 222.11 677.178 218.224 674.464 215.657C671.824 213.09 668.414 211.807 664.234 211.807C659.761 211.807 655.764 213.42 652.244 216.647C648.724 219.8 646.378 224.2 645.204 229.847V259.987L649.054 264.827V265.597H636.074Z" fill="white"/>
<path d="M583.446 236.887C583.446 242.094 584.4 246.567 586.306 250.307C588.286 254.047 590.926 256.944 594.226 258.997C597.526 260.977 601.12 261.967 605.006 261.967C609.773 261.967 613.77 260.757 616.996 258.337C620.296 255.917 622.79 252.14 624.476 247.007L627.886 248.217C626.346 253.864 623.45 258.374 619.196 261.747C615.016 265.047 609.92 266.697 603.906 266.697C598.773 266.697 594.19 265.414 590.156 262.847C586.196 260.28 583.08 256.76 580.806 252.287C578.533 247.814 577.396 242.717 577.396 236.997C577.396 231.277 578.46 226.18 580.586 221.707C582.786 217.234 585.866 213.75 589.826 211.257C593.786 208.69 598.37 207.407 603.576 207.407C608.123 207.407 611.936 208.214 615.016 209.827C618.096 211.44 620.553 213.604 622.386 216.317C624.293 219.03 625.576 222.037 626.236 225.337C626.97 228.564 627.226 231.827 627.006 235.127H583.446C583.446 235.714 583.446 236.3 583.446 236.887ZM583.886 231.277H621.176C621.03 227.537 620.223 224.164 618.756 221.157C617.363 218.15 615.383 215.767 612.816 214.007C610.25 212.174 607.17 211.257 603.576 211.257C599.983 211.257 596.793 212.137 594.006 213.897C591.293 215.657 589.056 218.077 587.296 221.157C585.61 224.164 584.473 227.537 583.886 231.277Z" fill="white"/>
<path d="M565.175 259.987L569.025 264.827V265.597H556.045V264.827L559.895 259.987V215.437L556.045 210.267V209.497L565.175 207.957V259.987ZM562.315 197.067C561.068 197.067 560.005 196.627 559.125 195.747C558.245 194.867 557.805 193.767 557.805 192.447C557.805 191.127 558.245 190.027 559.125 189.147C560.005 188.267 561.068 187.827 562.315 187.827C563.635 187.827 564.735 188.267 565.615 189.147C566.568 190.027 567.045 191.127 567.045 192.447C567.045 193.767 566.568 194.867 565.615 195.747C564.735 196.627 563.635 197.067 562.315 197.067Z" fill="white"/>
<path d="M521.885 265.597V264.827L525.735 259.987V215.437L521.885 210.267V209.497L531.015 207.957V220.717C532.482 216.757 534.498 213.567 537.065 211.147C539.632 208.654 542.785 207.407 546.525 207.407C547.258 207.407 547.955 207.444 548.615 207.517C549.348 207.59 549.972 207.7 550.485 207.847L549.825 213.787C546.745 212.907 544.105 212.87 541.905 213.677C539.705 214.484 537.872 215.767 536.405 217.527C534.938 219.287 533.765 221.267 532.885 223.467C532.005 225.667 531.382 227.72 531.015 229.627V259.987L535.965 264.827V265.597H521.885Z" fill="white"/>
<path d="M469.257 236.887C469.257 242.094 470.21 246.567 472.117 250.307C474.097 254.047 476.737 256.944 480.037 258.997C483.337 260.977 486.93 261.967 490.817 261.967C495.583 261.967 499.58 260.757 502.807 258.337C506.107 255.917 508.6 252.14 510.287 247.007L513.697 248.217C512.157 253.864 509.26 258.374 505.007 261.747C500.827 265.047 495.73 266.697 489.717 266.697C484.583 266.697 480 265.414 475.967 262.847C472.007 260.28 468.89 256.76 466.617 252.287C464.343 247.814 463.207 242.717 463.207 236.997C463.207 231.277 464.27 226.18 466.397 221.707C468.597 217.234 471.677 213.75 475.637 211.257C479.597 208.69 484.18 207.407 489.387 207.407C493.933 207.407 497.747 208.214 500.827 209.827C503.907 211.44 506.363 213.604 508.197 216.317C510.103 219.03 511.387 222.037 512.047 225.337C512.78 228.564 513.037 231.827 512.817 235.127H469.257C469.257 235.714 469.257 236.3 469.257 236.887ZM469.697 231.277H506.987C506.84 227.537 506.033 224.164 504.567 221.157C503.173 218.15 501.193 215.767 498.627 214.007C496.06 212.174 492.98 211.257 489.387 211.257C485.793 211.257 482.603 212.137 479.817 213.897C477.103 215.657 474.867 218.077 473.107 221.157C471.42 224.164 470.283 227.537 469.697 231.277Z" fill="white"/>
<path d="M401.132 286.167V285.397L404.982 280.557V215.437L401.132 210.267V209.497L410.262 207.957V220.937C412.096 216.464 414.882 213.09 418.622 210.817C422.362 208.544 426.322 207.407 430.502 207.407C435.489 207.407 439.852 208.69 443.592 211.257C447.406 213.824 450.376 217.344 452.502 221.817C454.629 226.29 455.692 231.387 455.692 237.107C455.692 242.754 454.519 247.814 452.172 252.287C449.899 256.76 446.746 260.28 442.712 262.847C438.679 265.414 434.132 266.697 429.072 266.697C425.406 266.697 421.886 265.854 418.512 264.167C415.139 262.48 412.389 259.95 410.262 256.577V280.557L415.762 285.397V286.167H401.132ZM429.072 262.957C433.106 262.957 436.662 261.82 439.742 259.547C442.822 257.274 445.242 254.194 447.002 250.307C448.762 246.347 449.642 241.947 449.642 237.107C449.642 232.34 448.836 228.05 447.222 224.237C445.609 220.424 443.336 217.417 440.402 215.217C437.469 212.944 434.022 211.807 430.062 211.807C426.689 211.807 423.536 212.65 420.602 214.337C417.742 215.95 415.396 218.26 413.562 221.267C411.729 224.2 410.629 227.684 410.262 231.717V245.577C411.362 250.857 413.562 255.074 416.862 258.227C420.162 261.38 424.232 262.957 429.072 262.957Z" fill="white"/>
<path d="M383.194 265.597L383.084 264.827L384.624 260.097L371.314 240.077L358.114 260.097L359.654 264.827L359.544 265.597H346.234V264.827L352.284 259.987L368.894 236.447L354.264 214.337L348.214 209.277V208.507H362.074L362.294 209.277L360.644 214.227L372.194 231.607L383.744 214.227L382.094 209.277L382.204 208.507H395.624V209.277L389.574 214.337L374.614 235.347L390.894 259.987L397.054 264.827V265.597H383.194Z" fill="white"/>
<path d="M301.356 236.887C301.356 242.094 302.31 246.567 304.216 250.307C306.196 254.047 308.836 256.944 312.136 258.997C315.436 260.977 319.03 261.967 322.916 261.967C327.683 261.967 331.68 260.757 334.906 258.337C338.206 255.917 340.7 252.14 342.386 247.007L345.796 248.217C344.256 253.864 341.36 258.374 337.106 261.747C332.926 265.047 327.83 266.697 321.816 266.697C316.683 266.697 312.1 265.414 308.066 262.847C304.106 260.28 300.99 256.76 298.716 252.287C296.443 247.814 295.306 242.717 295.306 236.997C295.306 231.277 296.37 226.18 298.496 221.707C300.696 217.234 303.776 213.75 307.736 211.257C311.696 208.69 316.28 207.407 321.486 207.407C326.033 207.407 329.846 208.214 332.926 209.827C336.006 211.44 338.463 213.604 340.296 216.317C342.203 219.03 343.486 222.037 344.146 225.337C344.88 228.564 345.136 231.827 344.916 235.127H301.356C301.356 235.714 301.356 236.3 301.356 236.887ZM301.796 231.277H339.086C338.94 227.537 338.133 224.164 336.666 221.157C335.273 218.15 333.293 215.767 330.726 214.007C328.16 212.174 325.08 211.257 321.486 211.257C317.893 211.257 314.703 212.137 311.916 213.897C309.203 215.657 306.966 218.077 305.206 221.157C303.52 224.164 302.383 227.537 301.796 231.277Z" fill="white"/>
<path d="M241.621 265.597V264.827L245.471 259.987V215.437L241.621 210.267V209.497L250.751 207.957V220.717C252.218 216.757 254.235 213.567 256.801 211.147C259.368 208.654 262.521 207.407 266.261 207.407C266.995 207.407 267.691 207.444 268.351 207.517C269.085 207.59 269.708 207.7 270.221 207.847L269.561 213.787C266.481 212.907 263.841 212.87 261.641 213.677C259.441 214.484 257.608 215.767 256.141 217.527C254.675 219.287 253.501 221.267 252.621 223.467C251.741 225.667 251.118 227.72 250.751 229.627V259.987L255.701 264.827V265.597H241.621Z" fill="white"/>
<path d="M188.993 236.887C188.993 242.094 189.946 246.567 191.853 250.307C193.833 254.047 196.473 256.944 199.773 258.997C203.073 260.977 206.666 261.967 210.553 261.967C215.32 261.967 219.316 260.757 222.543 258.337C225.843 255.917 228.336 252.14 230.023 247.007L233.433 248.217C231.893 253.864 228.996 258.374 224.743 261.747C220.563 265.047 215.466 266.697 209.453 266.697C204.32 266.697 199.736 265.414 195.703 262.847C191.743 260.28 188.626 256.76 186.353 252.287C184.08 247.814 182.943 242.717 182.943 236.997C182.943 231.277 184.006 226.18 186.133 221.707C188.333 217.234 191.413 213.75 195.373 211.257C199.333 208.69 203.916 207.407 209.123 207.407C213.67 207.407 217.483 208.214 220.563 209.827C223.643 211.44 226.1 213.604 227.933 216.317C229.84 219.03 231.123 222.037 231.783 225.337C232.516 228.564 232.773 231.827 232.553 235.127H188.993C188.993 235.714 188.993 236.3 188.993 236.887ZM189.433 231.277H226.723C226.576 227.537 225.77 224.164 224.303 221.157C222.91 218.15 220.93 215.767 218.363 214.007C215.796 212.174 212.716 211.257 209.123 211.257C205.53 211.257 202.34 212.137 199.553 213.897C196.84 215.657 194.603 218.077 192.843 221.157C191.156 224.164 190.02 227.537 189.433 231.277Z" fill="white"/>
<path d="M156.47 266.697C150.603 266.697 145.837 265.34 142.17 262.627C138.577 259.914 136.01 256.614 134.47 252.727L138.65 247.007L139.42 247.117C140.227 251.59 142.097 255.33 145.03 258.337C147.963 261.27 151.813 262.737 156.58 262.737C160.54 262.737 163.84 261.637 166.48 259.437C169.193 257.164 170.55 254.23 170.55 250.637C170.55 247.484 169.597 244.99 167.69 243.157C165.857 241.25 163.217 239.82 159.77 238.867L149.65 236.227C145.617 235.127 142.427 233.477 140.08 231.277C137.807 229.077 136.67 225.96 136.67 221.927C136.67 219.067 137.44 216.574 138.98 214.447C140.593 212.247 142.793 210.524 145.58 209.277C148.367 208.03 151.52 207.407 155.04 207.407C159.807 207.407 163.767 208.397 166.92 210.377C170.073 212.357 172.457 215.07 174.07 218.517L170.44 223.797L169.67 223.687C168.79 219.874 166.993 216.867 164.28 214.667C161.64 212.394 158.523 211.257 154.93 211.257C151.337 211.257 148.293 212.247 145.8 214.227C143.38 216.207 142.17 218.7 142.17 221.707C142.17 224.2 142.977 226.18 144.59 227.647C146.277 229.114 148.55 230.25 151.41 231.057L161.64 233.807C165.967 234.98 169.45 236.814 172.09 239.307C174.73 241.8 176.05 245.43 176.05 250.197C176.05 253.424 175.207 256.284 173.52 258.777C171.833 261.27 169.523 263.214 166.59 264.607C163.657 266 160.283 266.697 156.47 266.697Z" fill="white"/>
<path d="M98.7312 266.697C93.1579 266.697 88.5746 265.047 84.9812 261.747C81.4612 258.447 79.7012 253.68 79.7012 247.447V215.437L75.8513 210.267V209.497L84.9812 207.957V246.787C84.9812 251.92 86.3013 255.807 88.9413 258.447C91.6546 261.014 95.0646 262.297 99.1712 262.297C103.718 262.297 107.751 260.684 111.271 257.457C114.791 254.157 117.101 249.72 118.201 244.147V215.437L114.351 210.267V209.497L123.481 207.957V259.987L127.331 264.827V265.597H118.201V253.277C116.515 257.384 113.911 260.647 110.391 263.067C106.945 265.487 103.058 266.697 98.7312 266.697Z" fill="white"/>
<path d="M1026.67 76.8869C1026.67 82.0935 1027.62 86.5669 1029.53 90.3069C1031.51 94.0469 1034.15 96.9435 1037.45 98.9969C1040.75 100.977 1044.34 101.967 1048.23 101.967C1053 101.967 1056.99 100.757 1060.22 98.3369C1063.52 95.9169 1066.01 92.1402 1067.7 87.0069L1071.11 88.2169C1069.57 93.8635 1066.67 98.3735 1062.42 101.747C1058.24 105.047 1053.14 106.697 1047.13 106.697C1042 106.697 1037.41 105.414 1033.38 102.847C1029.42 100.28 1026.3 96.7602 1024.03 92.2869C1021.76 87.8135 1020.62 82.7169 1020.62 76.9969C1020.62 71.2769 1021.68 66.1802 1023.81 61.7069C1026.01 57.2335 1029.09 53.7502 1033.05 51.2569C1037.01 48.6902 1041.59 47.4069 1046.8 47.4069C1051.35 47.4069 1055.16 48.2135 1058.24 49.8269C1061.32 51.4402 1063.78 53.6035 1065.61 56.3169C1067.52 59.0302 1068.8 62.0369 1069.46 65.3369C1070.19 68.5635 1070.45 71.8269 1070.23 75.1269H1026.67C1026.67 75.7135 1026.67 76.3002 1026.67 76.8869ZM1027.11 71.2769H1064.4C1064.25 67.5369 1063.45 64.1635 1061.98 61.1569C1060.59 58.1502 1058.61 55.7669 1056.04 54.0069C1053.47 52.1735 1050.39 51.2569 1046.8 51.2569C1043.21 51.2569 1040.02 52.1369 1037.23 53.8969C1034.52 55.6569 1032.28 58.0769 1030.52 61.1569C1028.83 64.1635 1027.7 67.5369 1027.11 71.2769Z" fill="white"/>
<path d="M983.78 106.697C978.207 106.697 973.623 105.047 970.03 101.747C966.51 98.4469 964.75 93.6802 964.75 87.4469V55.4369L960.9 50.2669V49.4969L970.03 47.9569V86.7869C970.03 91.9203 971.35 95.8069 973.99 98.4469C976.703 101.014 980.113 102.297 984.22 102.297C988.767 102.297 992.8 100.684 996.32 97.4569C999.84 94.1569 1002.15 89.7202 1003.25 84.1469V55.4369L999.4 50.2669V49.4969L1008.53 47.9569V99.9869L1012.38 104.827V105.597H1003.25V93.2769C1001.56 97.3836 998.96 100.647 995.44 103.067C991.993 105.487 988.107 106.697 983.78 106.697Z" fill="white"/>
<path d="M943.913 126.167V93.0569C942.08 97.5302 939.293 100.94 935.553 103.287C931.813 105.56 927.926 106.697 923.893 106.697C918.833 106.697 914.359 105.414 910.473 102.847C906.659 100.28 903.689 96.7602 901.563 92.2869C899.436 87.8135 898.373 82.7169 898.373 76.9969C898.373 71.2769 899.546 66.2169 901.893 61.8169C904.239 57.3435 907.429 53.8235 911.463 51.2569C915.496 48.6902 920.043 47.4069 925.103 47.4069C928.769 47.4069 932.326 48.1769 935.773 49.7169C939.219 51.1835 942.006 53.3102 944.133 56.0969L946.553 47.9569H949.193V120.557L953.043 125.397V126.167H943.913ZM924.333 102.297C927.706 102.297 930.786 101.49 933.573 99.8769C936.359 98.1902 938.669 95.8802 940.503 92.9469C942.409 89.9402 943.546 86.4202 943.913 82.3869V66.2169C943.106 61.7435 940.943 58.1135 937.423 55.3269C933.976 52.5402 929.869 51.1469 925.103 51.1469C921.069 51.1469 917.476 52.2835 914.323 54.5569C911.243 56.8302 908.823 59.9102 907.063 63.7969C905.303 67.6835 904.423 72.0835 904.423 76.9969C904.423 81.6902 905.229 85.9802 906.843 89.8669C908.456 93.6802 910.766 96.7235 913.773 98.9969C916.779 101.197 920.299 102.297 924.333 102.297Z" fill="white"/>
<path d="M886.152 99.9869L890.002 104.827V105.597H877.022V104.827L880.872 99.9869V55.4369L877.022 50.2669V49.4969L886.152 47.9569V99.9869ZM883.292 37.0669C882.045 37.0669 880.982 36.6269 880.102 35.7469C879.222 34.8669 878.782 33.7669 878.782 32.4469C878.782 31.1269 879.222 30.0269 880.102 29.1469C880.982 28.2669 882.045 27.8269 883.292 27.8269C884.612 27.8269 885.712 28.2669 886.592 29.1469C887.545 30.0269 888.022 31.1269 888.022 32.4469C888.022 33.7669 887.545 34.8669 886.592 35.7469C885.712 36.6269 884.612 37.0669 883.292 37.0669Z" fill="white"/>
<path d="M816.543 105.597V104.827L820.393 99.9869V55.4369L816.543 50.2669V49.4969L825.673 47.9569V60.8269C827.433 56.6469 830.037 53.3835 833.483 51.0369C836.93 48.6169 840.817 47.4069 845.143 47.4069C850.79 47.4069 855.373 49.0569 858.893 52.3569C862.487 55.5835 864.283 60.3502 864.283 66.6569V99.9869L868.133 104.827V105.597H855.153V104.827L859.003 99.9869V67.3169C859.003 62.1102 857.646 58.2235 854.933 55.6569C852.293 53.0902 848.883 51.8069 844.703 51.8069C840.23 51.8069 836.233 53.4202 832.713 56.6469C829.193 59.8002 826.846 64.2002 825.673 69.8469V99.9869L829.523 104.827V105.597H816.543Z" fill="white"/>
<path d="M778.604 106.697C773.031 106.697 768.448 105.047 764.854 101.747C761.334 98.4469 759.574 93.6802 759.574 87.4469V55.4369L755.724 50.2669V49.4969L764.854 47.9569V86.7869C764.854 91.9203 766.174 95.8069 768.814 98.4469C771.528 101.014 774.938 102.297 779.044 102.297C783.591 102.297 787.624 100.684 791.144 97.4569C794.664 94.1569 796.974 89.7202 798.074 84.1469V55.4369L794.224 50.2669V49.4969L803.354 47.9569V99.9869L807.204 104.827V105.597H798.074V93.2769C796.388 97.3836 793.784 100.647 790.264 103.067C786.818 105.487 782.931 106.697 778.604 106.697Z" fill="white"/>
<path d="M672.598 105.597V104.827L676.448 99.9869V55.4369L672.598 50.2669V49.4969L681.728 47.9569V60.8269C683.488 56.6469 686.091 53.3835 689.538 51.0369C692.985 48.6169 696.871 47.4069 701.198 47.4069C706.845 47.4069 711.428 49.0569 714.948 52.3569C718.541 55.5835 720.338 60.3502 720.338 66.6569V99.9869L724.188 104.827V105.597H711.208V104.827L715.058 99.9869V67.3169C715.058 62.1102 713.701 58.2235 710.988 55.6569C708.348 53.0902 704.938 51.8069 700.758 51.8069C696.285 51.8069 692.288 53.4202 688.768 56.6469C685.248 59.8002 682.901 64.2002 681.728 69.8469V99.9869L685.578 104.827V105.597H672.598Z" fill="white"/>
<path d="M640.266 127.267C635.352 127.267 630.989 126.717 627.176 125.617C623.436 124.517 620.466 122.83 618.266 120.557C616.139 118.284 615.076 115.35 615.076 111.757C615.076 108.97 615.882 106.55 617.496 104.497C619.182 102.37 621.382 100.72 624.096 99.5469C619.622 98.0802 617.386 95.1102 617.386 90.6369C617.386 88.2902 618.119 86.2002 619.586 84.3669C621.052 82.4602 622.849 80.8102 624.976 79.4169C623.142 77.8035 621.712 75.8602 620.686 73.5869C619.732 71.3135 619.256 68.8202 619.256 66.1069C619.256 62.3669 620.099 59.1035 621.786 56.3169C623.546 53.5302 625.966 51.3669 629.046 49.8269C632.126 48.2135 635.646 47.4069 639.606 47.4069C643.199 47.4069 646.462 48.0669 649.396 49.3869L665.676 47.9569L665.896 52.2469H654.016C655.996 53.9335 657.499 55.9502 658.526 58.2969C659.626 60.6435 660.176 63.2469 660.176 66.1069C660.176 69.7002 659.296 72.8902 657.536 75.6769C655.776 78.4635 653.356 80.6635 650.276 82.2769C647.196 83.8169 643.639 84.5869 639.606 84.5869C634.986 84.5869 630.989 83.5235 627.616 81.3969C625.856 82.7902 624.499 84.1835 623.546 85.5769C622.592 86.9702 622.116 88.4369 622.116 89.9769C622.116 91.8835 622.922 93.2769 624.536 94.1569C626.222 94.9635 628.679 95.3669 631.906 95.3669H648.846C654.272 95.3669 658.636 96.6502 661.936 99.2169C665.236 101.784 666.886 105.377 666.886 109.997C666.886 115.204 664.539 119.384 659.846 122.537C655.226 125.69 648.699 127.267 640.266 127.267ZM628.936 100.537C626.076 101.417 623.949 102.92 622.556 105.047C621.236 107.1 620.576 109.337 620.576 111.757C620.576 115.57 622.409 118.43 626.076 120.337C629.816 122.317 634.546 123.307 640.266 123.307C646.939 123.307 652.109 122.134 655.776 119.787C659.516 117.514 661.386 114.36 661.386 110.327C661.386 103.874 657.169 100.647 648.736 100.647H632.566C631.319 100.647 630.109 100.61 628.936 100.537ZM639.606 80.7369C644.006 80.7369 647.526 79.4169 650.166 76.7769C652.806 74.1369 654.126 70.5802 654.126 66.1069C654.126 61.5602 652.806 57.9669 650.166 55.3269C647.526 52.6135 644.006 51.2569 639.606 51.2569C635.279 51.2569 631.796 52.6135 629.156 55.3269C626.589 57.9669 625.306 61.5235 625.306 65.9969C625.306 70.4702 626.589 74.0635 629.156 76.7769C631.796 79.4169 635.279 80.7369 639.606 80.7369Z" fill="white"/>
<path d="M603.954 99.9869L607.804 104.827V105.597H594.824V104.827L598.674 99.9869V55.4369L594.824 50.2669V49.4969L603.954 47.9569V99.9869ZM601.094 37.0669C599.848 37.0669 598.784 36.6269 597.904 35.7469C597.024 34.8669 596.584 33.7669 596.584 32.4469C596.584 31.1269 597.024 30.0269 597.904 29.1469C598.784 28.2669 599.848 27.8269 601.094 27.8269C602.414 27.8269 603.514 28.2669 604.394 29.1469C605.348 30.0269 605.824 31.1269 605.824 32.4469C605.824 33.7669 605.348 34.8669 604.394 35.7469C603.514 36.6269 602.414 37.0669 601.094 37.0669Z" fill="white"/>
<path d="M567.251 106.697C561.385 106.697 556.618 105.34 552.951 102.627C549.358 99.9135 546.791 96.6135 545.251 92.7269L549.431 87.0069L550.201 87.1169C551.008 91.5902 552.878 95.3302 555.811 98.3369C558.745 101.27 562.595 102.737 567.361 102.737C571.321 102.737 574.621 101.637 577.261 99.4369C579.975 97.1635 581.331 94.2302 581.331 90.6369C581.331 87.4835 580.378 84.9902 578.471 83.1569C576.638 81.2502 573.998 79.8202 570.551 78.8669L560.431 76.2269C556.398 75.1269 553.208 73.4769 550.861 71.2769C548.588 69.0769 547.451 65.9602 547.451 61.9269C547.451 59.0669 548.221 56.5735 549.761 54.4469C551.375 52.2469 553.575 50.5235 556.361 49.2769C559.148 48.0302 562.301 47.4069 565.821 47.4069C570.588 47.4069 574.548 48.3969 577.701 50.3769C580.855 52.3569 583.238 55.0702 584.851 58.5169L581.221 63.7969L580.451 63.6869C579.571 59.8735 577.775 56.8669 575.061 54.6669C572.421 52.3935 569.305 51.2569 565.711 51.2569C562.118 51.2569 559.075 52.2469 556.581 54.2269C554.161 56.2069 552.951 58.7002 552.951 61.7069C552.951 64.2002 553.758 66.1802 555.371 67.6469C557.058 69.1135 559.331 70.2502 562.191 71.0569L572.421 73.8069C576.748 74.9802 580.231 76.8135 582.871 79.3069C585.511 81.8002 586.831 85.4302 586.831 90.1969C586.831 93.4235 585.988 96.2835 584.301 98.7769C582.615 101.27 580.305 103.214 577.371 104.607C574.438 106 571.065 106.697 567.251 106.697Z" fill="white"/>
<path d="M494.823 76.8869C494.823 82.0935 495.777 86.5669 497.683 90.3069C499.663 94.0469 502.303 96.9435 505.603 98.9969C508.903 100.977 512.497 101.967 516.383 101.967C521.15 101.967 525.147 100.757 528.373 98.3369C531.673 95.9169 534.167 92.1402 535.853 87.0069L539.263 88.2169C537.723 93.8635 534.827 98.3735 530.573 101.747C526.393 105.047 521.297 106.697 515.283 106.697C510.15 106.697 505.567 105.414 501.533 102.847C497.573 100.28 494.457 96.7602 492.183 92.2869C489.91 87.8135 488.773 82.7169 488.773 76.9969C488.773 71.2769 489.837 66.1802 491.963 61.7069C494.163 57.2335 497.243 53.7502 501.203 51.2569C505.163 48.6902 509.747 47.4069 514.953 47.4069C519.5 47.4069 523.313 48.2135 526.393 49.8269C529.473 51.4402 531.93 53.6035 533.763 56.3169C535.67 59.0302 536.953 62.0369 537.613 65.3369C538.347 68.5635 538.603 71.8269 538.383 75.1269H494.823C494.823 75.7135 494.823 76.3002 494.823 76.8869ZM495.263 71.2769H532.553C532.407 67.5369 531.6 64.1635 530.133 61.1569C528.74 58.1502 526.76 55.7669 524.193 54.0069C521.627 52.1735 518.547 51.2569 514.953 51.2569C511.36 51.2569 508.17 52.1369 505.383 53.8969C502.67 55.6569 500.433 58.0769 498.673 61.1569C496.987 64.1635 495.85 67.5369 495.263 71.2769Z" fill="white"/>
<path d="M451.561 106.697C446.428 106.697 441.918 105.414 438.031 102.847C434.218 100.28 431.248 96.7603 429.121 92.287C426.995 87.8136 425.931 82.717 425.931 76.997C425.931 71.277 427.105 66.1803 429.451 61.707C431.798 57.2336 434.988 53.7503 439.021 51.257C443.055 48.6903 447.601 47.407 452.661 47.407C456.328 47.407 459.848 48.2136 463.221 49.827C466.595 51.4403 469.345 53.9703 471.471 57.417V32.117L467.621 26.947V26.177L476.751 24.637V99.987L480.601 104.827V105.597H471.471V93.057C469.638 97.5303 466.851 100.94 463.111 103.287C459.371 105.56 455.521 106.697 451.561 106.697ZM451.891 102.297C455.265 102.297 458.345 101.49 461.131 99.877C463.918 98.1903 466.228 95.8436 468.061 92.837C469.968 89.8303 471.105 86.347 471.471 82.387V68.527C470.371 63.1736 468.135 58.957 464.761 55.877C461.461 52.7236 457.428 51.147 452.661 51.147C448.628 51.147 445.035 52.2836 441.881 54.557C438.801 56.8303 436.381 59.9103 434.621 63.797C432.861 67.6836 431.981 72.0836 431.981 76.997C431.981 81.6903 432.788 85.9803 434.401 89.867C436.015 93.6803 438.325 96.7236 441.331 98.997C444.338 101.197 447.858 102.297 451.891 102.297Z" fill="white"/>
<path d="M387.784 99.6569L392.734 104.827V105.597H376.894V104.827L381.844 99.6569V32.2269L376.894 27.0569V26.2869H392.734V27.0569L387.784 32.2269V99.6569Z" fill="white"/>
<path d="M337.004 96.7969H345.914V105.597L338.434 118.907H336.454L341.844 104.827L337.004 105.597V96.7969Z" fill="white"/>
<path d="M4.65637 89.3073C19.4228 81.0986 32.8782 70.5431 48.1436 52.5761C58.5344 40.3111 64.1209 26.3065 64.3869 16.647C64.52 9.46458 61.0178 4.01587 54.544 4.01587C47.3614 4.01587 42.839 9.46458 40.0457 21.9719C36.9864 35.7175 34.7252 51.4901 29.0057 102.067" stroke="white" stroke-width="7.98073" stroke-linecap="round"/>
<path d="M29.5663 97.1236C32.4945 71.3829 43.637 52.586 57.8694 52.586C66.3821 52.586 71.7924 59.3696 70.2562 69.0795C69.3914 74.799 68.3889 80.6515 67.221 87.4352C65.8596 95.9479 69.7507 102.599 81.5404 102.599C98.734 102.599 117.491 93.0438 127.091 78.2448C130.361 73.2029 131.691 68.6804 131.824 64.291C131.957 56.3103 127.435 50.3248 119.454 50.3248C109.345 50.3248 101.63 61.7638 101.63 76.3951C101.63 92.0906 110.143 103.131 128.222 103.131C152.803 103.131 180.031 73.6222 192.542 40.6916C196.074 31.3937 197.399 22.76 197.399 16.7267C197.399 9.57294 195.138 4.07991 188.753 4.07991C182.502 4.07991 178.378 8.93422 174.654 16.5989C170.291 25.4885 167.063 38.3103 165.742 52.8041C162.417 89.1723 169.866 102.599 187.577 102.599C209.052 102.599 232.929 72.6802 245.12 40.5897C248.614 31.3937 249.939 22.76 249.939 16.7267C249.939 9.57294 247.678 4.07991 241.293 4.07991C235.042 4.07991 230.918 8.93422 227.194 16.5989C222.83 25.4885 219.603 38.3103 218.282 52.8041C214.957 89.1723 222.405 102.599 238.221 102.599C254.012 102.599 262.59 88.8338 267.733 74.2176C272.817 59.7686 279.069 50.8568 292.104 50.8568C302.878 50.8568 311.391 58.8375 311.391 73.8679C311.391 90.4944 300.604 102.998 286.972 103.131C274.976 103.264 267.098 93.5537 267.896 78.9224C268.827 62.6949 278.67 50.8568 291.572 50.8568C299.021 50.8568 305.277 54.1679 310.194 57.7734C323.523 67.4976 333.794 61.4883 337.727 51.8734" stroke="white" stroke-width="7.98073" stroke-linecap="round"/>
</svg>
