<svg width="1141" height="455" viewBox="0 0 1141 455" fill="none" xmlns="http://www.w3.org/2000/svg">
<path d="M1117.31 417.836C1117.31 415.974 1117.97 414.387 1119.28 413.075C1120.64 411.721 1122.24 411.044 1124.11 411.044C1126.01 411.044 1127.62 411.721 1128.93 413.075C1130.28 414.387 1130.96 415.974 1130.96 417.836C1130.96 419.74 1130.28 421.349 1128.93 422.66C1127.58 424.015 1125.97 424.692 1124.11 424.692C1122.2 424.692 1120.59 423.993 1119.28 422.597C1117.97 421.243 1117.31 419.656 1117.31 417.836Z" fill="white"/>
<path d="M1106.84 388.193H1070.6C1070.43 390.689 1070.34 392.551 1070.34 393.779C1070.34 402.919 1071.76 409.796 1074.59 414.408C1077.47 418.979 1081.75 421.264 1087.42 421.264C1095.12 421.264 1100.58 417.815 1103.79 410.917H1106.84C1105.49 415.234 1102.8 418.619 1098.78 421.073C1094.76 423.486 1090.38 424.692 1085.64 424.692C1081.24 424.692 1077.07 423.591 1073.13 421.391C1069.24 419.148 1066.05 415.995 1063.55 411.933C1061.05 407.87 1059.8 402.94 1059.8 397.143C1059.8 388.933 1062.22 382.12 1067.04 376.703C1071.87 371.244 1077.9 368.515 1085.13 368.515C1091.94 368.515 1097.21 370.588 1100.94 374.736C1104.66 378.883 1106.63 383.368 1106.84 388.193ZM1095.73 385.654C1095.86 384.68 1095.92 383.813 1095.92 383.051C1095.92 379.327 1094.82 376.449 1092.62 374.418C1090.46 372.345 1087.8 371.308 1084.62 371.308C1076.92 371.308 1072.33 376.09 1070.85 385.654H1095.73Z" fill="white"/>
<path d="M1030.35 381.781C1031.79 378.015 1034.12 374.863 1037.33 372.323C1040.59 369.784 1043.77 368.515 1046.86 368.515C1049.65 368.515 1051.85 369.382 1053.46 371.117C1055.07 372.852 1055.87 374.63 1055.87 376.449C1055.87 377.677 1055.45 378.735 1054.6 379.623C1053.8 380.512 1052.8 380.956 1051.62 380.956C1049.5 380.956 1047.89 379.391 1046.79 376.259C1046.03 374.143 1044.89 373.085 1043.36 373.085C1041.54 373.085 1039.37 374.334 1036.83 376.83C1034.29 379.285 1032.66 381.845 1031.94 384.511C1031.22 387.177 1030.86 390.837 1030.86 395.492V404.76C1030.86 410.304 1030.92 413.795 1031.05 415.234C1031.22 416.672 1031.83 417.773 1032.89 418.534C1033.95 419.296 1035.83 419.677 1038.54 419.677H1040.32V422.597H1012.71V419.677H1014.04C1016.58 419.677 1018.38 419.338 1019.43 418.661C1020.53 417.942 1021.19 416.948 1021.4 415.678C1021.61 414.408 1021.72 410.769 1021.72 404.76V390.097C1021.72 384.511 1021.63 381.02 1021.46 379.623C1021.34 378.184 1020.75 377.084 1019.69 376.323C1018.63 375.518 1016.75 375.116 1014.04 375.116H1012.71V372.26C1016.68 371.795 1021.89 370.546 1028.32 368.515C1029.55 371.858 1030.22 376.28 1030.35 381.781Z" fill="white"/>
<path d="M1005.02 413.075H1007.37C1006.99 420.312 1003.44 423.93 996.709 423.93C993.831 423.93 991.546 423.168 989.854 421.645C988.203 420.121 987.124 417.857 986.616 414.853C982.384 417.857 978.512 420.121 975 421.645C971.53 423.168 968.42 423.93 965.669 423.93C962.157 423.93 959.131 422.914 956.592 420.883C954.053 418.852 952.783 416.165 952.783 412.822C952.783 408.463 954.899 404.654 959.131 401.396C963.405 398.137 969.287 394.963 976.777 391.874L986.616 387.875V385.336C986.616 381.739 986.383 379.137 985.918 377.529C985.452 375.92 984.246 374.482 982.3 373.212C980.353 371.943 977.793 371.308 974.619 371.308C968.271 371.308 964.738 373.424 964.019 377.656C963.341 381.972 961.564 384.13 958.687 384.13C956.105 384.13 954.814 382.903 954.814 380.448C954.814 378.036 956.528 375.455 959.956 372.704C963.384 369.911 968.716 368.515 975.952 368.515C981.326 368.515 985.495 369.361 988.457 371.054C991.419 372.747 993.366 374.672 994.297 376.83C995.27 378.989 995.757 382.289 995.757 386.733V407.743C995.757 412.652 996.011 415.805 996.519 417.201C997.026 418.598 998.127 419.296 999.819 419.296C1002.61 419.296 1004.35 417.223 1005.02 413.075ZM986.616 390.859L979.697 393.652C968.779 398.095 963.32 403.681 963.32 410.409C963.32 413.075 964.019 415.234 965.415 416.884C966.812 418.492 968.631 419.296 970.874 419.296C972.863 419.296 975.169 418.64 977.793 417.328C980.417 416.017 983.358 414.049 986.616 411.425V390.859Z" fill="white"/>
<path d="M941.865 409.902H944.658C941.781 419.762 934.587 424.692 923.076 424.692C915.671 424.692 909.429 422.174 904.351 417.138C899.315 412.102 896.797 405.437 896.797 397.143C896.797 388.637 899.526 381.739 904.985 376.449C910.444 371.16 916.898 368.515 924.346 368.515C928.831 368.515 932.957 369.509 936.724 371.498C940.49 373.445 942.373 375.836 942.373 378.671C942.373 379.729 942.013 380.724 941.294 381.655C940.617 382.586 939.622 383.051 938.311 383.051C935.518 383.051 933.804 381.422 933.169 378.163C932.661 375.709 931.878 373.995 930.82 373.022C929.72 372.048 927.583 371.562 924.409 371.562C918.739 371.562 914.465 373.53 911.587 377.465C908.752 381.401 907.334 387.325 907.334 395.239C907.334 403.406 908.857 409.796 911.904 414.408C914.993 419.021 919.648 421.327 925.869 421.327C934.248 421.327 939.58 417.519 941.865 409.902Z" fill="white"/>
<path d="M811.802 379.179C814.341 375.624 817.176 372.958 820.308 371.181C823.481 369.404 826.951 368.515 830.718 368.515C834.992 368.515 838.525 369.404 841.318 371.181C844.154 372.958 845.994 375.159 846.841 377.782C847.687 380.364 848.11 384.574 848.11 390.414V404.76C848.11 410.854 848.216 414.557 848.428 415.868C848.682 417.18 849.38 418.154 850.522 418.788C851.665 419.381 853.781 419.677 856.87 419.677V422.597H830.02V419.677H831.226C834.315 419.677 836.304 419.233 837.192 418.344C838.123 417.455 838.652 416.419 838.779 415.234C838.949 414.006 839.033 410.515 839.033 404.76V389.145C839.033 384.828 838.779 381.633 838.271 379.56C837.764 377.486 836.558 375.772 834.653 374.418C832.791 373.064 830.443 372.387 827.607 372.387C824.307 372.387 821.344 373.36 818.721 375.307C816.097 377.211 813.791 380.089 811.802 383.94V404.76C811.802 410.6 811.886 414.197 812.056 415.551C812.267 416.905 812.923 417.942 814.023 418.661C815.124 419.338 817.134 419.677 820.054 419.677V422.597H793.647V419.677H794.98C798.027 419.677 799.995 419.254 800.884 418.407C801.815 417.519 802.344 416.482 802.471 415.297C802.64 414.07 802.725 410.558 802.725 404.76V352.963C802.725 347.716 802.217 344.394 801.201 342.997C800.228 341.601 797.858 340.903 794.092 340.903V337.983C800.651 337.983 806.11 337.094 810.469 335.317H811.802V379.179Z" fill="white"/>
<path d="M788.315 373.53H772.637V404.95C772.637 409.775 772.848 413.033 773.271 414.726C773.695 416.376 774.583 417.709 775.938 418.725C777.334 419.74 778.815 420.248 780.381 420.248C783.428 420.248 786.073 418.513 788.315 415.043L790.347 416.249C789.035 419.042 787.088 421.158 784.507 422.597C781.968 423.993 779.386 424.692 776.763 424.692C773.716 424.692 771.029 423.803 768.701 422.026C766.416 420.206 764.977 418.09 764.385 415.678C763.835 413.266 763.56 409.034 763.56 402.983V373.53H756.006V370.61C759.476 370.525 762.586 369.065 765.337 366.23C768.088 363.394 769.844 359.417 770.605 354.296H772.637V370.61H788.315V373.53Z" fill="white"/>
<path d="M728.838 341.982C728.838 340.162 729.473 338.596 730.742 337.284C732.054 335.973 733.62 335.317 735.439 335.317C737.259 335.317 738.804 335.973 740.073 337.284C741.343 338.596 741.978 340.162 741.978 341.982C741.978 343.844 741.343 345.431 740.073 346.742C738.804 348.054 737.259 348.71 735.439 348.71C733.62 348.71 732.054 348.054 730.742 346.742C729.473 345.431 728.838 343.844 728.838 341.982ZM741.089 368.515V404.76C741.089 410.304 741.174 413.795 741.343 415.234C741.512 416.672 742.126 417.773 743.184 418.534C744.242 419.296 746.125 419.677 748.833 419.677H750.166V422.597H722.173V419.677H724.331C727.336 419.677 729.282 419.254 730.171 418.407C731.102 417.519 731.631 416.482 731.758 415.297C731.927 414.07 732.012 410.558 732.012 404.76V389.018C732.012 382.924 731.715 379.2 731.123 377.846C730.573 376.492 729.811 375.645 728.838 375.307C727.907 374.968 726.257 374.799 723.887 374.799H722.173V371.879C729.705 371.117 735.545 369.996 739.692 368.515H741.089Z" fill="white"/>
<path d="M694.434 424.628H691.577L676.089 383.368L660.283 424.628H657.49L641.621 383.368C639.801 378.671 638.447 375.857 637.559 374.926C636.67 373.995 634.893 373.53 632.227 373.53V370.61H655.967V373.53C653.301 373.53 651.481 373.783 650.508 374.291C649.535 374.757 649.048 375.582 649.048 376.767C649.048 377.613 649.873 380.089 651.523 384.194L662.061 412.06L678.184 370.61H680.659L696.274 412.06L707.7 382.543C708.927 379.412 709.541 377.529 709.541 376.894C709.541 374.82 707.404 373.699 703.13 373.53V370.61H720.015V373.53C717.983 373.572 716.375 373.974 715.19 374.736C714.048 375.455 712.99 377.105 712.017 379.687L710.62 383.368L694.434 424.628Z" fill="white"/>
<path d="M561.387 424.247V407.172H563.862C566.74 417.032 571.882 421.962 579.287 421.962C582.503 421.962 584.894 420.989 586.46 419.042C588.068 417.096 588.872 414.959 588.872 412.631C588.872 409.923 588.026 407.701 586.333 405.966C584.598 404.231 581.234 402.136 576.24 399.682C570.993 397.101 567.227 394.561 564.941 392.065C562.656 389.61 561.514 386.585 561.514 382.988C561.514 379.56 562.741 376.301 565.195 373.212C567.65 370.081 571.099 368.515 575.542 368.515C580.07 368.515 583.815 370.356 586.777 374.037C587.412 373.403 588.237 371.858 589.253 369.404H591.602V385.463H589.253C588.407 381.612 586.756 378.311 584.302 375.561C581.89 372.768 579.033 371.371 575.732 371.371C573.193 371.371 571.141 372.154 569.575 373.72C568.009 375.286 567.227 377.105 567.227 379.179C567.227 381.464 568.094 383.432 569.829 385.082C571.522 386.775 574.759 388.7 579.541 390.859C586.735 394.117 591.136 397.291 592.744 400.38C594.352 403.512 595.156 406.516 595.156 409.394C595.156 413.922 593.654 417.603 590.649 420.439C587.687 423.274 583.942 424.692 579.414 424.692C574.632 424.692 570.379 422.724 566.655 418.788C565.513 420.058 564.582 421.878 563.862 424.247H561.387Z" fill="white"/>
<path d="M551.167 388.193H514.922C514.753 390.689 514.668 392.551 514.668 393.779C514.668 402.919 516.086 409.796 518.921 414.408C521.799 418.979 526.073 421.264 531.743 421.264C539.445 421.264 544.904 417.815 548.12 410.917H551.167C549.813 415.234 547.126 418.619 543.105 421.073C539.085 423.486 534.705 424.692 529.966 424.692C525.565 424.692 521.396 423.591 517.461 421.391C513.568 419.148 510.373 415.995 507.876 411.933C505.379 407.87 504.131 402.94 504.131 397.143C504.131 388.933 506.543 382.12 511.367 376.703C516.191 371.244 522.222 368.515 529.458 368.515C536.271 368.515 541.54 370.588 545.264 374.736C548.988 378.883 550.955 383.368 551.167 388.193ZM540.059 385.654C540.186 384.68 540.249 383.813 540.249 383.051C540.249 379.327 539.149 376.449 536.948 374.418C534.79 372.345 532.124 371.308 528.95 371.308C521.248 371.308 516.657 376.09 515.176 385.654H540.059Z" fill="white"/>
<path d="M493.34 409.902H496.133C493.255 419.762 486.061 424.692 474.551 424.692C467.145 424.692 460.903 422.174 455.825 417.138C450.789 412.102 448.271 405.437 448.271 397.143C448.271 388.637 451.001 381.739 456.46 376.449C461.919 371.16 468.372 368.515 475.82 368.515C480.306 368.515 484.432 369.509 488.198 371.498C491.965 373.445 493.848 375.836 493.848 378.671C493.848 379.729 493.488 380.724 492.769 381.655C492.091 382.586 491.097 383.051 489.785 383.051C486.992 383.051 485.278 381.422 484.644 378.163C484.136 375.709 483.353 373.995 482.295 373.022C481.195 372.048 479.058 371.562 475.884 371.562C470.213 371.562 465.939 373.53 463.062 377.465C460.226 381.401 458.809 387.325 458.809 395.239C458.809 403.406 460.332 409.796 463.379 414.408C466.468 419.021 471.123 421.327 477.344 421.327C485.723 421.327 491.055 417.519 493.34 409.902Z" fill="white"/>
<path d="M392.476 368.515H394.189C395.163 371.139 395.713 374.714 395.84 379.242C398.887 375.645 402.082 372.958 405.425 371.181C408.768 369.404 412.259 368.515 415.898 368.515C420.046 368.515 423.431 369.382 426.055 371.117C428.721 372.852 430.435 374.99 431.196 377.529C431.958 380.025 432.339 383.686 432.339 388.51V404.76C432.339 410.769 432.445 414.43 432.656 415.741C432.868 417.053 433.524 418.048 434.624 418.725C435.767 419.36 437.84 419.677 440.845 419.677V422.597H414.248V419.677H415.454C418.501 419.677 420.49 419.233 421.421 418.344C422.352 417.455 422.881 416.419 423.008 415.234C423.135 414.049 423.198 410.558 423.198 404.76V388.002C423.198 383.897 422.987 380.977 422.563 379.242C422.183 377.465 421.104 375.899 419.326 374.545C417.591 373.191 415.369 372.514 412.661 372.514C409.572 372.514 406.61 373.445 403.774 375.307C400.981 377.127 398.337 379.877 395.84 383.559V404.76C395.84 410.769 395.946 414.43 396.157 415.741C396.411 417.053 397.088 418.048 398.188 418.725C399.331 419.36 401.426 419.677 404.473 419.677V422.597H378.193V419.677C381.113 419.677 383.145 419.381 384.287 418.788C385.43 418.196 386.128 417.307 386.382 416.122C386.678 414.895 386.826 411.108 386.826 404.76V389.272C386.826 383.22 386.699 379.56 386.445 378.29C386.234 376.978 385.557 376.005 384.414 375.37C383.314 374.693 381.24 374.355 378.193 374.355V371.435C382.848 370.927 387.609 369.954 392.476 368.515Z" fill="white"/>
<path d="M369.624 388.193H333.379C333.21 390.689 333.125 392.551 333.125 393.779C333.125 402.919 334.543 409.796 337.378 414.408C340.256 418.979 344.53 421.264 350.2 421.264C357.902 421.264 363.361 417.815 366.577 410.917H369.624C368.27 415.234 365.583 418.619 361.562 421.073C357.542 423.486 353.162 424.692 348.423 424.692C344.022 424.692 339.854 423.591 335.918 421.391C332.025 419.148 328.83 415.995 326.333 411.933C323.836 407.87 322.588 402.94 322.588 397.143C322.588 388.933 325 382.12 329.824 376.703C334.648 371.244 340.679 368.515 347.915 368.515C354.728 368.515 359.997 370.588 363.721 374.736C367.445 378.883 369.412 383.368 369.624 388.193ZM358.516 385.654C358.643 384.68 358.706 383.813 358.706 383.051C358.706 379.327 357.606 376.449 355.405 374.418C353.247 372.345 350.581 371.308 347.407 371.308C339.705 371.308 335.114 376.09 333.633 385.654H358.516Z" fill="white"/>
<path d="M293.896 341.982C293.896 340.162 294.531 338.596 295.801 337.284C297.113 335.973 298.678 335.317 300.498 335.317C302.318 335.317 303.862 335.973 305.132 337.284C306.401 338.596 307.036 340.162 307.036 341.982C307.036 343.844 306.401 345.431 305.132 346.742C303.862 348.054 302.318 348.71 300.498 348.71C298.678 348.71 297.113 348.054 295.801 346.742C294.531 345.431 293.896 343.844 293.896 341.982ZM306.147 368.515V404.76C306.147 410.304 306.232 413.795 306.401 415.234C306.571 416.672 307.184 417.773 308.242 418.534C309.3 419.296 311.183 419.677 313.892 419.677H315.225V422.597H287.231V419.677H289.39C292.394 419.677 294.341 419.254 295.229 418.407C296.16 417.519 296.689 416.482 296.816 415.297C296.986 414.07 297.07 410.558 297.07 404.76V389.018C297.07 382.924 296.774 379.2 296.182 377.846C295.632 376.492 294.87 375.645 293.896 375.307C292.965 374.968 291.315 374.799 288.945 374.799H287.231V371.879C294.764 371.117 300.604 369.996 304.751 368.515H306.147Z" fill="white"/>
<path d="M259.365 381.781C260.804 378.015 263.132 374.863 266.348 372.323C269.606 369.784 272.78 368.515 275.869 368.515C278.662 368.515 280.863 369.382 282.471 371.117C284.079 372.852 284.883 374.63 284.883 376.449C284.883 377.677 284.46 378.735 283.613 379.623C282.809 380.512 281.815 380.956 280.63 380.956C278.514 380.956 276.906 379.391 275.806 376.259C275.044 374.143 273.901 373.085 272.378 373.085C270.558 373.085 268.379 374.334 265.84 376.83C263.301 379.285 261.672 381.845 260.952 384.511C260.233 387.177 259.873 390.837 259.873 395.492V404.76C259.873 410.304 259.937 413.795 260.063 415.234C260.233 416.672 260.846 417.773 261.904 418.534C262.962 419.296 264.845 419.677 267.554 419.677H269.331V422.597H241.719V419.677H243.052C245.591 419.677 247.389 419.338 248.447 418.661C249.548 417.942 250.203 416.948 250.415 415.678C250.627 414.408 250.732 410.769 250.732 404.76V390.097C250.732 384.511 250.648 381.02 250.479 379.623C250.352 378.184 249.759 377.084 248.701 376.323C247.643 375.518 245.76 375.116 243.052 375.116H241.719V372.26C245.697 371.795 250.902 370.546 257.334 368.515C258.561 371.858 259.238 376.28 259.365 381.781Z" fill="white"/>
<path d="M232.769 388.193H196.523C196.354 390.689 196.27 392.551 196.27 393.779C196.27 402.919 197.687 409.796 200.522 414.408C203.4 418.979 207.674 421.264 213.345 421.264C221.047 421.264 226.506 417.815 229.722 410.917H232.769C231.414 415.234 228.727 418.619 224.707 421.073C220.687 423.486 216.307 424.692 211.567 424.692C207.166 424.692 202.998 423.591 199.062 421.391C195.169 419.148 191.974 415.995 189.478 411.933C186.981 407.87 185.732 402.94 185.732 397.143C185.732 388.933 188.145 382.12 192.969 376.703C197.793 371.244 203.823 368.515 211.06 368.515C217.873 368.515 223.141 370.588 226.865 374.736C230.589 378.883 232.557 383.368 232.769 388.193ZM221.66 385.654C221.787 384.68 221.851 383.813 221.851 383.051C221.851 379.327 220.75 376.449 218.55 374.418C216.392 372.345 213.726 371.308 210.552 371.308C202.85 371.308 198.258 376.09 196.777 385.654H221.66Z" fill="white"/>
<path d="M129.111 368.515H130.825C131.545 370.885 131.904 373.741 131.904 377.084C134.613 374.207 137.511 372.07 140.601 370.673C143.732 369.234 147.033 368.515 150.503 368.515C157.697 368.515 163.685 371.054 168.467 376.132C173.249 381.168 175.64 387.833 175.64 396.127C175.64 404.252 173.228 411.044 168.403 416.503C163.621 421.962 157.316 424.692 149.487 424.692C146.271 424.692 143.182 424.036 140.22 422.724C137.3 421.454 134.528 419.55 131.904 417.011V436.752C131.904 442.761 132.01 446.422 132.222 447.734C132.476 449.045 133.153 450.019 134.253 450.654C135.353 451.331 137.406 451.669 140.41 451.669V454.589H113.242V451.669H115.146C118.151 451.669 120.098 451.225 120.986 450.336C121.917 449.49 122.446 448.453 122.573 447.226C122.743 446.041 122.827 442.55 122.827 436.752V389.526C122.827 383.982 122.743 380.491 122.573 379.052C122.446 377.613 121.854 376.513 120.796 375.751C119.738 374.99 117.855 374.609 115.146 374.609H113.242V371.689C117.432 371.266 122.721 370.208 129.111 368.515ZM131.904 412.822C134.189 415.615 136.602 417.73 139.141 419.169C141.722 420.566 144.43 421.264 147.266 421.264C152.048 421.264 156.216 419.212 159.771 415.107C163.325 411.002 165.103 404.464 165.103 395.492C165.103 387.706 163.389 381.887 159.961 378.036C156.533 374.185 152.45 372.26 147.71 372.26C144.79 372.26 142.018 373.001 139.395 374.482C136.771 375.963 134.274 378.206 131.904 381.21V412.822Z" fill="white"/>
<path d="M85.5664 393.08L100.166 411.425C102.705 414.599 104.8 416.757 106.45 417.9C108.143 419 110.153 419.592 112.48 419.677V422.597H86.5186V419.677C90.7926 419.677 92.9297 418.852 92.9297 417.201C92.9297 416.524 91.9564 415.064 90.0098 412.822L79.7266 400.063L70.2051 411.362C67.8776 414.07 66.7139 415.763 66.7139 416.44C66.7139 418.556 69.0625 419.635 73.7598 419.677V422.597H52.3682V419.677C54.2301 419.677 56.2826 419.19 58.5254 418.217C60.7682 417.244 63.667 414.662 67.2217 410.473L77.9492 397.778L66.46 383.241C63.2015 379.094 60.7259 376.449 59.0332 375.307C57.3405 374.122 55.3516 373.53 53.0664 373.53V370.61H77.5684V373.53C74.056 373.53 72.2998 374.312 72.2998 375.878C72.2998 376.598 73.0827 377.888 74.6484 379.75L83.7891 391.049L92.2314 381.147C94.1357 378.862 95.0879 377.444 95.0879 376.894C95.0879 374.651 92.7604 373.53 88.1055 373.53V370.61H108.735V373.53C104.588 373.656 100.293 376.259 95.8496 381.337L85.5664 393.08Z" fill="white"/>
<path d="M47.0361 388.193H10.791C10.6217 390.689 10.5371 392.551 10.5371 393.779C10.5371 402.919 11.9548 409.796 14.79 414.408C17.6676 418.979 21.9417 421.264 27.6123 421.264C35.3141 421.264 40.7731 417.815 43.9893 410.917H47.0361C45.682 415.234 42.9948 418.619 38.9746 421.073C34.9544 423.486 30.5745 424.692 25.835 424.692C21.4339 424.692 17.2656 423.591 13.3301 421.391C9.43685 419.148 6.24186 415.995 3.74512 411.933C1.24837 407.87 0 402.94 0 397.143C0 388.933 2.41211 382.12 7.23633 376.703C12.0605 371.244 18.0908 368.515 25.3271 368.515C32.1403 368.515 37.4089 370.588 41.1328 374.736C44.8568 378.883 46.8245 383.368 47.0361 388.193ZM35.9277 385.654C36.0547 384.68 36.1182 383.813 36.1182 383.051C36.1182 379.327 35.0179 376.449 32.8174 374.418C30.6592 372.345 27.9932 371.308 24.8193 371.308C17.1175 371.308 12.526 376.09 11.0449 385.654H35.9277Z" fill="white"/>
<path d="M1114.65 221.781C1116.09 218.015 1118.41 214.863 1121.63 212.323C1124.89 209.784 1128.06 208.515 1131.15 208.515C1133.95 208.515 1136.15 209.382 1137.75 211.117C1139.36 212.852 1140.17 214.63 1140.17 216.449C1140.17 217.677 1139.74 218.735 1138.9 219.623C1138.09 220.512 1137.1 220.956 1135.91 220.956C1133.8 220.956 1132.19 219.391 1131.09 216.259C1130.33 214.143 1129.18 213.085 1127.66 213.085C1125.84 213.085 1123.66 214.334 1121.12 216.83C1118.58 219.285 1116.95 221.845 1116.24 224.511C1115.52 227.177 1115.16 230.837 1115.16 235.492V244.76C1115.16 250.304 1115.22 253.795 1115.35 255.234C1115.52 256.672 1116.13 257.773 1117.19 258.534C1118.25 259.296 1120.13 259.677 1122.84 259.677H1124.61V262.597H1097V259.677H1098.33C1100.87 259.677 1102.67 259.338 1103.73 258.661C1104.83 257.942 1105.49 256.948 1105.7 255.678C1105.91 254.408 1106.02 250.769 1106.02 244.76V230.097C1106.02 224.511 1105.93 221.02 1105.76 219.623C1105.63 218.184 1105.04 217.084 1103.98 216.323C1102.93 215.518 1101.04 215.116 1098.33 215.116H1097V212.26C1100.98 211.795 1106.18 210.546 1112.62 208.515C1113.84 211.858 1114.52 216.28 1114.65 221.781Z" fill="white"/>
<path d="M1088.05 228.193H1051.81C1051.64 230.689 1051.55 232.551 1051.55 233.779C1051.55 242.919 1052.97 249.796 1055.81 254.408C1058.68 258.979 1062.96 261.264 1068.63 261.264C1076.33 261.264 1081.79 257.815 1085 250.917H1088.05C1086.7 255.234 1084.01 258.619 1079.99 261.073C1075.97 263.486 1071.59 264.692 1066.85 264.692C1062.45 264.692 1058.28 263.591 1054.35 261.391C1050.45 259.148 1047.26 255.995 1044.76 251.933C1042.26 247.87 1041.02 242.94 1041.02 237.143C1041.02 228.933 1043.43 222.12 1048.25 216.703C1053.08 211.244 1059.11 208.515 1066.34 208.515C1073.16 208.515 1078.42 210.588 1082.15 214.736C1085.87 218.883 1087.84 223.368 1088.05 228.193ZM1076.94 225.654C1077.07 224.68 1077.13 223.813 1077.13 223.051C1077.13 219.327 1076.03 216.449 1073.83 214.418C1071.67 212.345 1069.01 211.308 1065.83 211.308C1058.13 211.308 1053.54 216.09 1052.06 225.654H1076.94Z" fill="white"/>
<path d="M997.979 264.247V247.172H1000.45C1003.33 257.032 1008.47 261.962 1015.88 261.962C1019.1 261.962 1021.49 260.989 1023.05 259.042C1024.66 257.096 1025.46 254.959 1025.46 252.631C1025.46 249.923 1024.62 247.701 1022.92 245.966C1021.19 244.231 1017.83 242.136 1012.83 239.682C1007.58 237.101 1003.82 234.561 1001.53 232.065C999.248 229.61 998.105 226.585 998.105 222.988C998.105 219.56 999.333 216.301 1001.79 213.212C1004.24 210.081 1007.69 208.515 1012.13 208.515C1016.66 208.515 1020.41 210.356 1023.37 214.037C1024 213.403 1024.83 211.858 1025.84 209.404H1028.19V225.463H1025.84C1025 221.612 1023.35 218.311 1020.89 215.561C1018.48 212.768 1015.62 211.371 1012.32 211.371C1009.79 211.371 1007.73 212.154 1006.17 213.72C1004.6 215.286 1003.82 217.105 1003.82 219.179C1003.82 221.464 1004.69 223.432 1006.42 225.082C1008.11 226.775 1011.35 228.7 1016.13 230.859C1023.33 234.117 1027.73 237.291 1029.34 240.38C1030.94 243.512 1031.75 246.516 1031.75 249.394C1031.75 253.922 1030.25 257.603 1027.24 260.439C1024.28 263.274 1020.53 264.692 1016.01 264.692C1011.22 264.692 1006.97 262.724 1003.25 258.788C1002.1 260.058 1001.17 261.878 1000.45 264.247H997.979Z" fill="white"/>
<path d="M981.411 210.61V244.697C981.411 250.367 981.496 253.922 981.665 255.361C981.834 256.799 982.448 257.878 983.506 258.598C984.606 259.317 986.553 259.677 989.346 259.677V262.597C982.913 262.682 978.216 263.359 975.254 264.628H974.492C973.138 262.301 972.419 258.281 972.334 252.568C969.753 256.588 966.79 259.614 963.447 261.645C960.146 263.676 956.486 264.692 952.466 264.692C948.996 264.692 945.928 263.909 943.262 262.343C940.596 260.735 938.755 258.788 937.739 256.503C936.766 254.218 936.279 250.769 936.279 246.156V228.447C936.279 222.437 936.174 218.777 935.962 217.465C935.75 216.111 935.073 215.116 933.931 214.482C932.83 213.847 930.778 213.53 927.773 213.53V210.61H945.42V246.664C945.42 250.219 945.632 252.8 946.055 254.408C946.478 256.017 947.557 257.434 949.292 258.661C951.027 259.846 953.037 260.439 955.322 260.439C958.581 260.439 961.691 259.381 964.653 257.265C967.616 255.107 969.626 252.843 970.684 250.473C971.784 248.061 972.334 244.633 972.334 240.19V228.447C972.334 222.776 972.271 219.327 972.144 218.1C972.017 216.873 971.466 215.815 970.493 214.926C969.562 213.995 967.594 213.53 964.59 213.53H963.257V210.61H981.411Z" fill="white"/>
<path d="M887.466 228.193H851.221C851.051 230.689 850.967 232.551 850.967 233.779C850.967 242.919 852.384 249.796 855.22 254.408C858.097 258.979 862.371 261.264 868.042 261.264C875.744 261.264 881.203 257.815 884.419 250.917H887.466C886.112 255.234 883.424 258.619 879.404 261.073C875.384 263.486 871.004 264.692 866.265 264.692C861.864 264.692 857.695 263.591 853.76 261.391C849.867 259.148 846.672 255.995 844.175 251.933C841.678 247.87 840.43 242.94 840.43 237.143C840.43 228.933 842.842 222.12 847.666 216.703C852.49 211.244 858.521 208.515 865.757 208.515C872.57 208.515 877.839 210.588 881.562 214.736C885.286 218.883 887.254 223.368 887.466 228.193ZM876.357 225.654C876.484 224.68 876.548 223.813 876.548 223.051C876.548 219.327 875.448 216.449 873.247 214.418C871.089 212.345 868.423 211.308 865.249 211.308C857.547 211.308 852.956 216.09 851.475 225.654H876.357Z" fill="white"/>
<path d="M824.243 210.61V244.697C824.243 250.367 824.328 253.922 824.497 255.361C824.666 256.799 825.28 257.878 826.338 258.598C827.438 259.317 829.385 259.677 832.178 259.677V262.597C825.745 262.682 821.048 263.359 818.086 264.628H817.324C815.97 262.301 815.251 258.281 815.166 252.568C812.585 256.588 809.622 259.614 806.279 261.645C802.979 263.676 799.318 264.692 795.298 264.692C791.828 264.692 788.76 263.909 786.094 262.343C783.428 260.735 781.587 258.788 780.571 256.503C779.598 254.218 779.111 250.769 779.111 246.156V228.447C779.111 222.437 779.006 218.777 778.794 217.465C778.582 216.111 777.905 215.116 776.763 214.482C775.662 213.847 773.61 213.53 770.605 213.53V210.61H788.252V246.664C788.252 250.219 788.464 252.8 788.887 254.408C789.31 256.017 790.389 257.434 792.124 258.661C793.859 259.846 795.869 260.439 798.154 260.439C801.413 260.439 804.523 259.381 807.485 257.265C810.448 255.107 812.458 252.843 813.516 250.473C814.616 248.061 815.166 244.633 815.166 240.19V228.447C815.166 222.776 815.103 219.327 814.976 218.1C814.849 216.873 814.299 215.815 813.325 214.926C812.394 213.995 810.426 213.53 807.422 213.53H806.089V210.61H824.243Z" fill="white"/>
<path d="M755.498 208.515H757.593V276.752C757.593 282.296 757.656 285.787 757.783 287.226C757.952 288.665 758.566 289.765 759.624 290.527C760.682 291.288 762.565 291.669 765.273 291.669H766.67V294.589H738.677V291.669H740.771C743.311 291.669 745.109 291.331 746.167 290.654C747.267 289.976 747.923 288.982 748.135 287.67C748.346 286.401 748.452 282.761 748.452 276.752V258.154C745.405 260.312 742.316 261.941 739.185 263.041C736.095 264.142 732.943 264.692 729.727 264.692C722.49 264.692 716.46 262.216 711.636 257.265C706.854 252.314 704.463 245.712 704.463 237.46C704.463 228.785 707.129 221.803 712.461 216.513C717.835 211.181 723.887 208.515 730.615 208.515C733.451 208.515 736.349 209.086 739.312 210.229C742.316 211.329 745.363 213.022 748.452 215.307C750.78 213.783 753.128 211.519 755.498 208.515ZM748.452 219.242C745.955 216.957 743.374 215.243 740.708 214.101C738.084 212.958 735.397 212.387 732.646 212.387C727.822 212.387 723.675 214.27 720.205 218.036C716.735 221.803 715 228.468 715 238.031C715 245.776 716.481 251.615 719.443 255.551C722.448 259.444 726.595 261.391 731.885 261.391C734.72 261.391 737.513 260.883 740.264 259.867C743.014 258.809 745.744 257.244 748.452 255.17V219.242Z" fill="white"/>
<path d="M676.152 181.982C676.152 180.162 676.787 178.596 678.057 177.284C679.368 175.973 680.934 175.317 682.754 175.317C684.574 175.317 686.118 175.973 687.388 177.284C688.657 178.596 689.292 180.162 689.292 181.982C689.292 183.844 688.657 185.431 687.388 186.742C686.118 188.054 684.574 188.71 682.754 188.71C680.934 188.71 679.368 188.054 678.057 186.742C676.787 185.431 676.152 183.844 676.152 181.982ZM688.403 208.515V244.76C688.403 250.304 688.488 253.795 688.657 255.234C688.826 256.672 689.44 257.773 690.498 258.534C691.556 259.296 693.439 259.677 696.147 259.677H697.48V262.597H669.487V259.677H671.646C674.65 259.677 676.597 259.254 677.485 258.407C678.416 257.519 678.945 256.482 679.072 255.297C679.242 254.07 679.326 250.558 679.326 244.76V229.018C679.326 222.924 679.03 219.2 678.438 217.846C677.887 216.492 677.126 215.645 676.152 215.307C675.221 214.968 673.571 214.799 671.201 214.799H669.487V211.879C677.02 211.117 682.86 209.996 687.007 208.515H688.403Z" fill="white"/>
<path d="M616.294 208.515H618.008C618.981 211.139 619.531 214.714 619.658 219.242C622.705 215.645 625.9 212.958 629.243 211.181C632.586 209.404 636.077 208.515 639.717 208.515C643.864 208.515 647.249 209.382 649.873 211.117C652.539 212.852 654.253 214.99 655.015 217.529C655.776 220.025 656.157 223.686 656.157 228.51V244.76C656.157 250.769 656.263 254.43 656.475 255.741C656.686 257.053 657.342 258.048 658.442 258.725C659.585 259.36 661.659 259.677 664.663 259.677V262.597H638.066V259.677H639.272C642.319 259.677 644.308 259.233 645.239 258.344C646.17 257.455 646.699 256.419 646.826 255.234C646.953 254.049 647.017 250.558 647.017 244.76V228.002C647.017 223.897 646.805 220.977 646.382 219.242C646.001 217.465 644.922 215.899 643.145 214.545C641.41 213.191 639.188 212.514 636.479 212.514C633.39 212.514 630.428 213.445 627.593 215.307C624.8 217.127 622.155 219.877 619.658 223.559V244.76C619.658 250.769 619.764 254.43 619.976 255.741C620.229 257.053 620.907 258.048 622.007 258.725C623.149 259.36 625.244 259.677 628.291 259.677V262.597H602.012V259.677C604.932 259.677 606.963 259.381 608.105 258.788C609.248 258.196 609.946 257.307 610.2 256.122C610.496 254.895 610.645 251.108 610.645 244.76V229.272C610.645 223.22 610.518 219.56 610.264 218.29C610.052 216.978 609.375 216.005 608.232 215.37C607.132 214.693 605.059 214.355 602.012 214.355V211.435C606.667 210.927 611.427 209.954 616.294 208.515Z" fill="white"/>
<path d="M587.095 210.61V244.697C587.095 250.367 587.179 253.922 587.349 255.361C587.518 256.799 588.132 257.878 589.189 258.598C590.29 259.317 592.236 259.677 595.029 259.677V262.597C588.597 262.682 583.9 263.359 580.938 264.628H580.176C578.822 262.301 578.102 258.281 578.018 252.568C575.436 256.588 572.474 259.614 569.131 261.645C565.83 263.676 562.17 264.692 558.149 264.692C554.679 264.692 551.611 263.909 548.945 262.343C546.279 260.735 544.438 258.788 543.423 256.503C542.45 254.218 541.963 250.769 541.963 246.156V228.447C541.963 222.437 541.857 218.777 541.646 217.465C541.434 216.111 540.757 215.116 539.614 214.482C538.514 213.847 536.462 213.53 533.457 213.53V210.61H551.104V246.664C551.104 250.219 551.315 252.8 551.738 254.408C552.161 256.017 553.241 257.434 554.976 258.661C556.711 259.846 558.721 260.439 561.006 260.439C564.264 260.439 567.375 259.381 570.337 257.265C573.299 255.107 575.309 252.843 576.367 250.473C577.467 248.061 578.018 244.633 578.018 240.19V228.447C578.018 222.776 577.954 219.327 577.827 218.1C577.7 216.873 577.15 215.815 576.177 214.926C575.246 213.995 573.278 213.53 570.273 213.53H568.94V210.61H587.095Z" fill="white"/>
<path d="M1089.32 48.5149H1091.04C1092.01 51.1386 1092.56 54.7144 1092.69 59.2424C1095.73 55.6454 1098.93 52.9583 1102.27 51.1809C1105.61 49.4036 1109.1 48.5149 1112.74 48.5149C1116.89 48.5149 1120.28 49.3824 1122.9 51.1174C1125.57 52.8525 1127.28 54.9895 1128.04 57.5286C1128.8 60.0253 1129.18 63.6858 1129.18 68.51V84.76C1129.18 90.7691 1129.29 94.4296 1129.5 95.7415C1129.71 97.0533 1130.37 98.0478 1131.47 98.7249C1132.61 99.3596 1134.69 99.677 1137.69 99.677V102.597H1111.09V99.677H1112.3C1115.35 99.677 1117.34 99.2327 1118.27 98.344C1119.2 97.4553 1119.73 96.4185 1119.85 95.2336C1119.98 94.0487 1120.04 90.5575 1120.04 84.76V68.0022C1120.04 63.8974 1119.83 60.9775 1119.41 59.2424C1119.03 57.4651 1117.95 55.8993 1116.17 54.5452C1114.44 53.191 1112.22 52.5139 1109.51 52.5139C1106.42 52.5139 1103.46 53.4449 1100.62 55.3069C1097.83 57.1265 1095.18 59.8772 1092.69 63.5588V84.76C1092.69 90.7691 1092.79 94.4296 1093 95.7415C1093.26 97.0533 1093.93 98.0478 1095.03 98.7249C1096.18 99.3596 1098.27 99.677 1101.32 99.677V102.597H1075.04V99.677C1077.96 99.677 1079.99 99.3808 1081.13 98.7883C1082.28 98.1959 1082.97 97.3072 1083.23 96.1223C1083.52 94.8951 1083.67 91.1077 1083.67 84.76V69.2717C1083.67 63.2203 1083.54 59.5598 1083.29 58.2903C1083.08 56.9784 1082.4 56.0051 1081.26 55.3704C1080.16 54.6933 1078.09 54.3547 1075.04 54.3547V51.4348C1079.69 50.927 1084.45 49.9537 1089.32 48.5149Z" fill="white"/>
<path d="M1055.04 55.1799C1058.64 51.1174 1062.28 49.0862 1065.96 49.0862C1067.99 49.0862 1069.56 49.6363 1070.66 50.7366C1071.8 51.8368 1072.37 53.0429 1072.37 54.3547C1072.37 57.1477 1071.1 58.5442 1068.56 58.5442C1067.17 58.5442 1065.96 57.6767 1064.95 55.9417C1064.02 54.3336 1063.04 53.5295 1062.03 53.5295C1060.42 53.5295 1058.64 54.6298 1056.69 56.8303C1058.89 60.3004 1060 63.982 1060 67.8752C1060 72.9534 1058.18 77.439 1054.54 81.3323C1050.9 85.2678 1044.76 87.3837 1036.13 87.6799C1027.16 87.9762 1022.67 89.7958 1022.67 93.1389C1022.67 94.7047 1023.69 95.8049 1025.72 96.4397C1027.71 97.1168 1031.9 97.6246 1038.29 97.9631C1045.27 98.3017 1050.64 98.9576 1054.41 99.9309C1058.18 100.862 1061.18 102.766 1063.42 105.644C1065.67 108.521 1066.79 111.949 1066.79 115.927C1066.79 121.513 1064.5 126.02 1059.93 129.448C1055.36 132.875 1048.78 134.589 1040.19 134.589C1032.32 134.589 1026.01 133.066 1021.27 130.019C1016.53 126.972 1014.17 123.121 1014.17 118.466C1014.17 115.885 1014.84 113.769 1016.2 112.118C1017.55 110.468 1019.48 109.643 1021.97 109.643C1022.65 109.643 1023.26 109.749 1023.81 109.96C1021.19 112.838 1019.88 115.885 1019.88 119.101C1019.88 122.825 1021.61 125.893 1025.08 128.305C1028.6 130.759 1033.82 131.987 1040.76 131.987C1046.94 131.987 1051.74 130.738 1055.17 128.241C1058.64 125.787 1060.38 122.634 1060.38 118.783C1060.38 114.552 1058.83 111.568 1055.74 109.833C1052.65 108.141 1047.15 107.125 1039.24 106.786C1030.14 106.406 1024.24 105.284 1021.53 103.422C1018.82 101.602 1017.47 99.2538 1017.47 96.3762C1017.47 90.8326 1021.34 87.3414 1029.08 85.9026C1025.06 83.5328 1022.04 80.8245 1020 77.7776C1017.97 74.7307 1016.96 71.3241 1016.96 67.5579C1016.96 62.2681 1019.03 57.7825 1023.18 54.1008C1027.37 50.3769 1032.32 48.5149 1038.03 48.5149C1045.1 48.5149 1050.77 50.7366 1055.04 55.1799ZM1026.48 69.0178C1026.48 74.4768 1027.6 78.4758 1029.84 81.0149C1032.09 83.554 1034.94 84.8235 1038.41 84.8235C1041.63 84.8235 1044.38 83.5751 1046.67 81.0784C1048.99 78.5393 1050.16 74.1594 1050.16 67.9387C1050.16 61.6757 1048.93 57.3593 1046.47 54.9895C1044.02 52.6197 1041.25 51.4348 1038.16 51.4348C1034.27 51.4348 1031.35 52.8948 1029.4 55.8147C1027.45 58.7346 1026.48 63.1357 1026.48 69.0178Z" fill="white"/>
<path d="M986.68 21.9817C986.68 20.162 987.314 18.5963 988.584 17.2844C989.896 15.9726 991.462 15.3167 993.281 15.3167C995.101 15.3167 996.646 15.9726 997.915 17.2844C999.185 18.5963 999.819 20.162 999.819 21.9817C999.819 23.8437 999.185 25.4306 997.915 26.7424C996.646 28.0543 995.101 28.7102 993.281 28.7102C991.462 28.7102 989.896 28.0543 988.584 26.7424C987.314 25.4306 986.68 23.8437 986.68 21.9817ZM998.931 48.5149V84.76C998.931 90.3036 999.015 93.7948 999.185 95.2336C999.354 96.6724 999.967 97.7727 1001.03 98.5344C1002.08 99.2961 1003.97 99.677 1006.67 99.677H1008.01V102.597H980.015V99.677H982.173C985.177 99.677 987.124 99.2538 988.013 98.4075C988.944 97.5188 989.473 96.482 989.6 95.2971C989.769 94.0699 989.854 90.5575 989.854 84.76V69.0178C989.854 62.9241 989.557 59.2001 988.965 57.8459C988.415 56.4918 987.653 55.6454 986.68 55.3069C985.749 54.9683 984.098 54.7991 981.729 54.7991H980.015V51.8792C987.547 51.1174 993.387 49.996 997.534 48.5149H998.931Z" fill="white"/>
<path d="M939.834 104.247V87.1721H942.31C945.187 97.0321 950.329 101.962 957.734 101.962C960.951 101.962 963.341 100.989 964.907 99.0422C966.515 97.0956 967.319 94.9586 967.319 92.6311C967.319 89.9228 966.473 87.7011 964.78 85.9661C963.045 84.231 959.681 82.1363 954.688 79.6819C949.44 77.1005 945.674 74.5614 943.389 72.0647C941.104 69.6103 939.961 66.5846 939.961 62.9875C939.961 59.5598 941.188 56.3014 943.643 53.2122C946.097 50.0806 949.546 48.5149 953.989 48.5149C958.517 48.5149 962.262 50.3557 965.225 54.0374C965.859 53.4026 966.685 51.858 967.7 49.4036H970.049V65.4631H967.7C966.854 61.6122 965.203 58.3114 962.749 55.5608C960.337 52.7678 957.48 51.3713 954.18 51.3713C951.641 51.3713 949.588 52.1542 948.022 53.72C946.457 55.2857 945.674 57.1054 945.674 59.179C945.674 61.4641 946.541 63.4319 948.276 65.0823C949.969 66.775 953.206 68.7004 957.988 70.8586C965.182 74.1171 969.583 77.2909 971.191 80.3801C972.799 83.5116 973.604 86.5162 973.604 89.3938C973.604 93.9218 972.101 97.6034 969.097 100.439C966.134 103.274 962.389 104.692 957.861 104.692C953.079 104.692 948.826 102.724 945.103 98.7883C943.96 100.058 943.029 101.878 942.31 104.247H939.834Z" fill="white"/>
<path d="M929.614 68.1926H893.369C893.2 70.6894 893.115 72.5514 893.115 73.7786C893.115 82.9192 894.533 89.7958 897.368 94.4084C900.246 98.9788 904.52 101.264 910.19 101.264C917.892 101.264 923.351 97.815 926.567 90.9172H929.614C928.26 95.2336 925.573 98.6191 921.553 101.073C917.533 103.486 913.153 104.692 908.413 104.692C904.012 104.692 899.844 103.591 895.908 101.391C892.015 99.148 888.82 95.9954 886.323 91.9329C883.826 87.8704 882.578 82.9403 882.578 77.1428C882.578 68.9332 884.99 62.12 889.814 56.7034C894.639 51.2444 900.669 48.5149 907.905 48.5149C914.718 48.5149 919.987 50.5885 923.711 54.7356C927.435 58.8827 929.403 63.3684 929.614 68.1926ZM918.506 65.6536C918.633 64.6803 918.696 63.8127 918.696 63.051C918.696 59.3271 917.596 56.4495 915.396 54.4182C913.237 52.3446 910.571 51.3079 907.397 51.3079C899.696 51.3079 895.104 56.0898 893.623 65.6536H918.506Z" fill="white"/>
<path d="M858.711 56.1321V35.8196C858.711 30.276 858.626 26.7847 858.457 25.3459C858.33 23.9071 857.738 22.8069 856.68 22.0452C855.622 21.2834 853.739 20.9026 851.03 20.9026H849.697V17.9827C854.818 17.8557 860.425 16.967 866.519 15.3167H867.852V85.2043C867.852 91.2558 867.957 94.9374 868.169 96.2493C868.381 97.5611 869.036 98.5344 870.137 99.1692C871.279 99.804 873.374 100.121 876.421 100.121V103.041C870.285 103.168 864.826 103.718 860.044 104.692C859.536 102.703 859.282 99.5712 859.282 95.2971C856.151 98.4286 852.913 100.777 849.57 102.343C846.27 103.909 842.842 104.692 839.287 104.692C832.559 104.692 826.74 101.983 821.831 96.5667C816.965 91.15 814.531 84.5907 814.531 76.8889C814.531 68.4254 817.028 61.5911 822.021 56.386C827.015 51.1386 832.961 48.5149 839.858 48.5149C843.371 48.5149 846.693 49.1497 849.824 50.4192C852.956 51.6887 855.918 53.593 858.711 56.1321ZM858.711 59.8137C855.918 57.4016 853.104 55.6031 850.269 54.4182C847.476 53.191 844.661 52.5774 841.826 52.5774C837.044 52.5774 833.045 54.4182 829.829 58.0999C826.655 61.7815 825.068 67.7906 825.068 76.1272C825.068 84.5907 826.698 90.8326 829.956 94.8528C833.257 98.873 837.319 100.883 842.144 100.883C845.36 100.883 848.343 100.121 851.094 98.5979C853.844 97.0745 856.383 94.7893 858.711 91.7424V59.8137Z" fill="white"/>
<path d="M734.678 19.4426V16.5227H774.033V19.4426H772.192C767.961 19.4426 765.189 19.8023 763.877 20.5217C762.565 21.1988 761.676 22.4895 761.211 24.3938C760.788 26.2981 760.576 30.8261 760.576 37.9778V80.1897C760.576 86.9605 760.724 91.4039 761.021 93.5198C761.359 95.5933 762.205 97.1379 763.56 98.1536C764.956 99.1692 767.601 99.677 771.494 99.677H774.033V102.597H734.678V99.677H737.217C740.898 99.677 743.438 99.2115 744.834 98.2805C746.273 97.3495 747.183 95.9107 747.563 93.9641C747.944 91.9752 748.135 87.3837 748.135 80.1897V37.9778C748.135 31.1223 747.944 26.7001 747.563 24.7112C747.183 22.7222 746.336 21.3469 745.024 20.5852C743.713 19.8235 740.877 19.4426 736.519 19.4426H734.678Z" fill="white"/>
<path d="M673.359 127.353V124.179C677.845 122.867 681.336 120.561 683.833 117.26C686.33 114.002 687.578 110.722 687.578 107.421C687.578 104.628 686.689 103.232 684.912 103.232C684.574 103.232 684.023 103.337 683.262 103.549C682.627 103.761 682.035 103.866 681.484 103.866C679.58 103.866 677.993 103.316 676.724 102.216C675.454 101.073 674.819 99.5924 674.819 97.7727C674.819 95.8261 675.433 94.218 676.66 92.9485C677.887 91.679 679.474 91.0442 681.421 91.0442C684.425 91.0442 686.859 92.4407 688.721 95.2336C690.625 97.9843 691.577 101.222 691.577 104.946C691.577 110.32 689.927 115.038 686.626 119.101C683.368 123.163 678.945 125.914 673.359 127.353Z" fill="white"/>
<path d="M331.683 89.3073C346.449 81.0986 359.905 70.5431 375.17 52.5761C385.561 40.3111 391.147 26.3065 391.413 16.647C391.546 9.46458 388.044 4.01587 381.57 4.01587C374.388 4.01587 369.865 9.46458 367.072 21.9719C364.013 35.7175 361.752 51.4901 356.032 102.067" stroke="white" stroke-width="7.98073" stroke-linecap="round"/>
<path d="M356.593 97.1236C359.521 71.3829 370.663 52.586 384.896 52.586C393.409 52.586 398.819 59.3696 397.283 69.0795C396.418 74.799 395.415 80.6515 394.247 87.4352C392.886 95.9479 396.777 102.599 408.567 102.599C425.76 102.599 444.518 93.0438 454.117 78.2448C457.387 73.2029 458.718 68.6804 458.851 64.291C458.984 56.3103 454.461 50.3248 446.48 50.3248C436.371 50.3248 428.657 61.7638 428.657 76.3951C428.657 92.0906 437.17 103.131 455.248 103.131C479.83 103.131 507.057 73.6222 519.568 40.6916C523.1 31.3937 524.426 22.76 524.426 16.7267C524.426 9.57294 522.164 4.07991 515.78 4.07991C509.528 4.07991 505.405 8.93422 501.68 16.5989C497.317 25.4885 494.089 38.3103 492.769 52.8041C489.443 89.1723 496.892 102.599 514.603 102.599C536.079 102.599 559.955 72.6802 572.147 40.5897C575.64 31.3937 576.965 22.76 576.965 16.7267C576.965 9.57294 574.704 4.07991 568.32 4.07991C562.068 4.07991 557.945 8.93422 554.22 16.5989C549.857 25.4885 546.629 38.3103 545.308 52.8041C541.983 89.1723 549.432 102.599 565.248 102.599C581.039 102.599 589.617 88.8338 594.76 74.2176C599.844 59.7686 606.095 50.8568 619.13 50.8568C629.904 50.8568 638.417 58.8375 638.417 73.8679C638.417 90.4944 627.63 102.998 613.998 103.131C602.003 103.264 594.124 93.5537 594.922 78.9224C595.853 62.6949 605.696 50.8568 618.598 50.8568C626.047 50.8568 632.303 54.1679 637.22 57.7734C650.55 67.4976 660.82 61.4883 664.753 51.8734" stroke="white" stroke-width="7.98073" stroke-linecap="round"/>
</svg>
